<?xml version="1.0" encoding="utf-8"?>
<!-- Generator: Adobe Illustrator 17.1.0, SVG Export Plug-In . SVG Version: 6.00 Build 0)  -->
<!DOCTYPE svg PUBLIC "-//W3C//DTD SVG 1.1//EN" "http://www.w3.org/Graphics/SVG/1.1/DTD/svg11.dtd">
<svg version="1.1" id="Layer_1" xmlns="http://www.w3.org/2000/svg" xmlns:xlink="http://www.w3.org/1999/xlink" x="0px" y="0px"
	 viewBox="889.2 56.2 15.5 707.8" enable-background="new 889.2 56.2 15.5 707.8" xml:space="preserve">
<g>
	<g>
		<g>
			<g>
				<g>
					<path d="M901.6,761c-0.1,3.7,0.9,2.4,1,3C902.4,757.9,901.4,761.2,901.6,761z"/>
					<polygon points="899.5,700.5 899.8,701.6 899,692.5 					"/>
					<path d="M899.5,643.6c-1.6,5.4,0.2,20.6-0.3,30.8l-0.3,1.7l1.2,4.6C899.8,668.2,899.1,652.3,899.5,643.6z"/>
					<path d="M903,613.4c-0.7,1.9-0.6-6.5-0.2,7c0.1-0.7,0.1-0.9,0.1-1.3C902.8,618,902.8,616.4,903,613.4z"/>
					<path d="M902.8,619.1C903,625.3,903.4,615.3,902.8,619.1L902.8,619.1z"/>
					<path d="M902.5,591.5l0.6,7.8c0.3-1.7,0.4-8.7,0.7-6.1C903.5,585.4,903.2,587.1,902.5,591.5z"/>
					<path d="M901.4,584.1l0.2,4.1C901.7,587.5,901.8,586.4,901.4,584.1z"/>
					<path d="M902.1,596.9l-0.4-8.7c-0.2,1.1-0.8,1.3,0.2,3.9C901.3,591.5,901.7,593.2,902.1,596.9z"/>
					<path d="M901.8,601.7c-0.3,4.4-0.6,10.2-1.1,2.2C901,619,902.1,616.7,901.8,601.7z"/>
					<path d="M897.8,640.8l-0.4,5.9l0.6,5.2C897.6,649.2,898.4,640.4,897.8,640.8z"/>
					<path d="M903.4,542.6c-0.3-0.6-0.9,2.6-1.3,3.1l0.3,5.7C902.6,548.6,902.8,543,903.4,542.6z"/>
					<path d="M902.1,545.8l-0.6-8.7C901.4,544.9,901.6,546.3,902.1,545.8z"/>
					<polygon points="899.6,582.6 900.8,597.1 899.6,580.1 					"/>
					<polygon points="903.4,509.3 904.2,514.3 903,505.4 					"/>
					<path d="M903.3,487.2c0.7,3.7,1.1-5,1.4-1.1c-0.1-5.9-0.7-11.1-1.2-15.7C903.9,475.4,903.7,480.6,903.3,487.2z"/>
					<path d="M902.8,462.8c0.1,2.4,0.4,5,0.8,7.8C903.4,467.8,903.2,465.4,902.8,462.8z"/>
					<path d="M901.6,522.3c0.2-0.7,0.8-2,1-6.9l-1,3.3C901.6,519.9,901.6,521.1,901.6,522.3z"/>
					<path d="M901.6,518.9L901.6,518.9c0.1-3.9,0.1-6.5,0.1-7.6C901.6,512.4,901.6,514.7,901.6,518.9z"/>
					<path d="M901.6,523.2c0-0.4,0-0.6,0-0.9C901.5,522.6,901.5,522.8,901.6,523.2z"/>
					<path d="M900.5,559.9c-0.6-5.2-1.1-15.7-1.9-5.4C899.2,558.2,899.6,552.3,900.5,559.9z"/>
					<path d="M900.4,527.4l-0.2,9.3c0.2-0.2,0.7-1.9,0.9,0.7L900.4,527.4z"/>
					<polygon points="900.1,522.8 900.4,527.4 900.5,523.9 					"/>
					<path d="M902,478.5c-0.4-4.1-0.4-8.3-0.6-13.3c-0.2,5.4-0.3,10.7-0.3,15.9C901.5,481.9,902,484.3,902,478.5z"/>
					<path d="M901.7,498.2c0-0.2,0-0.6,0-0.9C901.5,497.8,901.5,498.4,901.7,498.2z"/>
					<path d="M901.5,416.7c-0.1,0.2-0.1,0.6-0.2,0.7c0.1,0,0.1,0.2,0.1,0.2L901.5,416.7z"/>
					<path d="M901,482.1c-0.2,3.9,0,6.3,0.3,8.5c-0.1-3-0.1-6.1-0.1-9.4C901.1,481,901,480.8,901,482.1z"/>
					<path d="M902.4,449.3c-0.2,2-0.3,4.4-0.6,6.9C902.2,454.1,902.6,450,902.4,449.3z"/>
					<path d="M902,496c0,0.2,0,0.4,0,0.6C902.2,495.2,902.1,495.4,902,496z"/>
					<path d="M902,496c-0.1-2-0.3-3.7-0.6-5.2c0.1,2.4,0.2,4.6,0.3,6.7C901.7,496.9,901.8,496.3,902,496z"/>
					<path d="M895.4,402c0.9,0.7,1.7,11.1,0.8,20.2c0.7,8.9,3.6,3.1,5.2-4.6c-0.3-0.2-0.8-0.2-1.2-9.4c-0.4,3.1-1.1,20.2-1.9,12.6
						c-0.4-12,0.3-9.8,0.8-15.7c-1.1,5-1.6-15.4-3.2-12.8l0.6,10.6C896,403,895.6,399.1,895.4,402z"/>
					<path d="M901.2,434.8l0.1,3.7c0.1-4.3,0.6-7.4,1.2-13c-0.4-6.3-0.8-7.6-1-8l-0.1,18.5L901.2,434.8z"/>
					<path d="M901.3,455.6c-1-3-1.3-12-2.4-6.5c0.1,11.1,0.8,7.8,1.2,14.3C899.8,445.6,900.6,468.5,901.3,455.6
						c0,3.7,0.1,6.9,0.1,9.8c0.1-3.1,0.2-6.3,0.4-9.3c0,0.2,0,0.2-0.1,0.4l0,0l0,0c-0.1,0.7-0.2,1.1-0.1,0.2c0,0,0-0.2,0-0.4
						C901.5,456.1,901.4,455.9,901.3,455.6c0.2-5.2,0.2-0.7,0.3,0.7l0.1,0.2l0,0l-0.6-17.8C901.2,442.4,901.2,447.2,901.3,455.6z"/>
					<path d="M896.5,545c0.1-0.6,0.1-0.6,0.2-0.6C896.6,543.2,896.5,542.8,896.5,545z"/>
					<path d="M897.1,537.6c0.1,1.3,0.6,2.4,0.4,6.7c-0.3,3.7-0.4,0-0.8,0.2c0.2,2.6,0.7,8.9,1.1,0.9l-0.1-1.3
						c0.3-7.2,1.6-16.5,1.7-15.2C898.5,531,898,532.8,897.1,537.6z"/>
					<path d="M899,496.1l-0.4-14.8l-0.8,7.6l0.4-0.4C898,496.9,898.6,495,899,496.1z"/>
					<polygon points="902,415 903,417 901.5,408.3 					"/>
					<polygon points="901.8,395.7 902.7,396.5 902.2,391.3 					"/>
					<path d="M901.5,198.3c0.3-5.6,0.6-9.8,0.6-13.7C901.5,191,900.6,196.4,901.5,198.3z"/>
					<path d="M902.1,168.6c-0.1,0.9-0.1,1.9-0.2,3c0.1,4.1,0.3,8,0.2,13C902.4,179.6,902.7,174,902.1,168.6z"/>
					<path d="M902.2,318.1C902.3,322.2,902.3,318.9,902.2,318.1L902.2,318.1z"/>
					<path d="M898.4,337.9c-0.1-0.9-0.2-1.5-0.4-1.7C898.2,336.6,898.3,337.4,898.4,337.9z"/>
					<path d="M896.1,127.9c0-0.2,0-0.2,0-0.4C895.8,128.8,895.8,128.6,896.1,127.9z"/>
					<path d="M901.8,324.2c0.1-1.5,0.2-3.3,0.3-5.2C902,320,902,321.5,901.8,324.2z"/>
					<path d="M902.3,323.5c0,1.5-0.1,2.6-0.1,3.5C902.3,327.6,902.4,327,902.3,323.5z"/>
					<path d="M902.2,312.4c0,2.4,0,4.4-0.1,6.7c0.1-0.7,0.1-1.1,0.1-0.9C902.2,317,902.2,315.2,902.2,312.4z"/>
					<path d="M896.6,67.9c-0.1,1.5-0.2,2.4-0.2,3c-0.3,2.4-0.8,3-1.1,2.8c-0.4-0.2-0.8-0.9-1.2-1.3c-2,1.1-3.1,2.4-2.7,3.1
						c0.2-0.4,0.7-0.6,1.2-0.9c0.2,0.4,0.4,1.1,0.6,1.7c-0.2,1.7-0.4,1.7-0.8,2c-0.2,0.4-0.4,0.9-0.3,3.5c0.2,0,0.3,0.2,0.4,0.6
						c0,0.2,0.1,0.4,0.1,0.6s0.1,0.4,0.1,0.9c0.1,1.7,0.1,3.5,0,5c0,2.8-0.1,3.5,0.6-3.9c0.4,9.4-0.3,10-0.2,20.9
						c1-3.5,3.3,9.8,3.8,19.3c-0.3-0.6-0.9,1.5-1.1,2.6c-0.1,19.3-0.8,29.5-0.9,47.4c-0.3,1.7-0.8,10.4-1.4,6.7
						c0.2,2.6,0.8,5,0.8,10.4c-1.3,10.7-0.2-12.2-1.8-4.1c0.9,0.7,1.2,14.3,1.8,22c1.3-2.4,0.2-18.2-0.3-26.1
						c1.9,0,3.9,13.7,4.7,32.4c0.4,14.8-1.2,6.5-1,9.1c-0.3,28,3.2,23.7,1.9,47.1c-1.2,9.3-2.3,0.4-3.2,2.4
						c-0.4-12,0.8-18.5,0.7-26.9l-0.6,10.2c-0.4-3.9-0.7-11.9-0.3-16.3c-1.1,7.8-0.2,47.2-1.2,68.7c0.4,3.9,0.8,10.4,1.3,7.2
						l-0.2-6.9c1-6.3,1.3,12.8,1.8,4.3c0.7,9.1,1.8,19.5,1.2,32.2l-1.3,2.4c0.4-0.2,0.8-8.3,0.4-12c0.6,5.4-1.9,19.8-0.1,25.6
						l0.9-9.1c0.7,9.3,2.1,20.6,1.7,31.9c1.3-5.2-0.1-2.6,1.4-10.7c-2,7,0.1-29.1-2-18c1.8-8.3,0.8-14.4,2.3-25.2
						c-0.4,0.4-0.9,3.9-0.7-5.7c-0.1-0.4-0.3-1.5-0.4-2c0-0.4,0-0.4,0-0.6c0,0.2,0,0.4,0,0.6c-0.1-0.4-0.1-0.4,0,0.2
						c-0.2,2.2-0.4,4.1-0.7,4.8c-1-4.8-1-20-1.6-25.2c0.2-5.7,0.6,2.4,1-0.7l-0.8-7.8c1-0.7,1.7-15,2.2-1.7v-12
						c0.6-7,0.8-16.9,0.3-22.8c0.2-5.7-1.1-14.3-0.3-9.4l-0.7-18.9l0.2-0.2c0.1-18.7-1.7-38.3,0.1-59.6c-0.2-6.3-0.6-12.8-0.2-23.3
						l0.9-2c-0.3-8,0.9-24.3,0-27.6c1.1-3.9,1.2-12.4,1.2-21.9c0-2.4,0-4.8-0.1-7.2c0-1.3,0-2.4-0.1-3.7c0-1.5,0-3.1-0.1-4.6
						c-0.1-8.7-0.1-16.7-0.1-23.7c-1.6,0-3,0-4.3-0.2l-1.3,1.9 M901.4,273.3c0-0.2,0-0.2,0-0.4C901.7,266.3,901.5,268.7,901.4,273.3
						z M900.8,287.2c0.1,1.5,0.3,1.3,0.4,0.7c-0.2-0.9-0.3-4.1-0.2-7.6C900.8,281.3,900.6,282.9,900.8,287.2z"/>
					<path d="M891.8,78.2c0.1-0.7,0.1-1.5,0.2-2c-0.2-0.2-0.3-0.4-0.4-0.6c-0.2,0.4-0.1,0.6,0.2,0.7
						C891.8,76.9,891.8,77.5,891.8,78.2z"/>
					<path d="M902.7,360.5l-0.3-8.9c0,4.3-0.2,5.7-0.3,8C902.3,359.4,902.7,357.8,902.7,360.5z"/>
					<path d="M896.1,437.4c0.1,1.3,0,2.8,0.1,4.1l0.4-0.4C896.7,435.6,896.3,431.7,896.1,437.4z"/>
					<path d="M899.2,368.7c-0.9,0.7-0.6,6.3-0.4,12.4c0-0.4,0-0.7,0-1.1C900,381.8,899.6,375.4,899.2,368.7z"/>
					<path d="M898.7,382.6c0,1.9,0.1,3.9,0,5.7C899.3,389.1,898.8,385.9,898.7,382.6z"/>
					<path d="M901.5,304.6c-0.2,3,1.1,1.9,0.8,3.5C903.4,311.5,900.8,288.5,901.5,304.6z"/>
					<polygon points="896.2,373.7 897.3,371.5 896.4,368 					"/>
					<path d="M897,324.6l-0.3,10c0.2-0.2,0.3,1.1,0.3,2.6C897.1,331.1,897.3,324.4,897,324.6z"/>
					<path d="M897.1,337.2c0,3.1,0,6.3,0.2,8C897.3,343.5,897.2,339.8,897.1,337.2z"/>
					<polygon points="895.8,360.2 896.1,357.2 896.2,350.2 					"/>
					<path d="M897.2,218.1l-0.3-10.7c-0.3-1.1-0.7,1.9-0.4,5.9C896.7,215.7,896.8,219.8,897.2,218.1z"/>
					<path d="M894.2,250.7c0.2-3,0.4-3.1,0.9-4.8l-1.3-0.4L894.2,250.7z"/>
					<path d="M893.8,219.2c-0.3-1.1-1.1-15.7-1-2C893.2,218.3,893.5,229.2,893.8,219.2z"/>
					<path d="M889.7,70.3c0,0,0.1-0.9,0.2-1.9c0.1-0.9,0.1-1.9,0.1-1.9s-0.6,0.9-1,1.9"/>
				</g>
			</g>
		</g>
	</g>
</g>
</svg>
