<?xml version="1.0" encoding="utf-8"?>
<!-- Generator: Adobe Illustrator 17.1.0, SVG Export Plug-In . SVG Version: 6.00 Build 0)  -->
<!DOCTYPE svg PUBLIC "-//W3C//DTD SVG 1.1//EN" "http://www.w3.org/Graphics/SVG/1.1/DTD/svg11.dtd">
<svg version="1.1" id="Layer_1" xmlns="http://www.w3.org/2000/svg" xmlns:xlink="http://www.w3.org/1999/xlink" x="0px" y="0px"
	 viewBox="307.2 0 14.1 792" enable-background="new 307.2 0 14.1 792" xml:space="preserve">
<g>
	<g>
		<g>
			<g>
				<g>
					<path d="M320.5,537.8c0,0.4-0.1,1.1-0.1,1.7C320.5,539.7,320.5,538.9,320.5,537.8z"/>
					<path d="M309.3,746.6c-0.1-2.1-0.1-5.3-0.1-8.5C309.1,739.6,309.1,742.1,309.3,746.6z"/>
					<path d="M316.8,154.4c0,0.2,0,0.6-0.1,1.1C317.2,160.1,317.1,158,316.8,154.4z"/>
					<path d="M314.4,4.8c-2.1-2.8-3.7,0-5.6,0c0,8.1,0,15.9,0,24c0,5.7-0.1,11.2-0.1,17c-0.1,11.2-0.3,22.5-0.4,33.5
						c-0.4,22.1-0.7,43.9-0.7,65.3l2-5.1l-0.1,15.7c-0.4,4-1.5,5.5-1.5-5.7c-1.1,5.9,0.9,18.7,1.3,18.9c-0.8,21.8-2.2-8.5-2.2-1.9
						l0.1,9.1l0.3-2.1c0.8,7.4,1.6,8.1,1.6,21.4c-0.4,8.5-1.2,4.2-1.2,7.6c-0.1,0-0.3,1.1,0,5.1l-0.1,19.7l1.5-7.8
						c0.8,8.7,0,18.5,1.7,9.3c-2.6,13.4-0.8,73.4-1.6,81.4c1.2,12.1,1.2,24.2,1.1,39.2c0.3-3.6,2-5.9,1.9,7
						c-3.6-4.7-1.5,23.5-4,33.9c1.7-9.3,0.5,36.5,2.9,22.1c-0.3,10.8-1.3,0.6-2.1,8.9c1.5,25.5-0.8,56.4-0.3,87.8
						c0.5,0.4,1.2-4.9,1.9,1.9l-2.2,16.8c0.3,6.2,2.6,5.7,1.1,17.2c0.4-1.7,0.9-4,1.2,0.2c-2.1,61.9,2.1,126.4-2.1,189.2
						c0.9-8.5,0.9-2.8,1.1,3.6c0.3-4.2,1.2,0,1.7-0.6l-1.7,26.3c1.7,4.9,0.1,28.2,1.9,31l-0.3-8.3c2,11,4.4-15.5,6.9-14
						c-2.2-12.3,3.3-32.7,0-53c0.5-4.5,0.8,3.8,1.5,1.5c-1.1-5.1-1.3-11.5-0.9-22.9l0.3,1.3c-0.3-32.5,0.8-46.5,1.3-82.7l-1.2,2.8
						c0.1-7.8,0.5-9.5,0.8-13.2c-1.9-8.9-0.1,22.1-2.1,13.8c2.5-10.4,0-55.1,2.8-62.4c0-12.1-1.5,3.6-1.5-8.5l0.8-3.2l-1.1-3
						c0.1-7.8,1.2-11.9,1.9-12.1c-0.1,1.9,0.1,5.5,0.3,7.4c0.9-10.2-0.4-28.8-0.1-32.5l-0.5,11.7c-0.8-32.9,0.1-73-1.5-104.8
						l-0.5,2.3c-1.2-24.2,0.7-19.5,0.1-46l0.1,1.1c-0.7-5.3-0.9-12.5-0.8-19.7c0.7,6.8,1.3-12.7,2.1-3.8
						c-1.2-26.3-0.9-12.9-3.2-30.3l0.9-4c-0.9-5.9-1.3-6.4-1.6-19.7c0.9,10.8,1.5-8.5,2.6,3.8c2.1-28-2.2-41.4,0.9-54.3
						c-2.8-12.7-1.5,24.2-2.1,17c-0.9,5.9-2-10.6-1.9-19.3c0-8.9,3.4-15.3,3.3-37.5c0,2.3,0.1,2.3,0.1,4.7
						c0.7-8.5-0.9-16.5,0.1-26.7c-1.6-5.7,0.1-13.4-2-15.1l0.5,20.6c-0.5-11.7-3-22.5-1.9-41.8c0.4,1.5,0.9,7.2,1.3,11.2
						c0.7-5.7-0.4-10.8,0.1-16.5c2.1,1.7,0.5,25,2.1,37.5c0.9-5.9-1.6-23.5,0.7-17.4c-2.9-8.9,0.3-22.1-1.9-37.3l1.3,1.1
						c-0.3-2.3-0.8-7.4-0.8-11.9l1.6,8.1c-1.5-12.3,1.2-23.8,0.4-35.4c0.1,24.6-1.5,5.5-2.4,15.9c-1.7-30.5,3.3-17.6,2.6-51.5
						c0.1,4.7-0.7,17.4-1.3,10.2c0.3-6.6,0.7-15.1,1.3-19.1c-0.3-22.7-1.3,3.4-2.1-6.2c0.1-0.8,0.3-1.7,0.4-2.5v-0.6V29
						c0-0.2,0-0.2,0-0.4c0-0.6-0.1-1.3-0.3-1.9c-0.4-1.5-1.1-3.6-1.3-6.6 M308.3,204.4l0.3-3.2C309,208.2,308.7,206.3,308.3,204.4z"
						/>
					<polygon points="308,781.1 307.4,790.7 308.2,784.5 					"/>
				</g>
			</g>
		</g>
	</g>
</g>
</svg>
