<?xml version="1.0" encoding="utf-8"?>
<!-- Generator: Adobe Illustrator 17.1.0, SVG Export Plug-In . SVG Version: 6.00 Build 0)  -->
<!DOCTYPE svg PUBLIC "-//W3C//DTD SVG 1.1//EN" "http://www.w3.org/Graphics/SVG/1.1/DTD/svg11.dtd">
<svg version="1.1" id="Layer_1" xmlns="http://www.w3.org/2000/svg" xmlns:xlink="http://www.w3.org/1999/xlink" x="0px" y="0px"
	 viewBox="-1.8 1167.9 605 9.1" enable-background="new -1.8 1167.9 605 9.1" xml:space="preserve">
<g>
	<path fill="none" d="M3,1173.2"/>
	<g>
		<g>
			<g>
				<g>
					<path d="M436.8,1169.6c0.3,0,0.8,0,1.1,0.2C437.9,1169.6,437.5,1169.6,436.8,1169.6z"/>
					<path d="M573.2,1175.8c-1.3,0-3.5,0-5.6,0C568.5,1176,570.2,1176,573.2,1175.8z"/>
					<path d="M186.2,1171.3c0.2,0,0.4,0,0.7,0C190,1171.1,188.6,1171.2,186.2,1171.3z"/>
					<path d="M1.6,1169.7c-4,2.8-2,6.1-0.7,6c1,0,2.1,0,3.1-0.2c-0.2,0.2-0.9,0.3-2.8,0.3c1.8,0,3.6-0.2,5.5-0.2c1.3,0,2.6,0,3.9,0
						c2.5,0,5,0,7.7,0.2c5.1,0.2,10.4,0.3,15.1,0.4c9.6,0.3,17.7,0.3,21.2-1l12.3-0.6c-15.9-0.2,2.3-1.1-4.2-1.5
						c6.2-0.2,16.1,0.7,8.5,0.8l-1.2-0.2c-2.7,1.3,19.7,0.4,19.3,1.4c31.2,0,61.6,0.7,90.7,0.7l-3.3-1h10.2c2.6,0.3,3.6,0.8-3.6,0.7
						c3.8,0.6,12.1-0.4,12.4-0.7c14.2,0.4-5.5,1.3-1.2,1.3l5.9-0.2l-1.3-0.2c4.8-0.4,5.1-0.8,13.9-0.8c5.5,0.2,2.8,0.7,4.9,0.7
						c0,0,0.2,0,0.7,0.2c0.5,0,1.3,0,2.6,0l12.8,0.2l-5-0.8c5.7-0.4,12,0,6.2-0.8c8.8,1.4,47.9,0.6,53.2,1c8-0.6,15.8-0.6,25.6-0.6
						c-2.4-0.2-3.8-1.1,4.5-1c-3.1,1.9,15.3,0.8,22.2,2.1c-6-0.8,23.9-0.3,14.3-1.5c7.1,0.2,0.4,0.7,5.7,1.1
						c16.6-0.7,36.8,0.4,57.5,0.3c0.3-0.3-3.1-0.6,1.3-1l10.9,1.3c4.1-0.2,3.7-1.4,11.2-0.6c-1.1-0.2-2.6-0.6,0.1-0.6
						c40.4,1.3,82.6-1,123.7,1.3c-5.5-0.4-1.9-0.6,2.4-0.6c-2.7-0.2,0.1-0.6-0.4-1l17.2,1c3.1-1,12.5,1.3,14.2,0.3l0.6-1.2
						c11.4-5.9-9.8-3.9-8.6-5.2c-8.1,1.1-21.7-0.3-35.1,1.5c-3-0.3,2.5-0.4,0.9-0.7c-3.4,0.6-7.4,0.7-15,0.4l0.9-0.2
						c-21.2,0.2-30.2-0.4-54.1-0.8l1.8,0.7c-5-0.2-6.2-0.3-8.6-0.4c-5.8,1,14.3,0,9.1,1.1c-6.8-1.4-36.1,0-40.6-1.5
						c-7.9,0,2.3,0.7-5.5,0.7l-2.1-0.4l-2,0.6c-5.1-0.2-7.8-0.6-8-1c1.2,0,3.5-0.2,4.8-0.2c-6.8-0.4-18.9,0.2-21.2,0l7.5,0.3
						c-21.4,0.4-47.7-0.2-68.5,0.7l1.5,0.3c-15.8,0.6-12.7-0.3-30-0.2l0.7-0.2c-3.5,0.3-8.2,0.4-12.9,0.4c4.4-0.4-8.3-0.7-2.5-1.1
						c-17.2,0.6-8.5,0.4-19.9,1.7l-2.6-0.6c-3.8,0.4-4.2,0.7-12.9,0.8c7.2-0.4-5.5-0.8,2.4-1.4c-18.2-1.1-27,1.1-35.5-0.6
						c-8.4,1.4,15.8,0.8,11.1,1.1c3.9,0.4-7,1.1-12.6,1c-5.8,0-10-1.9-24.5-1.9c1.4,0,1.5-0.2,3-0.2c-5.5-0.4-10.7,0.6-17.4-0.2
						c-3.7,0.8-8.8,0-9.8,1.1l13.5-0.3c-7.7,0.3-14.8,1.5-27.3,1c1-0.3,4.7-0.6,7.3-0.7c-3.6-0.3-7.1,0.3-10.8-0.2
						c1.1-1.1,16.3-0.3,24.5-1.1c-3.9-0.4-15.4,0.8-11.4-0.4c-5.8,1.5-14.4-0.2-24.4,1l0.7-0.7c-1.5,0.2-4.8,0.4-7.8,0.4l5.1-0.8
						c-8.1,0.7-15.4-0.7-23.2-0.3c16.1,0,3.6,0.8,10.5,1.3c-19.9,0.8-11.5-1.7-33.7-1.4c3-0.2,11.4,0.4,6.7,0.7
						c-4.2-0.2-9.8-0.4-12.5-0.7c-14.8,0.2,2.3,0.7-3.9,1.1c-5-0.8-7.3,0.3-13.7,0.6v-0.7c-16.7-0.4-4.4,1.4-19.6,0.8l6.5-1
						l-7.9,0.3l1.6-0.7c-8.6,0.6-11.3,0.4-19.7,0.2c2,0.4-1.1,1.3-8.5,1.3c-5-0.4,2.8-0.7-7.8-0.6c2.4-0.4,4.9-1,9.6-0.3
						c0.4-0.3,2.3-0.4,2.8-0.7c-5.5-0.4-13.8-0.2-17.5-0.2c1.4,0,3.2,0,4.1,0.2l-15.3,1c-2.4-0.3-0.5-0.4,1.4-0.7
						c-3.1,0.2-5.1,0.4-9.8,0.4c1.2-0.6,0.9-1.1,7.4-1.4c0,0-3.6,0.2-7.3,0.3c-1.8,0.2-3.6,0.2-4.9,0.2c-0.4,0-0.8,0.2-0.8,0.2
						c-0.1,0-0.2-0.2-0.4-0.3c0.2-1-0.5,0.5-0.4,0.8l-0.3,0.1l-0.1-0.3l-0.5,0.1c-2-0.8-2,0.6-2,0.4 M218.8,1175.8l-2-0.2
						C221.5,1175.6,220.3,1175.7,218.8,1175.8z"/>
					<polygon points="595.7,1176.6 601.9,1177 597.9,1176.4 					"/>
				</g>
			</g>
		</g>
	</g>
</g>
</svg>
