<?xml version="1.0" encoding="utf-8"?>
<!-- Generator: Adobe Illustrator 17.1.0, SVG Export Plug-In . SVG Version: 6.00 Build 0)  -->
<!DOCTYPE svg PUBLIC "-//W3C//DTD SVG 1.1//EN" "http://www.w3.org/Graphics/SVG/1.1/DTD/svg11.dtd">
<svg version="1.1" id="Layer_1" xmlns="http://www.w3.org/2000/svg" xmlns:xlink="http://www.w3.org/1999/xlink" x="0px" y="0px"
	 viewBox="0 0 558.8 297.3" enable-background="new 0 0 558.8 297.3" xml:space="preserve" preserveAspectRatio="none">
<g>
	<rect x="3.5" y="4" fill="#FFFFFF" width="552.2" height="291"/>
	<g>
		<g>
			<g>
				<g>
					<path d="M558.1,293c0,2.5,0.4,1.6,0.5,2C558.5,290.8,558,293.1,558.1,293z"/>
					<polygon points="557.1,251.9 557.3,252.7 556.9,246.6 					"/>
					<path d="M557.1,213.5c-0.7,3.6,0.1,13.9-0.1,20.8l-0.2,1.1l0.6,3.1C557.3,230.2,557,219.4,557.1,213.5z"/>
					<path d="M558.7,193c-0.3,1.3-0.2-4.4-0.1,4.8c0-0.5,0-0.6,0.1-0.9C558.7,196.1,558.7,195,558.7,193z"/>
					<path d="M558.7,196.9C558.7,201,558.9,194.3,558.7,196.9L558.7,196.9z"/>
					<path d="M558.5,178.2l0.2,5.3c0.2-1.1,0.2-5.9,0.3-4.1C559,174,558.8,175.1,558.5,178.2z"/>
					<path d="M558,173.2l0.1,2.8C558.2,175.5,558.2,174.7,558,173.2z"/>
					<path d="M558.3,181.8l-0.2-5.9c-0.1,0.8-0.3,0.9,0.1,2.7C558,178.2,558.2,179.3,558.3,181.8z"/>
					<path d="M558.2,185.1c-0.2,3-0.3,6.9-0.5,1.5C557.8,196.8,558.3,195.3,558.2,185.1z"/>
					<path d="M556.4,211.5l-0.2,4l0.2,3.5C556.3,217.3,556.6,211.3,556.4,211.5z"/>
					<path d="M558.9,145c-0.2-0.3-0.4,1.8-0.6,2.2l0.2,3.9C558.6,149.1,558.7,145.3,558.9,145z"/>
					<path d="M558.3,147.2l-0.3-5.9C558,146.6,558.1,147.5,558.3,147.2z"/>
					<polygon points="557.2,172.2 557.8,181.9 557.2,170.4 					"/>
					<polygon points="558.9,122.5 559.3,125.9 558.7,119.9 					"/>
					<path d="M558.8,107.6c0.3,2.5,0.5-3.4,0.7-0.8c-0.1-4.1-0.3-7.5-0.5-10.6C559.1,99.5,559.1,103,558.8,107.6z"/>
					<path d="M558.7,91c0.1,1.7,0.2,3.4,0.3,5.2C558.9,94.4,558.8,92.7,558.7,91z"/>
					<path d="M558.1,131.3c0.1-0.5,0.3-1.3,0.4-4.6l-0.4,2.3C558.1,129.7,558.1,130.5,558.1,131.3z"/>
					<path d="M558.1,129.1L558.1,129.1c0-2.6,0-4.3,0-5.1C558.1,124.6,558.1,126.1,558.1,129.1z"/>
					<path d="M558.1,131.9c0-0.2,0-0.4,0-0.6C558.1,131.5,558,131.6,558.1,131.9z"/>
					<path d="M557.6,156.8c-0.2-3.5-0.5-10.7-0.9-3.7C557,155.6,557.2,151.6,557.6,156.8z"/>
					<path d="M557.6,134.8l-0.1,6.3c0.1-0.1,0.3-1.3,0.4,0.5L557.6,134.8z"/>
					<polygon points="557.4,131.7 557.6,134.8 557.6,132.4 					"/>
					<path d="M558.3,101.7c-0.2-2.7-0.2-5.7-0.2-9c-0.1,3.6-0.1,7.3-0.1,10.8C558,104,558.3,105.5,558.3,101.7z"/>
					<path d="M558.1,115c0-0.2,0-0.4,0-0.6C558.1,114.7,558.1,115,558.1,115z"/>
					<path d="M558,59.8c0,0.2-0.1,0.3-0.1,0.5c0,0,0,0.1,0.1,0.1L558,59.8z"/>
					<path d="M557.8,104.1c-0.1,2.7,0,4.3,0.2,5.8c0-2-0.1-4.1-0.1-6.4C557.8,103.2,557.8,103.2,557.8,104.1z"/>
					<path d="M558.5,81.8c-0.1,1.4-0.2,3-0.2,4.7C558.4,85.1,558.6,82.3,558.5,81.8z"/>
					<path d="M558.2,113.5c0,0.1,0,0.3,0,0.4C558.3,113,558.3,113.1,558.2,113.5z"/>
					<path d="M558.2,113.5c-0.1-1.4-0.2-2.5-0.3-3.6c0,1.6,0.1,3.2,0.1,4.5C558.1,114,558.2,113.7,558.2,113.5z"/>
					<path d="M555.3,49.8c0.4,0.5,0.8,7.5,0.3,13.7c0.3,6,1.6,2.1,2.3-3.2c-0.2-0.2-0.3-0.2-0.6-6.4c-0.2,2.2-0.5,13.7-0.9,8.5
						c-0.2-8.2,0.1-6.7,0.3-10.7c-0.5,3.4-0.7-10.4-1.4-8.6l0.3,7.2C555.6,50.4,555.4,47.8,555.3,49.8z"/>
					<path d="M557.9,72.1l0,2.5c0.1-2.9,0.2-5,0.5-8.8c-0.2-4.2-0.3-5.1-0.5-5.4L558,73L557.9,72.1z"/>
					<path d="M558,86.1c-0.4-2-0.6-8.1-1.1-4.4c0,7.5,0.4,5.2,0.5,9.7C557.3,79.4,557.7,94.9,558,86.1c0,2.5,0,4.6,0.1,6.6
						c0.1-2.2,0.1-4.3,0.2-6.2c0,0.1,0,0.2,0,0.3l0,0.1l0,0c-0.1,0.5-0.1,0.7-0.1,0.1c0,0,0-0.2,0-0.3C558.1,86.5,558,86.3,558,86.1
						c0.1-3.5,0.1-0.5,0.2,0.5c0,0,0,0.1,0.1,0.1c0,0,0,0,0,0L558,74.6C557.9,77.2,557.9,80.4,558,86.1z"/>
					<path d="M555.8,146.7c0-0.4,0.1-0.4,0.1-0.4C555.9,145.5,555.8,145.2,555.8,146.7z"/>
					<path d="M556.1,141.7c0.1,0.9,0.2,1.6,0.2,4.5c-0.1,2.5-0.2,0-0.3,0.1c0.1,1.7,0.3,6,0.5,0.6l-0.1-0.9
						c0.1-4.9,0.7-11.1,0.7-10.3C556.7,137.2,556.4,138.5,556.1,141.7z"/>
					<path d="M556.9,113.5l-0.2-10.1l-0.4,5.1l0.2-0.3C556.5,114.1,556.7,112.8,556.9,113.5z"/>
					<polygon points="558.2,58.6 558.7,60 558.1,54.2 					"/>
					<polygon points="558.2,45.6 558.6,46.1 558.4,42.6 					"/>
					<path d="M5.9,147.5l0.1,3C6,149.1,5.9,148.2,5.9,147.5z"/>
					<path d="M5.9,126.1l-0.2-0.5C5.8,126.6,5.9,127,5.9,126.1z"/>
					<path d="M276.4,1.6c-4.3-0.4-9.1-0.9-8.6-0.5l1.3,0.4C272.1,1.4,274.4,1.5,276.4,1.6z"/>
					<path d="M56.6,4.1c0.4,0,0.8,0.1,1.3,0.1c1-0.1,2-0.3,2.9-0.4C59.6,3.9,58.1,4,56.6,4.1z"/>
					<path d="M53.6,5.9l-5.7-0.3C49.2,5.8,51,5.9,53.6,5.9z"/>
					<path d="M6.3,264.3l0.4,3.4C6.8,262.4,6.6,264.7,6.3,264.3z"/>
					<path d="M463.4,1.7c-3.7-0.2-6.7-0.2-9.3-0.3C458.6,1.7,462.2,2,463.4,1.7z"/>
					<path d="M1.3,139.1c0.1,1.8,0.2,2.6,0.3,2.5C1.5,139.8,1.4,138.7,1.3,139.1z"/>
					<path d="M443.4,1.4c0.7,0,1.3,0.1,2,0.1c2.7-0.1,5.4-0.1,8.8-0.1C450.8,1.2,447,1.1,443.4,1.4z"/>
					<path d="M396.4,292.5c0.3,0,0.7,0,1,0.1C397.4,292.5,397,292.5,396.4,292.5z"/>
					<path d="M519.8,296.9c-1.2,0-3.2,0-5.1,0C515.6,297,517.2,297,519.8,296.9z"/>
					<path d="M544.6,1.3C547.4,1.3,545.1,1.3,544.6,1.3L544.6,1.3z"/>
					<path d="M556.7,6.1c0-0.7-0.1-1.2-0.2-1.3C556.6,5.1,556.6,5.5,556.7,6.1z"/>
					<path d="M415.8,4.1c-0.1,0-0.1,0-0.2,0C416.4,4.2,416.3,4.2,415.8,4.1z"/>
					<path d="M548.8,1.5c-1-0.1-2.2-0.1-3.5-0.1C545.8,1.4,546.9,1.5,548.8,1.5z"/>
					<path d="M548.2,1.3c1,0,1.7,0,2.4,0C551,1.3,550.7,1.2,548.2,1.3z"/>
					<path d="M540.8,1.3c1.6,0,3.1,0,4.5,0c-0.5,0-0.8-0.1-0.6-0.1C543.8,1.3,542.7,1.3,540.8,1.3z"/>
					<path d="M169.4,293.7c0.2,0,0.4,0,0.6,0C172.8,293.5,171.6,293.6,169.4,293.7z"/>
					<path d="M204.3,6.1c0.1,0,0.2,0,0.3,0C204.4,6,204.3,6,204.3,6.1L204.3,6.1z"/>
					<path d="M194.3,6.4c4.2-0.5,6.6-0.5,9.9-0.4l-3.3-1.3L194.3,6.4z"/>
					<path d="M6,198.7l0.4-7c0.6,8.4,0.4,14.5,1,8c-1.4-1-0.1-27.2-1.5-28.1l0.3-4.6c0,1.3,0.1,1.5,0.1,2.8c0.7-9-1-6.7-0.8-18.2
						c0.1-4,0.3-6.8,0.5-4.1l-0.3-9c0-2.6,0.3-2,0.2,0.6l-0.1-13.7l0,0.1c-0.2-2-0.5-6.4-0.7-8.5c0.2-3.5,0.1,1.7,0.3,0.9L5,110.4
						c0.4-3.1,0.7,3.2,0.6,8.4c1.4-7.1-0.3-6.3,0.5-21.5l0.2,7.1c0.8-4.6,0.5-10.2,1-18.3C7,88,6,102.3,5.7,94.1
						c0.1-2.3,0.2-5.4-0.1-9.8c0.5,0,0.4-4.4,0.3-9.8l0.6,0.4C6.4,69,6,69.5,5.8,66c0.1-6.5,0.6-7.9,1-9.4c0.1-10.5-0.8,7.2-0.9-5.2
						c0.2-8.7,0-14.8-0.4-25.2c0.2-6.1,0.4,1.1,0.6-1.1l-0.5-5.4c0-1.3,0.2-0.9,0.2-0.7c-0.2-4.5-0.6-0.4-0.8-7.5
						c-0.2-0.4-0.2-1.4-0.2-2.7c0-0.3,0-0.7,0-1c0-0.2,0-0.5,0.1-0.8c0-0.5,0.1-1,0.1-1.6c0.7,0.1,1.5,0.1,2.4,0.2
						c1.3,0.1,2.7,0.1,4.1,0.2c2.8,0.1,5.6,0,8-0.2c2.2,0.2-1.1,0.4-0.4,0.6c12.1-0.5,10.4-0.4,20.4-1.1l8.5,0.4
						c-6.2-0.5,1.7-1,8.7-1.5c-2.2-0.2-4.1-0.4-5.4-0.5l11.1-0.3c1.3,0.1,0.2,0.3-1.6,0.6c0.8-0.1,1.5-0.1,2-0.2
						c4,0.2,1.9,0.6-0.9,1c-1.4-0.1-2.7-0.3-4-0.4c-2.7,0.4-5.3,0.8-4.7,1.2c0.7-0.1,2.1-0.1,3.6-0.2c-0.7,0.1-1.2,0.2-0.8,0.3
						c0.4,0.1,1.5-0.1,3.4-0.2L61.8,6l0.6-0.3L77,6.2c10.4-0.7,19.5-1.8,36-2.1c-4.1,0.5-0.9,0.9-1.1,1.5
						c-4.5-0.7-12.8,0.3-21.4,0.1c4.5,0.1,3.5,0.4,2.4,0.5l15.3-0.6c-0.3,0.5,3.2,0.4,7.2,0.6c-3-1,11.4-0.7,17.6-1
						c0.4,0.3-1.1,0.7-8.7,0.6c8.4,0.8,10.8-1.2,19-0.5c-1.9,0-2.9,0-3.6,0.1c4.3-0.3,14.9-0.1,12.4,0.2l-1.8,0
						c12.3,0.1,37.5,0,39.3-0.8c0.1,0.1-1.6,1-2.4,1.2l22-2.9c-1.9,0.7,5.5,2.5-4.7,2.9c2.9,0.1,6.6,0.2,12.7,0
						c-2-0.1-5-1.1-2.3-1.1c7.5,0.8,5.2,0.4,14.4,1.1c-3-0.2,0.3-1.3,5.1-1.3c-0.7,0.2,0.4,1.1-1.3,1.3L245,4.9
						c-2.9,0.2-0.5,1,2.1,1.3c-1.2-0.2,10.2,0,13.3-0.1l-5-0.3c13.3,0.2,13.1-1.6,26.3-1.5c-1.6,0.2-3.9,1.4,2.8,1.6
						c3.1-0.6,13.6-2.8,25.3-3.2l2.2,0.3l9-0.4c-5.6,0.9-21.2,2.7-29.8,3.4c5,0.3,1.4,0.4,8.8,0.4c2.6,0.3-4.1,0.5-6.3,0.5L311.2,7
						c-0.8-0.7,13.3-0.7,12.6-1.2L305,6.5c-0.8-0.7,10.9-1.9,23.2-1.8c3.1,0.3-2.3,1.2-2.1,1.4c1.6-0.2,11.7-0.4,12.8-0.3l-5.2,0.4
						c6.8,0.3,11.2-0.9,19.4-0.2c2.8,0,8.5,0.9,9,0.5c-4.6-0.8-5.5-3.1-2.4-3.7c1,0.1,14.9,0.7,18.2,1.1c4.7,0.6-7,1.4-3,2
						c0.2-0.2,2.8-0.4,3.8-0.5c3,0.2-1.2,0.6,5.2,0.5c1.1-0.7,13.2,0.1,3.1-0.6c6.3-0.2,6.7,0.1,14.2,0.1c-2.4-0.4,6.7-1.5,13-1.7
						c-0.4,0.2,1.1,0.4,1.7,0.5c13,0.1,20,0.4,32.1,0.4c1.1,0.2,7,0.4,4.5,0.7c1.7-0.1,3.3-0.4,7.1-0.4c7.2,0.6-8.3,0.1-2.8,0.8
						c0.5-0.4,9.7-0.5,15-0.8C470,4.2,459.3,4.7,454,4.9c0-0.8,9.3-1.7,21.9-2.1c10.1-0.2,4.4,0.5,6.1,0.4
						c18.9,0.1,16.1-1.5,31.8-0.9c6.2,0.5,0.3,1.1,1.7,1.5c-8.2,0.2-12.6-0.3-18.1-0.3l6.8,0.3c-2.6,0.2-8.1,0.3-11.1,0.2
						c5.2,0.5,31.9,0.1,46.5,0.5c2.6-0.2,7.1-0.4,4.9-0.6L540,3.9c-4.2-0.4,8.7-0.6,2.8-0.8c1.9-0.1,4-0.2,6.1-0.3
						c1.1,0,2.2-0.1,3.4-0.1c1.6,0,3.1-0.1,4.8-0.1c0,1.9,0,3.8,0,5.8c0,1.5,0,3.1-0.1,4.7l-0.6,1.6c0.1-0.1,0.2-1.5,0.2-3.2
						c0-1.8,0-3.5,0-5.3c0,0.3,0,0.6,0,0.9c0,0.3,0,0.7,0,1c0,0.6,0,1.3,0,2.1c-0.1,1.5-0.1,3.2-0.2,4.9c-0.1,3.4-0.2,6.8,0.2,8.8
						l0.4-6.1c0.3,6.2,1,13.9,0.8,21.6c0.6-3.5-0.1-1.8,0.6-7.3c-0.9,4.8,0-19.8-0.9-12.1c0.4-2.7,0.5-5,0.6-7.5
						c0-1.2,0.1-2.5,0.1-3.9c0-1,0.1-2.1,0.1-3.2c0.1-1.3,0.1-2.7,0.2-4.2c-0.6,0-1.2-0.1-1.9-0.1c0.1,0.1,1.2,0.2,0.8,0.3
						c-0.2,0-0.7,0-1.9,0.1c-0.6,0-1.3,0-2.3,0c-0.7,0-1.6,0-2.7,0c-0.3,0.1-1,0.1-1.4,0.2c-0.2,0-0.3,0-0.4,0c0.1,0,0.2,0,0.4,0
						c-0.3,0-0.3,0,0.1,0c0.8,0,1.5,0.1,2,0.1c0.3,0,0.7,0.1,0.9,0.1c0.3,0,0.6,0.1,0.8,0.1c-0.5,0-1.2,0.1-2,0.2
						c-0.6,0-1.3,0.1-2,0.1c-1.5,0.1-3.2,0.1-4.9,0.2c-3.4,0.1-6.9,0.1-8.6,0.3c-3.8-0.1,1.6-0.2-0.5-0.4l-5.2,0.4
						c-0.5-0.4-10.2-0.7-1.2-1l-8.2,0c-4.8-0.3-11.4-0.4-15.5-0.2c-3.8-0.1-9.7,0.5-6.4,0.1l-12.8,0.3l-0.1-0.1
						c-12.6-0.1-26,0.7-40.4-0.1c-4.3,0.1-8.6,0.3-15.8,0.1l-1.4-0.4c-5.5,0.1-16.4-0.4-18.7,0c-5.9-1-26.5-0.2-36.1-0.4l-0.4,0.5
						c-6.6,0-12.9,0.1-21.1,0.3l0.5,0.4c-7.1,0.4-18.2-0.3-29.4-0.3c0.8-0.2,3.6-0.1,5.6,0c-13.4-1-28.2,0.7-40.3,0
						c-3,0.2-5.2,0.1-7.3,0c0.3,0,0.5,0,0.7,0c-0.3,0-0.8,0-1.2,0c-1.3-0.1-2.7-0.2-4.2-0.2c1.3,0.1,2.5,0.2,3.5,0.2
						c-2.3,0-5.9,0.1-9.3,0.2l-1.5-0.5c-0.3,0-0.5,0-0.8,0c-3.4-0.2-2.7,0.2-0.9,0.6c-1.7,0.1-3.3,0.2-4.6,0.3
						c-2.8-0.8-9.1,0.3-12.8-0.6c-2.3,0.4-17.4,0.3-19.2,1.2c-0.1-0.1-1.1-0.2,0.7-0.2c-3.9-0.1-7.7-0.2-11.2,0l-1.6-0.6l-8.4,0.8
						c-5.1-0.4-7.2-0.6-2.2-1.1c-12.3,0.7-10,0.3-20.4,1l0.5-0.4c-3.7,0-9.7,0.5-11.9,0.2c-8.3-0.8-41.3-0.1-62.7-0.8
						c4.2,1.2-10-0.5-10.8,0.4c-1.2-0.3-4.2-0.4-0.8-0.7C91,2,85.5,1.3,77.9,2c-1.3-0.3,2.3-0.4,1.2-0.6c-0.9,0.1-3.5,0.2-4.6,0.1
						c-1.1-0.2,1.6-0.2,3.3-0.4c-11.2,0-12.3,0.9-13.1,1.7c-5.7-0.4-8.5-0.3-12.6,0.2c-2-0.3-5.3-0.5,1.7-0.6
						C50,2.4,30,2.1,29.6,2.7c-1.2-0.2-5.5,0-6.5,0c-4.4,0-6.8,0-9.1-0.1c-2.6,0-5.1,0-9.8,0l3.2,0.1c-1.6,0.3-3,0.4-4.7,0.4
						c0,0.8,0,1.6,0,2.5c0,0.9,0,1.8-0.1,2.7c0,1.7-0.1,3.6-0.1,5.8L2.5,14c-0.6,15.9,0.3,6.9-0.4,22.6l0.5-0.9
						c1,1.5-0.6,13.9-0.2,23l0.3-3.3c0.4,5-1.4,13.9-1.5,18.9C1,75.4,1,72.6,0.9,71.1c-0.6,13.1,0.6,1.7,0.8,11.4
						c-0.3,1.8-0.9-2.3-0.9,4.2c-0.3,3.3,1.1,19,0.5,28c0.3-2,0.5-3.9,0.7,0.6c0.1,6.9-1,18.8-0.2,25c-0.1,0.9-0.1,1.2-0.2,1.3
						c0.2,5.3,0.4,17.2,0.8,20.4c-1.7,4.9,0.8,33-0.7,32.8l0.1,16.3l-0.2-0.4c-0.1,10.4,0.3,14.1,0.6,17.8c-0.1,2.4-0.2,0.7-0.3,0.5
						c-0.3,15.2-0.2,16.7,0.5,29.5l-0.5,1.3c0.1,1.7,0,6.8-0.2,13.3c-0.1,3.3-0.1,6.9-0.2,10.6c0,1.9,0,3.7,0,5.6
						c0,2.5,0.1,5,0.1,7.5c0.9,0,1.9,0,2.8-0.1c-0.2,0.1-0.8,0.2-2.6,0.2c1.6,0,3.3-0.1,5-0.1c1.2,0,2.4,0,3.6,0
						c2.3,0,4.6,0,6.9,0.1c4.7,0.1,9.4,0.2,13.7,0.3c8.7,0.2,16.1,0.2,19.2-0.7l11.1-0.4c-14.4-0.1,2.1-0.8-3.8-1.1
						c5.6-0.1,14.6,0.5,7.7,0.6l-1.1-0.1c-2.5,0.9,17.8,0.3,17.4,1c28.2,0,55.8,0.5,82.2,0.5l-3-0.7l9.2,0c2.4,0.2,3.3,0.6-3.3,0.5
						c3.5,0.4,11-0.3,11.2-0.5c12.9,0.3-5,0.9-1.1,0.9l5.4-0.1l-1.2-0.1c4.4-0.3,4.7-0.6,12.6-0.6c5,0.1,2.6,0.5,4.5,0.5
						c0,0,0.2,0,0.6,0.1c0.5,0,1.2,0,2.4,0l11.6,0.1l-4.6-0.6c5.2-0.3,10.9,0,5.6-0.6c7.9,1,43.4,0.4,48.2,0.7
						c7.2-0.4,14.3-0.4,23.2-0.4c-2.2-0.1-3.5-0.8,4.1-0.7c-2.8,1.3,13.9,0.6,20.1,1.5c-5.5-0.6,21.6-0.2,13-1.1
						c6.4,0.1,0.4,0.5,5.2,0.8c15.1-0.5,33.3,0.3,52,0.2c0.3-0.2-2.8-0.4,1.2-0.7l9.9,0.9c3.7-0.1,3.4-1,10.1-0.4
						c-1-0.1-2.4-0.4,0.1-0.4c36.6,0.9,74.8-0.7,112,0.9c-5-0.3-1.7-0.4,2.2-0.4c-2.5-0.1,0.1-0.4-0.4-0.7l15.6,0.7
						c2.8-0.7,16.7,0,18.3-0.7l-4.9,0.1c6.6-0.7-9.2-1.7-8.2-2.6c-7.3,0.8-19.3-1.3-31.4,0c-2.7-0.2,2.3-0.3,0.8-0.5
						c-3.1,0.4-6.7,0.5-13.6,0.3l0.8-0.1c-19.2,0.1-27.4-0.3-49-0.6l1.6,0.5c-4.6-0.1-5.6-0.2-7.8-0.3c-5.3,0.7,13,0,8.2,0.8
						c-6.1-1-32.7,0-36.8-1.1c-7.1,0,2.1,0.5-5,0.5l-1.9-0.3l-1.8,0.4c-4.7-0.1-7-0.4-7.2-0.7c1.1,0,3.2-0.1,4.4-0.1
						c-6.1-0.3-17.1,0.1-19.2,0l6.8,0.2c-19.4,0.3-43.2-0.1-62,0.5l1.4,0.2c-14.3,0.4-11.5-0.2-27.2-0.1l0.6-0.1
						c-3.2,0.2-7.4,0.3-11.7,0.3c4-0.3-7.5-0.5-2.3-0.8c-15.6,0.4-7.7,0.3-18,1.2l-2.4-0.4c-3.5,0.3-3.8,0.5-11.7,0.6
						c6.5-0.3-5-0.6,2.2-1c-16.5-0.8-24.5,0.8-32.1-0.4c-7.6,1,14.3,0.6,10,0.8c3.6,0.3-6.3,0.8-11.4,0.7c-5.3,0-9-1.3-22.2-1.3
						c1.3,0,1.4-0.1,2.7-0.1c-5-0.3-9.7,0.4-15.8-0.1c-3.4,0.6-7.9,0-8.9,0.8l12.2-0.2c-6.9,0.2-13.4,1.1-24.7,0.7
						c0.9-0.2,4.3-0.4,6.6-0.5c-3.3-0.2-6.4,0.2-9.8-0.1c1-0.8,14.8-0.2,22.2-0.8c-3.6-0.3-14,0.6-10.3-0.3
						c-5.3,1.1-13.1-0.1-22.1,0.7l0.6-0.5c-1.4,0.1-4.4,0.3-7,0.3l4.7-0.6c-7.3,0.5-14-0.5-21-0.2c14.6,0,3.3,0.6,9.5,0.9
						c-18,0.6-10.4-1.2-30.5-1c2.7-0.1,10.3,0.3,6,0.5c-3.8-0.1-8.9-0.3-11.3-0.5c-13.4,0.1,2.1,0.5-3.6,0.8
						c-4.6-0.6-6.6,0.2-12.4,0.4l0-0.5c-15.2-0.3-4,1-17.7,0.6l5.8-0.7l-7.1,0.2l1.5-0.5c-7.8,0.4-10.2,0.3-17.8,0.1
						c1.8,0.3-1,0.9-7.7,0.9c-4.6-0.3,2.6-0.5-7-0.4c2.2-0.3,4.5-0.7,8.7-0.2c0.4-0.2,2.1-0.3,2.6-0.5c-5-0.3-12.5-0.1-15.9-0.1
						c1.3,0,2.9,0,3.7,0.1l-13.9,0.7c-2.2-0.2-0.5-0.3,1.3-0.5c-2.8,0.1-4.7,0.3-8.9,0.3c1.1-0.4,0.8-0.8,6.7-1c0,0-3.3,0.1-6.6,0.2
						c-1.6,0.1-3.3,0.1-4.5,0.1c-0.4,0-0.7,0.1-0.7,0.1c-0.1,0-0.2-0.1-0.4-0.2c0.2-0.7,0.3-1.2,0.4-1l0-0.1l0,0l0-0.2
						c0-0.2,0-0.5,0-0.7c0-0.5,0-1,0-1.5c0-1,0-2.1-0.1-3.2c-0.1-2.2-0.2-4.5-0.2-6.9c-0.2-4.8-0.4-9.9-0.2-14.7
						c-0.1-0.5-0.1-1.5-0.2-3.6c0.1-9.1,0.6-17.2,0-28l0.7-6.1c-0.2-8.5-0.9,8.3-1.2-5.8c-0.2-10,0.6-3.7,0.8-7.2
						c-0.4-5-1.1-13.6-0.5-22.8C6.1,193.5,5.9,195.9,6,198.7z M5.7,94.3c0.1,2,0.4,6.1,0.1,7.5C5.3,99.5,5.5,97.7,5.7,94.3z M72,5.1
						c-1.5,0.2-3.8,0.1-6.5-0.1C67.5,4.9,69.6,4.9,72,5.1z M514.3,1.7c-0.1,0-0.1,0-0.2,0C509.5,1.5,511.1,1.6,514.3,1.7z
						 M523.6,1.9c0.9-0.1,0.9-0.1,0.5-0.2c-0.7,0.1-2.8,0.1-5.2,0.1C519.6,1.9,520.8,2,523.6,1.9z M199,296.9l-1.8-0.1
						C201.3,296.7,200.2,296.8,199,296.9z"/>
					<path d="M54,5.7c-0.6-0.1-0.7-0.2-0.9-0.3C52.4,5.6,52.3,5.6,54,5.7z"/>
					<path d="M6.3,263.7l0,0.3c0,0.2,0.1,0.3,0.1,0.3L6.3,263.7z"/>
					<path d="M378.4,6c-1.9-0.1-3-0.2-3.7-0.2C374.6,5.9,375.5,6,378.4,6z"/>
					<path d="M558.6,21.7l-0.1-6c0,2.9-0.1,3.9-0.2,5.4C558.4,21,558.6,19.8,558.6,21.7z"/>
					<path d="M555.6,73.8c0.1,0.9,0,1.9,0.1,2.7l0.2-0.2C555.9,72.6,555.7,69.9,555.6,73.8z"/>
					<path d="M557,27.3c-0.4,0.5-0.3,4.2-0.2,8.4c0-0.3,0-0.5,0-0.7C557.4,36.2,557.2,31.7,557,27.3z"/>
					<path d="M556.8,36.7c0,1.3,0,2.6,0,3.9C557.1,41.1,556.9,39,556.8,36.7z"/>
					<path d="M535.5,1.7c2,0.1,1.3-0.5,2.4-0.4C540.1,0.8,524.6,1.9,535.5,1.7z"/>
					<polygon points="555.7,30.7 556.2,29.2 555.8,26.8 					"/>
					<path d="M549.1,3.7l6.8,0.1l0,0.1c0.1-0.2,0.1,0.7,0.2,1.8c0-0.7,0-1.4,0-2.1c-1.9,0-3.7,0-5.1,0C549.8,3.6,549,3.6,549.1,3.7z
						"/>
					<path d="M556.1,5.8c0,2.5,0,4.4,0.1,5.6C556.1,10.2,556.1,7.8,556.1,5.8z"/>
					<polygon points="555.5,21.5 555.6,19.5 555.7,14.7 					"/>
					<path d="M476.8,3.6l-7.3,0.1c-0.7,0.2,1.3,0.3,4,0.2C475.2,3.8,477.9,3.7,476.8,3.6z"/>
					<path d="M499,5c-2-0.1-2.1-0.2-3.2-0.4l-0.2,0.6L499,5z"/>
					<path d="M477.6,5.1c-0.7,0.2-10.6,0.5-1.3,0.5C477,5.4,484.4,5.2,477.6,5.1z"/>
					<polygon points="367.1,4.3 369,4.3 368.7,3.3 					"/>
					<path d="M269.7,6.7c8.7,0.2,2.1-0.6,9.9-0.3c2-0.2-6.4-0.2-4.3-0.5C270,6.2,267.3,6.1,269.7,6.7z"/>
					<path d="M275.3,6c0.8,0,1.7-0.1,2.7-0.2C276.4,5.9,275.7,5.9,275.3,6z"/>
					<polygon points="540.3,297.4 545.8,297.7 542.2,297.3 					"/>
					<path d="M551,296.7l1.3,0.6l3.4-0.6C554.4,296.8,551.9,296.8,551,296.7z"/>
					<path d="M7,78.8l-0.2-0.4c-0.2,0.9-0.2,2.2-0.2,4.8L7,78.8z"/>
					<polygon points="6.5,154.6 6.5,153.3 5.9,155.7 					"/>
					<path d="M7.3,218.2c0-2.6-0.1-5.6-0.1-8.3C7.3,215.6,6.5,218.9,7.3,218.2z"/>
				</g>
			</g>
		</g>
	</g>
</g>
</svg>
