<?xml version="1.0" encoding="utf-8"?>
<!-- Generator: Adobe Illustrator 17.1.0, SVG Export Plug-In . SVG Version: 6.00 Build 0)  -->
<!DOCTYPE svg PUBLIC "-//W3C//DTD SVG 1.1//EN" "http://www.w3.org/Graphics/SVG/1.1/DTD/svg11.dtd">
<svg version="1.1" id="Layer_1" xmlns="http://www.w3.org/2000/svg" xmlns:xlink="http://www.w3.org/1999/xlink" x="0px" y="0px"
	 viewBox="0 0 612 199" enable-background="new 0 0 612 199" xml:space="preserve">
<g>
	<g>
		<g>
			<path d="M124.7,75.1c-4.1-1.3-8.1-2.1-11.9-2.4c-3.9-0.3-7.6,0-11.1,0.6c-3.4-0.3-6.9-0.1-10.3,0.5c-0.8,0.2-1.7,0.4-2.5,0.6
				l-1.3,0.3l-1.2,0.5c-0.8,0.3-1.6,0.6-2.4,0.9l-2.3,1.1c-3,1.6-6,3.5-8.4,6c-0.3,0.3-0.7,0.6-1,0.9l-0.9,1
				c-0.6,0.7-1.2,1.2-1.7,1.9l-1.6,2.1c-0.3,0.3-0.5,0.7-0.7,1.1l-0.7,1.1L66,92.4c-0.2,0.4-0.4,0.8-0.6,1.2l-1.1,2.3l-0.9,2.4
				c-0.1,0.4-0.3,0.8-0.4,1.2l-0.3,1.3c-1,3.3-1.2,6.8-1.3,10.2l0.1,2.6c0,0.4,0.1,0.9,0.1,1.3l0.2,1.3c0.2,1.7,0.7,3.4,1.1,5
				c0.3,0.8,0.6,1.6,0.9,2.4l0.4,1.2l0.6,1.2c0.4,0.8,0.7,1.6,1.1,2.3l1.3,2.2c0.4,0.8,1,1.4,1.5,2.1c0.5,0.7,1,1.4,1.6,2l1.7,1.9
				l1.9,1.7c2.6,2.2,5.5,4.2,8.6,5.6l1.2,0.6c0.4,0.2,0.8,0.3,1.2,0.5l2.4,0.9l2.5,0.6c0.4,0.1,0.8,0.2,1.3,0.3l1.3,0.2
				c0.9,0.1,1.7,0.3,2.6,0.4l2.6,0.1c0.9,0.1,1.7,0.1,2.6,0c0.9-0.1,1.7-0.3,2.6-0.2c7.1,1.1,15,0.3,23-2.7
				c-4.7,7.1-12.4,12.8-21.5,15.8c-0.6,0.2-1.1,0.3-1.7,0.3c-0.6,0-1.2,0-1.8,0c-1.2,0-2.3,0.1-3.5,0l-3.5-0.2
				c-1.2-0.1-2.3-0.3-3.5-0.5l-1.7-0.3c-0.6-0.1-1.1-0.3-1.7-0.4l-3.4-0.9l-3.3-1.2c-0.5-0.2-1.1-0.4-1.6-0.6l-1.6-0.8
				c-4.3-1.9-8.2-4.6-11.7-7.6c-0.9-0.8-1.7-1.6-2.6-2.4l-2.4-2.6c-0.8-0.8-1.5-1.8-2.2-2.7c-0.7-0.9-1.4-1.8-2-2.9l-1.8-3
				c-0.6-1-1-2.1-1.6-3.1l-0.8-1.6l-0.6-1.6c-0.4-1.1-0.8-2.2-1.2-3.3c-0.6-2.3-1.3-4.5-1.5-6.8l-0.3-1.7c-0.1-0.6-0.2-1.2-0.2-1.7
				l-0.2-3.5c0-4.6,0.4-9.3,1.7-13.9l0.4-1.7c0.1-0.6,0.4-1.1,0.6-1.7l1.2-3.3l1.5-3.2c0.3-0.5,0.5-1.1,0.8-1.6l0.9-1.5l0.9-1.5
				c0.3-0.5,0.6-1,1-1.5l2.1-2.8c0.7-0.9,1.5-1.8,2.3-2.6l1.2-1.3c0.4-0.4,0.9-0.8,1.3-1.2c3.3-3.3,7.3-5.9,11.4-8.1l3.2-1.5
				c1.1-0.5,2.2-0.8,3.3-1.2l1.6-0.6l1.7-0.4c1.1-0.3,2.3-0.6,3.4-0.8c2.3-0.3,4.6-0.8,6.9-0.8l3.5-0.2c0.6,0,1.2-0.1,1.8-0.1
				c0.6,0,1.2,0.1,1.7,0.2C111.9,62.6,119.8,68.1,124.7,75.1z"/>
		</g>
		<g>
			<g>
				<g>
					<g>
						<g>
							<path d="M36.6,64.8c-0.7-0.8-1.3,0.4-1.5,0.4C36.6,66.2,36.8,64.5,36.6,64.8z"/>
							<polygon points="51.8,74.7 51.3,74.9 54.1,75.7 							"/>
							<path d="M64.3,86c0.2-2.6-4.8-3.8-6.5-6.4l0-0.7l-2.1,0.4C58.6,81.5,62.8,83.8,64.3,86z"/>
							<path d="M68,95.3c0.1-0.5,0.5-0.3,0.6-0.3c0,0-0.1,0-0.4-0.2c-0.3-0.2-0.8-0.5-1.6-1.1c0.1,0.2,0.1,0.3,0.1,0.4
								C67,94.4,67.4,94.7,68,95.3z"/>
							<path d="M66.7,94.2C65.4,93,67.1,95.4,66.7,94.2L66.7,94.2z"/>
							<path d="M76.5,102.4l-3.3-2c0.4,1,3.3,3.8,2.1,3.2C78.8,106.1,78.1,104.8,76.5,102.4z"/>
							<path d="M79.6,103l-1.5-0.9C78.3,102.6,78.7,103,79.6,103z"/>
							<path d="M74.7,100l3.4,2.1c-0.4-0.8-0.2-1.6-1.5-1C77,100.6,76.3,100.7,74.7,100z"/>
							<path d="M73.1,98c-0.7-0.9-1.5-1.9-1.7-2.4c-0.2-0.5,0.1-0.5,1.7,0.4c-1.3-1.1-2.3-1.8-3-2.2c-0.2-0.1-0.3-0.1-0.4-0.2
								c-0.1,0-0.2,0-0.2,0c-0.1,0-0.2,0.1-0.3,0.2c0,0.1,0,0.2,0.1,0.4c0,0,0,0.1,0.1,0.1c0.1,0.1,0.1,0.1,0.2,0.2
								c0.1,0.2,0.3,0.3,0.5,0.5C70.6,95.8,71.6,96.8,73.1,98z"/>
							<path d="M66.4,84.9l-0.9-1.6l-1.6-0.5C64.7,83,66.1,85.5,66.4,84.9z"/>
							<path d="M96.1,121.4c-0.1-0.7-1.9-3.3-2.4-4.5l-1.9-1C93.1,117.4,95.5,120,96.1,121.4z"/>
							<path d="M93.7,116.9c0.9,0.5,1.8,0.9,2.6,1.3C93.5,115.5,93.2,115.8,93.7,116.9z"/>
							<path d="M80.3,100.5c-1.5-0.6-3.2-1.4-5-2.3c2.1,1.2,4.1,2.2,5.9,3.1L80.3,100.5z"/>
							<path d="M102.8,118.3l1,4.7c-0.5-2.7-1-5.3-1.6-7.7L102.8,118.3z"/>
							<path d="M102.6,106c0.4,1.5,0.8,1.3,1.1,1c0.3-0.3,0.6-0.7,0.9,0.8c-0.2-3.8-0.9-7.5-1.6-10.5
								C103.4,100.2,103.3,103.2,102.6,106z"/>
							<path d="M102.1,92.4c0.2,1.4,0.6,3,1,4.8C102.8,95.7,102.5,94.1,102.1,92.4z"/>
							<path d="M100.4,120.2c0.3,0.3,1,1.1,1.3-0.8c-0.4-0.2-0.8-0.5-1.3-0.8C100.4,119.1,100.4,119.7,100.4,120.2z"/>
							<path d="M100.4,118.6L100.4,118.6c0.1-1.7,0.1-2.9,0.1-3.4C100.5,115.6,100.4,116.6,100.4,118.6z"/>
							<path d="M100.4,120.7c0-0.1,0-0.3,0-0.4C100.3,120.1,100.2,120.1,100.4,120.7z"/>
							<path d="M87.7,108.7c0.7,0.2,1.8,0.7,2.2,0.5c0.4-0.2,0.1-1.1-1.6-3.3c-0.3,0.3,0,1.1,0.2,1.8
								C88.7,108.4,88.8,109,87.7,108.7z"/>
							<path d="M98.4,118.3l-3.3-3.3c0.3,0.7,1.3,2.3,0.7,2.2C96.8,117.5,97.6,117.9,98.4,118.3z"/>
							<polygon points="98.4,116.2 98.7,118.4 98.4,118.3 98.9,118.7 98.9,117.8 							"/>
							<path d="M100.9,99.6c-0.6-2.5-0.6-4.6-0.7-7c-0.2,2.4-0.4,4.8-0.4,7.2C100.2,100.5,100.9,102.4,100.9,99.6z"/>
							<path d="M100.5,108.8c0-0.2-0.1-0.4-0.1-0.5C100.3,108.3,100.3,108.5,100.5,108.8z"/>
							<path d="M100.2,73.5c-0.1,0.1-0.1,0.2-0.2,0.2c0.1,0,0.1,0,0.2,0.1L100.2,73.5z"/>
							<path d="M99.6,99.9c-0.2,1.6,0.1,3,0.5,4.6c-0.1-1.6-0.2-3.1-0.2-4.7C99.6,99.4,99.5,99.2,99.6,99.9z"/>
							<path d="M101.5,85.1c-0.3,1-0.5,2.1-0.7,3.2C101.2,87.5,101.8,85.6,101.5,85.1z"/>
							<path d="M100.8,108.1c0,0.1,0,0.2,0.1,0.4C101.1,108.2,101,108.1,100.8,108.1z"/>
							<path d="M100.8,108.1c-0.2-1.3-0.5-2.5-0.8-3.6c0.1,1.3,0.2,2.5,0.4,3.8C100.5,108.1,100.7,108.1,100.8,108.1z"/>
							<path d="M92.1,69.1c1.2,0.2,2.3,3.3,1,6c0.9,2.6,4.7,0.9,6.9-1.4c-0.5-0.1-1-0.1-1.7-2.8c-0.6,0.9-1.5,6-2.6,3.7
								c-0.6-3.6,0.4-2.9,1-4.7c-1.5,1.5-2.1-4.6-4.3-3.8l0.8,3.1C92.9,69.4,92.4,68.3,92.1,69.1z"/>
							<path d="M99.9,78.9L100,80c0.2-1.3,0.7-2.2,1.6-3.9c-0.6-1.9-1-2.2-1.4-2.4l-0.2,5.5L99.9,78.9z"/>
							<path d="M100,87.8c-0.6-1-1.1-2.5-1.6-3.4c-0.5-1-0.9-1.3-1.6-0.4c0.1,4.3,1.1,3.4,1.6,6.6c-0.2-3.9,0-3.3,0.3-2.3
								c0.3,1,0.7,2.4,1.1-0.4c0.2,1.7,0.3,3.3,0.3,4.7c0.2-1.4,0.3-2.8,0.6-4.2c0,0.1-0.1,0.1-0.1,0.2l0,0c0,0,0,0,0,0
								c-0.2,0.3-0.3,0.4-0.2,0c0,0,0-0.1,0-0.2C100.3,88.2,100.2,88,100,87.8c0.3-2.3,0.3-0.3,0.5,0.6c0.1,0.1,0.1,0.1,0.2,0.2
								c0,0,0,0,0,0l-0.3-4.5l-0.2-2.2l-0.1-1.1l0-0.5l0-0.3c0,0.2,0,0.2-0.1,0.5c0,0.2,0,0.5,0,0.7c0,0.5,0,1.1,0,1.7
								C99.9,84.2,99.9,85.8,100,87.8z"/>
							<path d="M89.3,103.1c0.2,0.3,0.3,0.5,0.3,0.7C89.8,103.7,89.8,103.6,89.3,103.1z"/>
							<path d="M91.6,106.1c-0.2,0.1-0.1,0.9-1.2-0.4c-1.2-1.6-0.4-1.2-0.7-2c-0.2,0.1-0.6,0-0.7,0.3c-0.1,0.3,0.2,0.9,1.4,2.4
								l0.2,0c1.1,1.3,2.6,3.3,3.8,5.1c1.3,1.8,2.3,3.3,2.2,3.3C94.9,111.8,93.7,109.5,91.6,106.1z"/>
							<path d="M96.9,102.4l-0.6-6.5c-0.4,0.6-0.7,1-1.1,1.4l0.7,0.7C95.5,100.7,96.4,101.2,96.9,102.4z"/>
							<polygon points="100.8,73 102.2,73.6 100.3,71 							"/>
							<polygon points="100.7,67.3 101.8,67.5 101.1,66 							"/>
							<path d="M86.8,179.9l1.2-0.3C87.4,179.7,87.1,179.8,86.8,179.9z"/>
							<path d="M78.2,179.1l-0.3,0.5C78.4,179.3,78.6,179.1,78.2,179.1z"/>
							<path d="M16.4,48.2c-2,1.1-4.8,2.1-3.5,2.6l1.4,0.2C14.9,49.6,15.7,48.8,16.4,48.2z"/>
							<path d="M16.8,143.7c0-0.2,0.1-0.4,0.1-0.7c-0.6-0.2-1.2-0.4-1.7-0.6C15.7,142.8,16.3,143.3,16.8,143.7z"/>
							<path d="M22.1,142.3l0.4,2.4C22.5,144.1,22.4,143.3,22.1,142.3z"/>
							<path d="M131.3,167.7c0.2-0.6,0.3-1.2,0.5-1.8C130,167,131.1,167.1,131.3,167.7z"/>
							<path d="M96.1,3.6c-2.1-0.2-4-0.2-5.8,0.1C93.1,3.9,94.5,4.9,96.1,3.6z"/>
							<path d="M82.3,193.3c0.9-0.2,1.2-0.4,1.2-0.7C82.7,192.7,82.2,192.9,82.3,193.3z"/>
							<path d="M82.8,5.1c0.5,0,0.9,0,1.3,0c1-0.3,1.9-0.6,3-0.9c1-0.3,2.1-0.4,3.2-0.6c-1-0.1-2.2-0.2-3.5,0.1
								C85.5,3.9,84.1,4.3,82.8,5.1z"/>
							<path d="M106.4,46.4c-0.1-0.1-0.3-0.1-0.4-0.2C106,46.4,106.1,46.4,106.4,46.4z"/>
							<path d="M52.9,47.4c0.5-0.3,1.3-0.6,2-1C54.5,46.5,53.9,46.8,52.9,47.4z"/>
							<path d="M101.2,44.3C101.3,45.5,101.4,44.5,101.2,44.3L101.2,44.3z"/>
							<path d="M96.2,50.2c-0.1-0.3-0.3-0.5-0.6-0.5C95.8,49.8,96,49.9,96.2,50.2z"/>
							<path d="M70.9,17c0,0-0.1,0-0.1,0C71.2,17.1,71.2,17.1,70.9,17z"/>
							<path d="M100.6,46.1c0.2-0.5,0.3-1,0.4-1.6C100.9,44.8,100.8,45.3,100.6,46.1z"/>
							<path d="M101.3,45.8c0,0.4-0.1,0.7-0.1,1.1C101.3,47.1,101.5,46.9,101.3,45.8z"/>
							<path d="M101.2,42.6c0,0.7,0,1.3-0.1,2c0.1-0.2,0.2-0.3,0.2-0.3C101.2,43.9,101.2,43.4,101.2,42.6z"/>
							<path d="M168.7,102.7c0-0.1,0-0.2,0.1-0.3C168.1,101.4,168.2,101.9,168.7,102.7z"/>
							<path d="M15.6,82.5c0-0.1,0-0.1,0-0.1c0,0-0.1,0.1-0.1,0.2L15.6,82.5z"/>
							<path d="M15.7,86.6c-0.3-0.5-0.5-0.9-0.7-1.3c-0.1-0.4-0.1-0.7-0.1-1c0-0.6,0.3-1.2,0.6-1.8c-1.3,0.2-2.6,0.3-3.9,0.5l2,1.8
								C14.3,85.4,15,86,15.7,86.6z"/>
							<path d="M107.3,177.8c-1-0.2-2-0.4-3-0.6c0.7-0.6,1.5-1.1,2-1.4c0.6-0.4,1.1-0.6,1.4-0.8c0.6-0.4,0.5-0.6-0.9-1.2
								c0.2,2-2.4,2.7-5,3.1c-0.7,0.1-1.3,0.2-1.9,0.4c-0.6,0.1-1.2,0.3-1.7,0.5c-1,0.4-1.7,1-1.7,2l-1.9-0.7c0.5,0,0.6-0.2,1.1-0.2
								c-1.8-0.9-2.5-0.1-3.2,0.8c-0.4,0.5-0.8,1-1.4,1.3c-0.6,0.4-1.5,0.6-2.6,0.4c-1.6-0.3-2.8-1-1.6-1.4
								c-1.2,0.3-2.4,0.5-3.7,0.8c-1.1-0.2-0.7-0.8,0.3-0.7c-1.9,0-3.7-0.2-5.5-0.3l0.1-0.1c-0.9,0.5-2.8,1.1-3.8,1.4
								c-1.3-0.8,0.8-0.3,0.5-0.9c-1.1,0.2-2.2,0.2-3.2,0.3c-0.5-0.6-0.1-1.1,0.7-1.3c0.8-0.2,2-0.1,3,0.1c-1-2.2-1.7-2.1-2.8-1.9
								c-0.6,0.1-1.2,0.2-2.1,0.1c-0.9-0.1-1.9-0.6-3.2-1.6l2.9,0.3c-0.6-1.4-1.4-2-2.5-2.5c-1-0.6-2.2-1.2-3.4-2.3
								c0.2,0.5,1.4,1.8,2.1,3c0.7,1.2,1.1,2.3-0.7,2.3c-0.8-0.6-1.9-1.1-3.9-1c0.2-0.7-0.1-1.1-0.7-1.4c-0.6-0.3-1.6-0.6-2.6-1
								l0.9-1.7c-2.3-0.5-2.6,0.5-4.2,0.7c-2.3-1.4-2-2.9-1.9-4.3c-1.7-1.1-1.4-0.3-1.2,0.6c0.2,0.9,0.3,1.8-1.9,0.7
								c-2.6-2.4-5-3.1-9-4.8c-1.5-2,1.1-0.6,0.7-1.6c-0.9,0-1.8-0.1-2.6-0.2c-0.4-0.4,0.1-0.6,0.3-0.7c-1.8-0.8-1.4,1.4-3.9-0.3
								c-1,0.5-1.6-1.1-2.4-3c-0.4-0.9-0.8-1.9-1.4-2.7c-0.6-0.8-1.3-1.5-2.4-1.8c-0.2-1,1.2-0.4,1.6-1.1c-2.1-1.4-3-2.1-3.9-2.6
								c-0.8-0.6-1.7-1-3.7-2.1l-0.8-3.6c0.1,1.5-0.7,1.7-1.8,1.4c-1.1-0.4-2.6-1.4-3.9-2.4c-0.1,1.2-0.2,2.2-0.2,2.8l-1.7-1.9
								l-1.6-2c0-0.7,0.8-0.5,1.9-0.2c-0.3-0.2-0.6-0.4-0.8-0.6c-0.2-1.9,1.2-1.5,2.7-0.9c-0.1,0.7-0.2,1.4-0.3,2.1
								c1.6,0.5,3.2,0.8,4.1,0.1c-0.3-0.2-0.8-0.6-1.2-1.1c0.4,0.1,0.8,0.1,0.9-0.1c0.1-0.2-0.5-0.5-1.3-0.9l1.4-1.9l-0.9,0.2
								c-0.3-1-0.5-2-0.7-3c-0.2-1-0.4-2-0.6-3c-0.9-0.8-1.8-1.5-2.7-2.3c-0.9-0.8-1.8-1.6-2.8-2.6c-0.9-1-1.8-2.1-2.6-3.3
								c-0.7-1.3-1.5-2.8-2-4.5c1.8,1.5,2.5-0.1,4.4-0.4c-0.8,1.1-0.3,2.4,0.5,3.8c0.3,0.7,0.9,1.4,1.2,2.2c0.4,0.8,0.7,1.6,0.9,2.4
								c-0.4-1.8,0.6-1.7,1-1.3l-1.7-2.7c-0.6-0.9-1-1.9-1.6-2.8c0.7-0.1,0.9-0.5,1-1c0.1-0.6,0-1.3,0.2-2.2
								c-1.3,0.9-2.1-0.2-2.5-1.8c-0.2-0.8-0.4-1.7-0.6-2.6c-0.2-0.9-0.3-1.7-0.6-2.4c0.5-0.1,1,0,1.4,0.5c0.4,0.5,0.6,1.4,0.7,2.9
								c0.9-1.8,0-2.8-1-3.8c-0.5-0.5-1-1-1.3-1.7c-0.2-0.6-0.3-1.3,0.2-2.2c0,0.8-0.1,1.2,0.4,1.5c-0.4-0.9-0.6-2.4-0.4-3.7
								c0.2-1.2,0.6-2.1,1-1.5l0,0.8c0.1-1.3,0.2-2.9,0.3-4.6c0-0.4,0-0.9,0-1.3l0.1-1.3c0-0.9,0.1-1.8,0.1-2.6
								c-0.1-3.4-0.2-6.3-1.4-6.9c0.3,0,2.9,1.2,3.3,1.6c-1.1-1.7-2.3-3.5-3.4-5.3c-1-1.8-2-3.7-3-5.7c0.9,0.7,2.9,0.6,4.5,0.9
								c1.7,0.3,3.1,1,3.3,3.2c0.3-0.5,0.6-1.2,0.8-2c0.1-0.4,0.2-0.9,0.3-1.4c0.1-0.5,0.1-1.1,0.2-1.7c-0.5,0.7-3.6,1.1-3.5-0.1
								c1.6-1.2,2.1-1.6,2.6-2.1c0.2-0.3,0.5-0.5,0.8-0.9c0.4-0.4,0.8-0.9,1.7-1.6c-0.9,1-3.6-1.5-2.7-3.3c0.4,0.5,3.2,1.1,3.2,1.9
								c-0.4-1.9-0.9-3.9-1.1-5.8c0,1.4,2.5,1.4,3.8,0.8c-0.4,0.1,0.1-0.8,0.7-1.9c0.6-1.1,1.5-2.3,1.6-3l-1.7,1.4
								c1.6-2.2,1.2-4,0.9-5.8c-0.2-1.8-0.5-3.7,1.2-6c0.1,0.5,0.7,1.4,1.5,2c0.8,0.6,1.9,0.8,2.9-0.2c-0.3-1-1.1-3.4-1.4-6.2
								c-0.1-1.4-0.1-2.9,0.1-4.3c0.1-0.7,0.2-1.4,0.4-2.1c0.2-0.7,0.5-1.3,0.9-1.9l1.4,0c0.7-1.2,1.4-2.5,2.2-3.6
								c-0.1,1.8-0.4,4.9-0.8,8c-0.2,1.5-0.3,3.2-0.4,4.6c-0.1,1.4-0.3,2.7-0.4,3.7c1.8-1.1,1.2,0.3,3.1-2c1.4-0.2,0,2.1-0.6,2.8
								c1.7-1.6,3.3-3.2,5.1-4.6c-0.8-0.6-0.2-1.9,0.4-3.2c0.7-1.2,1.4-2.4,0.8-3c-1.5,2.2-2.8,4.5-4.1,6.8
								c-0.8-0.6-1.1-2.3-0.6-4.4c0.3-1,0.7-2.2,1.3-3.2c0.7-1,1.5-2,2.6-2.8c1.5-0.3,1.5,3.4,2.1,3.8c0-1,2.9-4,3.6-4l-1,2.2
								c1.3-0.6,1.8-1.8,2.5-2.9c0.7-1.1,1.5-2.2,3.5-2.4c1.1-0.5,4.3,0.3,3.8-0.8c-2.8-0.9-7-6.6-6.7-8.8c0.2-0.1,1.9-0.5,3.8-0.8
								c0.9-0.2,1.9-0.3,2.8-0.4c0.9-0.1,1.6-0.1,2,0c1.3,0.3,1.1,1.6,0.9,2.9c-0.2,1.3-0.4,2.5,0.7,2.8c-0.2-0.5,0.4-1.6,0.7-2
								c1.3-0.2,0.3,1.7,2.6,0.2c-0.5-2,5.1-2.2,0.4-2.1c2.2-1.7,2.8-0.9,5.6-2.2c-0.7-0.4-0.5-1.7,0.2-3.1c0.7-1.4,2-2.9,3.2-3.6
								c0,0.5,0.8,0.9,1.2,1.1c2.7-0.9,4.9-1.3,7-1.7c1-0.2,2-0.3,3-0.5c1-0.2,2-0.4,3.1-0.6c0.2,0.2,0.7,0.4,1.1,0.6
								c0.3,0.3,0.4,0.6-0.1,1.2c0.7-0.5,1.5-1.4,2.9-1.7c0.6,0.8-0.2,1-0.9,1.3c-0.8,0.3-1.6,0.6-1.4,1.7c0.4-0.7,1.3-1.3,2.5-1.9
								c0.6-0.3,1.3-0.6,2-0.9c0.2-0.1,0.3-0.1,0.5-0.2l0.1-0.1l0,0.1l0.1,0.1c0.1,0.2,0.2,0.3,0.3,0.4c0.5-0.7,0.7-1.3,0.8-1.9
								c0.1-0.2-0.1-0.1-0.2-0.2c-0.1,0-0.3,0-0.4,0.1c-0.3,0.1-0.7,0.2-1.1,0.3c-1.5,0.5-3.3,1.4-4.4,2.1c0.5-1.4,2-3.1,4.5-4.7
								c1.3-0.8,2.8-1.5,4.5-2.2C95,8.1,95.2,8,95.4,7.9c0.1,0,0.3-0.1,0.3-0.1L95.8,8c0.1,0.3,0.2,0.5,0.3,0.8
								c0.2,0.6,0.4,1.3,0.6,2c0.8,5.1-1.5,3.6-1.1,4.3c0,2.5,0.1,4.2,0.5,5.5c0.4,1.3,0.9,2.3,1.3,3.4c0.1,0.3,0.2,0.5,0.3,0.8
								l0.2,0.4l0.1,0.3c0.2,0.4,0.3,0.8,0.4,1.3c0.2,1,0.2,2.2-0.3,3.9c-1.6,2.7-3.2,0.1-4.3,0.7c-0.3-1.8,0-3.2,0.3-4.4
								c0.2-0.6,0.3-1.2,0.5-1.8c0.1-0.6,0.2-1.3,0.2-2l-0.4,1.7l-0.4,1.5c-0.3-0.6-0.5-1.5-0.6-2.4c-0.1-0.9-0.1-1.8,0.1-2.6
								c-0.4,0.7-0.6,1.9-0.7,3.4c-0.1,1.5-0.1,3.4-0.2,5.4c-0.1,4-0.1,8.5-0.8,11.7c0.5,1.1,1.1,3.1,1.7,2.2l-0.2-2
								c1.3-1.9,1.8,3.8,2.4,1.2c0.9,2.7,2.3,5.7,1.6,9.6l-1.8,0.7c0.5-0.1,1.1-2.5,0.5-3.6c0.8,1.6-2.5,5.8-0.1,7.6l1.3-2.7
								c0.9,2.7,2.8,6.1,2.3,9.5c1.8-1.5-0.2-0.8,1.9-3.2c-2.6,2.1,0.1-8.6-2.6-5.3c2.4-2.5,1-4.3,3.1-7.5c-0.6,0.1-1.1,1.1-0.8-1.7
								c-0.2-0.1-0.4-0.4-0.5-0.6c0-0.1,0-0.1,0-0.2c0,0.1,0,0.1-0.1,0.2c-0.1-0.1-0.1-0.1,0,0.1c-0.3,0.7-0.6,1.2-0.9,1.4
								c-1.4-1.4-1.3-5.9-2-7.4c0.3-1.7,0.7,0.7,1.3-0.2l-1.1-2.3c1.3-0.2,2.2-4.5,3-0.5l0.1-3.6c0.7-2.1,1-5,0.5-6.8
								c0.1-0.4,0-0.9-0.1-1.4c0-0.1-0.1-0.2-0.1-0.3c0-0.1-0.1-0.3-0.1-0.5c-0.1-0.3-0.1-0.7-0.2-0.9c-0.3-1.1-0.5-1.5,0.1-0.4
								l-0.8-8.9l0.3-0.3c0-0.6,0-1.1-0.1-1.6c0-0.5-0.1-1-0.1-1.6c-0.1-1-0.3-2-0.4-3c-0.1-1-0.3-2-0.4-3c-0.1-0.5-0.1-1-0.2-1.5
								l0-0.1c0,0-0.1,0-0.1,0l-0.2,0l-0.4,0.1l-0.9,0.2c-2.3,0.4-4.5,0.8-6.6,1c-1.1,0.1-2.2,0.2-3.3,0.2c-1.1,0-2.3,0.1-3.5,0
								c-1.5,0.5-3,1.1-4.7,1.6c-0.8,0.3-1.8,0.5-2.7,0.8c-0.8,0.2-1.4,0.4-2.2,0.5l-1-0.9c-2.3,1.1-7.6,1.4-8.2,3
								c-0.9-0.5-2.1-0.5-3.5-0.1c-1.3,0.4-2.8,1-4.3,1.7c-1.5,0.8-3,1.6-4.4,2.5c-1.4,0.8-2.6,1.6-3.7,2l0.6,1.4
								c-1.4,0.7-2.6,1.6-3.9,2.5c-1.3,1-2.6,2.2-4,3.4l0.9,1c-1,1.4-2.9,2.4-5,3.5c-2.1,1.2-4.4,2.4-6.3,4.2
								c-0.1-0.6,1-1.4,1.9-1.8c-1.7,0.5-3,1.4-4.2,2.5c-1.2,1.2-2.1,2.6-3,3.9c-0.5,0.7-0.9,1.4-1.3,2.1c-0.4,0.7-0.9,1.4-1.3,2
								c-0.5,0.6-1,1.2-1.5,1.7c-0.5,0.5-1.1,1-1.7,1.4c-0.5,1.4-1.3,2.1-2.1,2.7c0.1-0.1,0.1-0.2,0.2-0.3c-0.1,0.1-0.2,0.3-0.4,0.5
								c-0.5,0.4-1.1,0.8-1.7,1.2c0.6-0.3,1.1-0.6,1.5-1c-0.6,0.9-1.4,2.4-2,3.9L14.3,51c-0.1,0.1-0.1,0.2-0.2,0.3
								c-1.3,1.1-0.1,1.5,1.3,1.3c-0.2,0.8-0.3,1.6-0.3,2.3c-1.3,0-1.7,1-2.1,2.1c-0.4,1-0.7,2.2-2.3,2.4C11,60.1,10.3,62,9.8,64
								c-0.4,2-0.6,4,0.4,4.9c-0.3-0.1-0.6,0.3-0.3-0.5c-1,1.5-1.7,3.1-1.6,4.8l-2,0.2c0.4,1.5,0.7,2.9,1.2,4.4
								c-1.6,2-2.5,2.8-3.3,0.2c0.4,3,0.3,4.2,0.3,5.2c0,1.1,0.1,2,0.7,4.5l-1.1-0.4c-0.1,0.8,0.1,2,0.2,3c0.2,1,0.2,2-0.3,2.4
								c-0.6,0.9-1.1,2.5-1.5,4.6c-0.3,2.1-0.4,4.6-0.5,7.3c-0.2,5.5,0.4,11.8,0.3,16.9c1.5-1.3,1.3-0.1,1.1,1.5
								c-0.2,1.5-0.3,3.4,1,3.2c-0.7,0.8-0.7,2.2-1.8,0.8c1.1,2.4,1.3,4.4,1.7,6.1c0.2,0.9,0.4,1.6,0.8,2.4c0.4,0.7,1,1.4,1.8,2
								c-0.5,0.9-1.5-0.6-1.8,0.1c0.3,0.3,1.3,1.3,1,2c-0.2,0.7-0.9-0.4-1.5-1.1c0.5,1.3,1.1,2.1,1.7,2.8c0.6,0.6,1.2,1,1.8,1.2
								c1.2,0.4,2.4,0,3.5-0.3c0.2,2.8,0.9,3.9,3.2,4.8c-0.2,1.2-0.2,2.9-2,0.2c0.2,0.4,0.6,1.2,1.1,2.3c0.5,1,1.2,2.2,1.8,3.3
								c1.4,2.2,3,3.9,3.8,3.5c0,0.7,1.4,2.1,1.9,2.3c2.5,3.2,2.6,3.6,5.4,6.3l-0.5-1c2.7-0.4,2.6,2,5.1,3.9l-0.2,0.1
								c1.1,1.5,1.8,2.3,2.4,2.9c0.6,0.5,0.9,0.7,1.3,0.8c0.4,0.2,0.7,0.4,1.2,0.9c0.3,0.2,0.6,0.6,1,1c0.4,0.4,0.9,1,1.5,1.7
								l0.5-1.4c1.2-1.1,2.1,0.2,3.4,1.9c1.3,1.7,3,3.7,5.1,4.2l-0.9-1.5c1.2,0.1,2.1,1.7,3,3.6c0.9,1.8,1.8,3.7,2.8,4.4
								c0.4,0.5-0.9,0.1-1.7-0.1c2.5,2.1,2.9,1.8,3.2,1.1c0.3-0.7,0.5-1.7,2.7-1.1c0.4,1.2-2,2,0.9,3.3c0.6,0.6,3,0.7,5.7,0.7
								c1.3,0,2.7,0.1,4,0.3c1.3,0.2,2.5,0.6,3.4,1.3c-0.8-1-1.5-1.9,0.7-2c0.8,0.1,1.7,0.4,2.7,0.8c1,0.4,2,0.9,3,1.2
								c1,0.4,2.1,0.7,3.1,0.7c1,0,1.9-0.2,2.7-0.7c0.4,0.2,0.5,0.5,0.5,0.6c2.5-0.4,8-0.8,9.4-2.2c1.2,2.4,5,1.6,8.4,0.6
								c3.4-1.1,6.4-2.3,6.8-0.1c2.5-0.5,4.9-1.2,7.3-1.9l-0.1,0.5c4.8-1,6.1-2.6,7.3-4.2c1.1-0.1,0.5,0.6,0.5,0.8
								c3.5-0.8,5.3-1.4,6.9-2.3c1.6-0.9,2.8-2.2,4.8-4.6l1.2,1c0.5-0.8,3-1.5,6-2.9c1.5-0.7,3.1-1.6,4.6-2.6
								c1.5-1.1,2.9-2.3,3.9-3.8c0.1,0.2,0.1,0.5-0.2,1c2.5-3.2,6.5-5.8,9.7-8.7c0.8-0.7,1.5-1.4,2.1-2.1c0.6-0.7,1.1-1.5,1.5-2.2
								c0.8-1.4,0.9-2.8,0.2-4.2l0.9-2.5l0.7-2.6c-1.8,2.8-2.2,2.2-2.4,1.3c-0.2-1-0.2-2.3-1.2-1.4c0.5-1.2,1.6-2.3,2.5-2.9
								c0.8-0.6,1.4-0.6,0.8,0.9l-0.5,0.3c0.5,0.6,1,0.5,1.6,0c0.5-0.5,1.1-1.4,1.6-2.4c0.6-0.9,1-1.9,1.5-2.7
								c0.5-0.7,0.9-1.1,1.3-0.9c2.5-6.1,4.5-12.2,6-18.5c0.4-1.5,0.7-3.1,1-4.7c0.3-1.6,0.5-3.1,0.7-4.7c0.1-0.8,0.2-1.6,0.3-2.3
								c0.1-0.8,0.1-1.5,0.2-2.3c0-0.8,0.1-1.5,0.1-2.3l0-1.2l0-1.4c-0.7,0.6-1.4,1.2-2.1,1.7c0.1-1.6,0-3.1-0.2-4.5
								c0.2-0.6,0.5-1,0.9-0.9c0.4,0.1,0.7,0.7,0.9,2.4c0.5-0.9,0.1-2.3-0.5-3.3c-0.6-1-1.5-1.8-1.7-1.8c-0.1-3,0.6-2.6,1.3-1.6
								c0.8,1,1.4,2.6,1.3,1.7c-0.2-0.9-0.4-1.7-0.6-2.5l-0.1,0.6c-1.3-1.9-2.2-1.8-3.1-5.4c-0.2-2.3,0.9-1.5,0.8-2.4
								c0.2,0,0.1-0.4-0.4-1.4c-0.2-0.9-0.5-1.8-0.8-2.6c-0.3-0.9-0.6-1.7-0.9-2.6c-0.3,0.9-0.5,1.8-0.8,2.6
								c-1.6-1.9-1.7-4.7-2.6-1.7c0.8-2.2-1-7-3.4-11.2c-2.4-4.3-5.3-7.9-5.7-9.1c-3-1.9-5.1-4.4-7.9-7.4c0.5,1-0.5,2.7-2.8,0.2
								c1.8-1,0.9-2.4-0.5-4.1c-0.7-0.8-1.6-1.6-2.3-2.5c-0.8-0.9-1.4-1.8-1.6-2.8c0.5,1.5-1.6,0.1-3.8-0.9c-1-0.6-2.1-1-2.8-1
								c-0.6,0-0.9,0.3-0.3,1.4c-2.4-1.7,0.6-1.4-1-3.3c-3.6-0.9-7-2.8-10.8-4.4c-0.5-0.2-1-0.4-1.4-0.6c-0.5-0.2-1-0.4-1.5-0.6
								c-1-0.4-2-0.8-3-1.1c-2.1-0.6-4.2-1.2-6.4-1.3c-0.2,0.5,1.1,1.5-0.9,2c-1.4-1.1-2.8-2.1-4.3-3.1c-1.8,0.1-1.8,2.8-4.9,0.9
								c0.4,0.5,1.1,1.1-0.1,1.3c-4.2-0.8-8.6-0.7-12.9-0.2c-4.3,0.6-8.5,1.7-12.7,3c-1,0.3-2.1,0.7-3.1,1c-1,0.3-2,0.7-3.1,1.1
								c-2,0.7-4.1,1.6-6,2.2c-3.9,1.4-7.9,2.5-12.1,3c2.4,0,1.1,0.7-0.4,1.4c1.1-0.2,0.5,1.2,1,1.7l-7,0.9c-0.4,2.3-6.6,3-6.6,5
								l1.8-1.2c-1.8,3.2,5.6,2.9,6.4,5.7c1.9-3.6,9.2,0,12.6-5.4c1.3,0.1-0.5,1.2,0.3,1.6c0.7-1.6,2.1-2.5,5.1-3.2l-0.2,0.4
								c1.9-0.9,3.6-1.6,5.1-2.2c0.7-0.3,1.5-0.5,2.2-0.7c0.7-0.2,1.4-0.4,2.1-0.5C80.6,48,83.7,47.5,88,47l-0.9-1.2
								c1.9-0.2,2.4,0.2,3.3,0.3c0.9-1.2-0.4-1-1.8-0.8c-1.3,0.2-2.7,0.5-2-0.9c1.6,1.1,4.8,0.5,8.1,0.1c1.6-0.2,3.2-0.2,4.5-0.1
								c1.3,0.2,2.3,0.6,2.7,1.4c2.8,0-0.9-1.6,2-1.6l0.7,0.9l0.8-1.1c1.9,0.3,2.8,1.4,2.8,2.2c-0.4-0.1-1.3,0.1-1.8,0.2
								c0.6,0.3,1.3,0.5,2,0.5c0.7,0.1,1.5,0.1,2.3,0.1c1.5,0,2.8,0,3.2,0.2c-0.9-0.3-1.7-0.7-2.6-0.9c3.9,0.1,8.1,1.1,12.2,2.4
								c1,0.3,2,0.6,3,1c1,0.4,2,0.7,2.9,1c1,0.4,1.9,0.7,2.9,1c1,0.3,1.9,0.7,2.8,0.9l-0.2-0.9c1.4,0.4,2.4,0.9,3,1.3
								c0.7,0.4,1.1,0.8,1.6,1.3c0.8,1,1.7,1.9,4.4,3.7l-0.3,0c0.7,0.1,1.4,0.5,2.1,0.9c0.7,0.4,1.4,0.9,2,1.6
								c-1.7-0.6,1.1,3.2-1,2.3c1.3,0.8,2.1,1.4,2.7,1.8c0.6,0.3,0.9,0.5,1.2,0.5c0.6,0.1,1.2,0,3.5,0.9c-0.1,0.5-0.2,1-0.3,1.5
								c1.6,0.6,2.2,0.3,4.3,2.9c-2.3-1.7-0.2,2.6-2.9,0.9c0.9,3.4,2.6,5.2,4,6.8c1.4,1.6,2.4,2.9,1.4,5.1c2,0.8,1.8-0.7,1.2-2.3
								c-0.6-1.6-1.6-3.1-0.9-2.5c0.1-0.9,0.9-0.6,1.8,0.3c0.8,0.8,1.8,2.2,2,3.3c0.4,1-0.1,2.3-0.5,3.9c-0.4,1.6-0.7,3.5,0.1,6.1
								c-0.1-0.5-0.4-0.5-0.5-1c-0.1,2.1,2.2,3.5,1.5,6.2c2.1,1,0.5,3.1,2.9,3.1c-0.4-1.6-1-3.2-1.5-4.8c0.6,1.3,1.7,2.5,2.6,4
								c0.9,1.5,1.5,3.4,1,5.7c-0.5-0.3-1.2-1.6-1.6-2.5c-0.3,0.7-0.1,1.3,0.1,1.9c0.2,0.6,0.3,1.1-0.1,1.9
								c-0.6-0.1-0.9-0.6-1.1-1.1c-0.1-0.2-0.2-0.6-0.2-0.9c-0.1-0.4-0.1-0.8-0.2-1.2c-0.2-1.7-0.6-3.8-1.8-5.1
								c-0.3,0.8,0.3,2.1,0.7,3c0.4,1,0.5,1.6-0.9,1.1c1.7,0.8,1.8,2.1,1.6,3.3c-0.1,0.4-0.1,0.7-0.2,1.1c0,0.4-0.1,0.8-0.1,1.3
								c0,0.9,0.2,1.8,0.8,2.7l-1.4-0.3c0.2,0.6,0.8,1.8,0.7,2.9l-1.7-2c0.7,1.5,0.2,2.9-0.3,4.3c-0.6,1.3-1.3,2.6-1,4.1
								c0.7-5.8,1.8-1.1,3.2-3.5c0.2,1.9,0.1,3.1-0.3,3.9c-0.4,0.8-1,1.3-1.6,1.8c-0.6,0.5-1.3,1-1.9,1.8c-0.6,0.9-1.1,2.1-1.4,4
								c0-1.1,1.8-3.7,2-2c-0.3,0.7-0.7,1.5-1.2,2.3c-0.5,0.7-1,1.3-1.5,1.7c-1.2,5.1,1.6-0.4,1.8,2.1c-1.1,0.6-1.1,1.3-0.9,2.1
								c0.2,0.8,0.6,1.8,0.4,3.1l-1.3-0.5c-3.3,5.2,2.2,2.7-1.3,7.3c-0.2-1-0.5-2-0.7-3l-0.8,2.8l-1.2-1.3c-0.4,3.2-1.2,4-3.2,6.2
								c1.2,0,2,1.8,0.4,4.1c-0.9,0.5-1,0.1-1.2,0c-0.2-0.1-0.3,0-1.5,1.6c-0.1-0.6-0.2-1.3,0-1.8c0.1-0.6,0.6-1.1,1.6-1.3
								c-0.3-0.4-0.2-1.2-0.5-1.6c-1,0.5-1.7,1.4-2.3,2.4c-0.7,0.9-1.2,1.9-1.6,2.4c0.4-0.4,0.8-0.8,1.2-0.9
								c-0.6,1.8-1.4,3.6-2.2,5.4c-1,0.2-0.8-0.5-0.7-1.3c-0.6,0.9-0.8,1.9-1.9,3.1c-0.5-1.1-1.4-2-0.2-3.9c-0.9,1.5-1.8,3-2.9,4.4
								c-0.3-0.1-1,0.1-1.6,0.2c-0.6,0.1-1.2,0.1-1-0.3c-1.3,0.6-2.3,2.1-3.5,3.6c-0.6,0.8-1.3,1.5-2,2.1c-0.7,0.6-1.6,1.2-2.5,1.5
								c-0.1,0.3-0.3,0.7-0.9,1.2c-0.8,0.4-1.7,0.7-2.5,0.9c-0.8,0.3-1.7,0.5-2.5,0.8c-0.9,0.3-1.7,0.6-2.5,1.1
								c-0.9,0.4-1.7,1-2.6,1.8c-1-0.4-2-0.8-3-1.1c-1.5,0.8-0.5,1.1,0.2,1.6c0.7,0.5,1.3,1.1-1.4,2.4c-3.7,1.8-1.9-1.2-3.4-1.4
								c-0.8,0.7-1.9,1.9-3.4,2.7c-0.7,0.4-1.5,0.7-2.4,0.9c-0.9,0.1-1.8,0.1-2.8-0.1C105.2,178.1,106.3,178.2,107.3,177.8z
								 M65.6,176.8c0.9,0,2.7-0.5,3,0.5C67.3,178.6,66.8,177.7,65.6,176.8z M16.4,136.6c0.7,0.4,0.9,1.4,0.8,2.6
								C16.8,138.5,16.5,137.6,16.4,136.6z M100.1,31C100,30.9,100,30.9,100.1,31C100.6,28.9,100.3,29.6,100.1,31z M99.5,35.1
								c0.2,0.4,0.4,0.4,0.6,0.2c-0.4-0.3-0.4-1.2-0.3-2.3C99.4,33.3,99.1,33.9,99.5,35.1z M175.2,88c0,0.3-0.1,0.6-0.1,0.9
								C174.1,87.2,174.6,87.6,175.2,88z"/>
							<path d="M21.5,142.4c-0.1,0.3-0.3,0.5-0.5,0.7C21.4,143.3,21.6,143.2,21.5,142.4z"/>
							<path d="M131.2,168.1c0,0,0.1,0,0.1,0c0-0.1,0-0.2,0-0.3L131.2,168.1z"/>
							<path d="M58.6,28.6c-0.8,0.2-1.3,0.2-1.7,0.1C57,29,57.5,29,58.6,28.6z"/>
							<path d="M101.9,56.8l-0.4-2.6c0.1,1.3-0.2,1.7-0.5,2.4C101.4,56.5,101.9,56,101.9,56.8z"/>
							<path d="M93,79.6c0.2,0.4,0,0.8,0.2,1.2l0.7-0.1C93.9,79,93.3,77.9,93,79.6z"/>
							<path d="M97.1,59.2c-1.2,0.2-0.8,1.9-0.6,3.7c0-0.1,0-0.2,0-0.3C98.2,63.2,97.7,61.2,97.1,59.2z"/>
							<path d="M96.6,63.4c0.1,0.6,0.1,1.1,0,1.7C97.3,65.3,96.8,64.4,96.6,63.4z"/>
							<path d="M100.2,40.3c-0.3,0.9,1.5,0.5,1,1C102.8,42.3,99.4,35.5,100.2,40.3z"/>
							<polygon points="93.2,60.7 94.7,60.1 93.5,59 							"/>
							<path d="M94.3,46.2l-0.4,2.9c0.2,0,0.4,0.3,0.5,0.8C94.4,48.1,94.7,46.1,94.3,46.2z"/>
							<path d="M94.4,49.9c0,0.9,0,1.8,0.2,2.4C94.6,51.8,94.5,50.7,94.4,49.9z"/>
							<polygon points="92.7,56.7 93,55.8 93.2,53.8 							"/>
							<path d="M94.5,13.4L94,10.3c-0.5,0.2-0.7,1.5-0.6,2.5C93.8,13.2,94,14.3,94.5,13.4z"/>
							<path d="M90.5,24.5c0.3-0.7,0.6-0.8,1.1-1.3l-1.8,0.3C90,23.8,90.3,24.1,90.5,24.5z"/>
							<path d="M90.1,17.7c-0.3,0.1-0.6-0.4-0.9-0.4c-0.3-0.1-0.5,0.1-0.4,1.3c0.3-0.1,0.5,0.2,0.7,0.4C89.6,19.1,89.9,19,90.1,17.7
								z"/>
							<polygon points="52,26.5 52.7,26.1 51.1,23.5 							"/>
							<path d="M27.6,59.1c2.5-2.4-1.1-1.7,1.4-3.8c-0.1-1.1-2,1.7-2.1,0.7C26.3,58.2,25.4,58.8,27.6,59.1z"/>
							<path d="M26.9,56c0.1-0.4,0.2-0.7,0.2-1.2C27,55.4,26.9,55.7,26.9,56z"/>
							<polygon points="44.1,49.5 41.6,49.9 43.4,50.2 							"/>
							<path d="M40.6,53.4l-1.3-1.5l-0.7,2.2C39.2,53.8,40.1,53.2,40.6,53.4z"/>
							<path d="M61.2,171.1l-0.3,0.4c0.1,0.6,0.6,0.8,1.5,1.2L61.2,171.1z"/>
							<path d="M89.6,178.1l-0.5-0.1c0.3,0.6,0.6,1.2,1,1.8L89.6,178.1z"/>
							<path d="M113.9,172.3c-1,0.2-2,0.9-3,1.1C112.9,172.6,114.7,174.3,113.9,172.3z"/>
						</g>
					</g>
				</g>
			</g>
		</g>
	</g>
	<g>
		<path d="M144.5,97.4c1.9,1.9,3.2,4,4.1,6.2c0.9,2.2,1.3,5,1.3,8.2c0,1.8-0.2,3.6-0.6,5.4c-0.4,1.8-0.9,3.7-1.6,5.9l-1,3.8
			c-0.1,0.6-0.6,1.3-1.3,1.9c-0.4,0.4-0.7,0.8-0.9,1.1c-0.2,0.3-0.3,0.7-0.3,1.2c0,0.3,0,0.5-0.1,0.5c-2.1,2.9-5.6,4.8-10.3,5.8
			c-4.8,1-9.8,1.5-15.1,1.5l-12-0.9l-9.6-3.3h-0.5c-0.4-0.2-1.1-0.5-2-1c-0.9-0.5-1.8-1-2.5-1.4c-1.1-0.7-2.2-2-3.4-3.9
			c-1.2-1.9-2.2-4-3-6.3c-0.8-2.2-1.2-4-1.2-5.3c0-0.4,0-0.6,0.1-0.8c-0.1,0-0.3-0.1-0.4-0.2c-0.1-0.2-0.2-0.3-0.2-0.4
			c0-0.9,0.2-2.2,0.7-3.7c0.3-1,0.4-1.8,0.5-2.4c0.5-3.5,1.4-6.5,2.7-8.8c1.2-2.4,3-4.5,5.2-6.3c2.3-1.8,5.3-3.7,9.3-5.6l0.3,0.1
			c0.8,0,2.6-0.3,5.5-0.9c3.7-0.7,6.2-1.1,7.4-1.1h2.7l3.7,0.5c1.2,0.2,3.1,0.4,5.8,0.9c2.7,0.4,4.4,0.7,5,0.9
			c0.4,0.1,1,0.3,1.9,0.5c0.8,0.2,1.5,0.6,2.1,1C140,93.2,142.6,95.5,144.5,97.4z M87.5,114.8c-0.4,0.4-0.6,1-0.6,1.8
			c0.9,0,1.6-0.2,2.1-0.7c0.5-0.5,0.7-1,0.7-1.7C88.6,114.2,87.8,114.4,87.5,114.8z M87,110.7l0.6,0.1c0.5,0,1-0.1,1.7-0.3
			c0.7-0.2,1-0.6,1-1c0-0.3-0.3-0.6-0.9-0.9c-0.6-0.3-1.1-0.4-1.5-0.4C87.8,109.4,87.5,110.2,87,110.7z M89.4,117.4
			c-0.4,0.4-0.8,0.8-1.2,1.3l1.2,0.1c0.6,0,1.1-0.1,1.4-0.2c0.3-0.1,0.5-0.4,0.5-0.7c0-0.7-0.2-1-0.7-1
			C90.2,116.9,89.8,117.1,89.4,117.4z M89.3,104.1c1.1,0,2-0.2,2.8-0.5c-0.1-0.2-0.4-0.4-0.9-0.7c-0.5-0.2-0.8-0.3-0.9-0.3
			C89.6,102.5,89.3,103,89.3,104.1z M89.5,106.4c0.1,0.1,0.3,0.1,0.6,0.3c0.3,0.1,0.5,0.2,0.6,0.2c0.3,0,0.5-0.1,0.6-0.4
			c0.1-0.3,0.2-0.5,0.2-0.7C90.3,105.8,89.7,106,89.5,106.4z M91.4,125.6c-0.1-0.1-0.2-0.2-0.3-0.3c-0.1-0.1-0.3-0.2-0.4-0.2
			c-0.2,0.1-0.4,0.1-0.7,0.2c-0.2,0.1-0.4,0.2-0.6,0.3c0.5,0.2,0.7,0.5,0.7,0.9L91.4,125.6z M92.7,122.6v-0.5
			c-0.6,0-1.1,0.2-1.3,0.5H92.7z M92.4,98.3c-0.3,0.4-0.5,0.7-0.5,0.9c1,0,2.1-0.2,3.3-0.5c-0.1-0.2-0.4-0.3-0.9-0.6
			c-0.5-0.2-0.9-0.3-1-0.3C93,97.8,92.7,97.9,92.4,98.3z M92.9,126.3c-0.3,0.2-0.4,0.4-0.4,0.7c1,0,1.5-0.3,1.5-0.8l-0.1-0.3
			C93.5,126,93.1,126.2,92.9,126.3z M96.6,128.9h-3.4c0,0.3,0.3,0.8,0.9,1.5c0.6,0.7,1.1,1,1.3,1C96.2,131.4,96.6,130.6,96.6,128.9z
			 M128,133c2.6-0.5,4.7-1.5,6.3-3c1.6-1.5,3-3.6,4-6.5l0.1-5.9c0-3.5-0.1-6.4-0.3-8.5c-0.2-2.2-0.8-4.4-1.8-6.7
			c-1-2.3-2.7-4.2-4.9-5.7c-0.1,0.1-0.2,0.1-0.4,0.1c-0.3,0-2-0.4-4.9-1.2c-3.6-0.9-5.6-1.4-6.2-1.4c-0.5,0-1,0.1-1.5,0.2
			c-0.5,0.2-0.9,0.3-1,0.3c-0.8,0.4-1.6,0.5-2.4,0.5c-0.4,0-0.8-0.1-1.2-0.3c-0.4-0.2-0.7-0.3-1.1-0.3c-3.5,0-6.7,0.9-9.7,2.7
			c-3,1.8-5.3,4.1-7.1,6.8c-1.7,2.7-2.6,5.3-2.6,7.8c0,0.6,0.2,2.1,0.7,4.6c0.4,2.5,1,4.8,1.6,6.8c0.6,2,1.2,3.1,1.7,3.1l1.3-0.1
			c0.3,0,0.5,0.2,0.7,0.5c0.2,0.3,0.3,0.7,0.3,1c0.1,0.3,0.6,0.7,1.4,1.4c0.8,0.6,1.3,1,1.4,1.2c0.6,0,1.1,0.1,1.3,0.2
			c0.3,0.1,0.5,0.3,0.7,0.5c0.3,0.5,0.8,0.8,1.4,1.1c0.7,0.3,1.4,0.4,2.2,0.5c0.8,0.1,1.3,0.2,1.5,0.2c1.8,0.1,3.1,0.3,3.9,0.7
			l4.1,0.1C122,133.8,125.4,133.5,128,133z M97.4,96.4c-0.5-0.1-1.3-0.1-2.2-0.1c0.5,0.4,1.1,0.7,1.8,1c0.7,0.3,1.1,0.5,1.3,0.5
			c0.2,0,0.5-0.1,0.8-0.4c0.3-0.3,0.5-0.5,0.5-0.6C98.7,96.5,97.9,96.4,97.4,96.4z M98.3,93.3c0.1,0.1,0.2,0.3,0.4,0.6
			c0.2,0.3,0.6,0.6,1.1,0.9c0.5,0.3,1.2,0.5,2,0.5c1,0,1.7-0.3,2.4-1c-0.2-0.1-0.5-0.2-0.8-0.4c-0.3-0.2-0.5-0.4-0.5-0.5
			c0-0.2,0.1-0.3,0.2-0.5c0.1-0.2,0.3-0.3,0.4-0.5c0.4,0,0.9,0.1,1.3,0.3c0.5,0.2,1.1,0.3,1.7,0.3c1,0,1.8-0.1,2.3-0.3
			c0.5-0.2,1-0.8,1.6-1.7c0.1,0.4,0.6,0.6,1.5,0.6c0.9,0,2-0.1,3.4-0.3c1.4-0.2,2.1-0.6,2.1-1.2c0,0.1,0.1,0.2,0.3,0.5
			c0.2,0.3,0.3,0.4,0.4,0.5c-0.1,0-0.1,0-0.1,0.1c0.3-0.1,0.6-0.1,1.1-0.3c0.4-0.1,0.8-0.2,1.2-0.3c0.1,0.2,0.3,0.4,0.8,0.7
			c0.5,0.3,1.1,0.6,1.9,0.9c0.8,0.3,1.7,0.5,2.7,0.5c0.3,0,0.7-0.1,1.1-0.2c0.4-0.1,0.6-0.3,0.8-0.5c0.5,1.1,1.6,2,3.2,2.7
			c1.6,0.7,3.5,1.4,5.7,2.1c0,0.4,0.2,0.8,0.5,1.3c0.3,0.4,0.7,0.7,1.2,0.7c0.5,0,1-0.2,1.5-0.5c0.4-0.3,0.7-0.6,0.7-1
			c0-0.6-0.7-0.9-2-0.9l-6.2-4.8c-1.1-0.8-3.8-1.5-8.1-1.9c-4.3-0.4-7.8-0.6-10.4-0.6c-1.2,0-2.1,0.1-2.8,0.3c-0.7,0.2-1,0.6-1,1.2
			c-0.1-0.2-0.4-0.4-0.8-0.6c-0.4-0.2-0.6-0.3-0.8-0.3c-0.3,0-1.4,0.4-3.3,1.2c-2,0.8-3.3,1.3-4,1.6l1.2,0.8h-3.9V93.3z M99.6,131.7
			h-1.3v0.6C99,132.4,99.4,132.2,99.6,131.7z M108.8,135.4c0.5-0.2,0.7-0.5,0.7-0.8h-0.6c-1.4,0-2.1,0.2-2.3,0.6
			c0.1,0.1,0.2,0.2,0.3,0.3c0.1,0.1,0.3,0.1,0.4,0.2C107.8,135.6,108.3,135.5,108.8,135.4z M121.2,137.1l2.5-0.9h-2.5V137.1z
			 M136.1,134c2.6-1.1,4.7-2.6,6.3-4.5c1.6-1.9,2.4-3.9,2.4-6c-1.2,0-2.1,0.2-2.9,0.6c-0.8,0.4-1.1,1-1.1,1.9h2.1
			c-0.2,0.3-0.6,0.5-1.2,0.6c-0.6,0.2-1.1,0.3-1.5,0.4c-0.4,0.1-0.6,0.4-0.6,0.7c0,0.1,0.7,0.6,2,1.6c-1.5,0.1-2.5,0.1-2.8,0.3
			c-0.4,0.1-0.7,0.4-0.9,0.8c0,0.1-0.1,0.2-0.3,0.6c-0.2,0.3-0.5,0.7-1.1,1.2c-0.9,0.7-2.1,1.4-3.7,2c-1.5,0.6-3.1,1-4.7,1.4
			C130.9,135.6,133.5,135.1,136.1,134z M145.5,102.3c-0.4-1.1-0.9-2.1-1.6-2.9c-0.7-0.9-1.6-1.3-2.5-1.3c-0.4,0-1,0.3-1.8,1
			c-0.8,0.7-1.2,1.2-1.2,1.4c0,0.2,0.2,0.4,0.6,0.6c0.4,0.3,0.8,0.4,1,0.5c0.1,0,0.2,0,0.3-0.1c-0.5,0.6-0.7,1.2-0.7,1.6
			c0.4,0,0.9-0.2,1.4-0.5c0.5-0.3,1.1-0.5,1.5-0.5c-0.1,0.1-0.5,0.4-1.2,0.9c-0.8,0.6-1.1,1-1.1,1.2l0.1,0.1l0.6,0.4h5.1
			C146,104.3,145.8,103.4,145.5,102.3z M140.3,106.7c0.3,0.1,0.5,0.2,0.6,0.2c0.2,0,0.7-0.1,1.4-0.3c0.7-0.2,1.3-0.5,1.8-0.7
			c-0.2,0-0.9,0-2.1,0c-1.2,0-2,0.2-2.4,0.6C139.7,106.4,139.9,106.5,140.3,106.7z M147.1,107c-0.1-0.5-0.3-0.9-0.4-1.2
			c-0.8,0-1.8,0.3-3,0.8c-1.3,0.5-2.4,1.1-3.3,1.6l5,1.2h-4.5c0,0.3,0.1,0.7,0.3,1.1c0.2,0.4,0.4,0.7,0.8,0.7c0.9,0,2-0.3,3.4-0.9
			c1.4-0.6,2.1-1.3,2.1-2C147.3,107.9,147.2,107.5,147.1,107z M146.7,120.3c0.4-1.5,0.7-3.1,0.7-4.6l-0.1-1.2l-6.8,1.2l2.4,1.7
			c-0.3,0-0.8,0.1-1.3,0.2c-0.5,0.2-0.8,0.3-0.8,0.5c0,0.2,0.2,0.3,0.5,0.4c0.3,0.1,0.7,0.2,0.9,0.2c0.3,0,0.8-0.1,1.4-0.2
			c0.7-0.1,1.2-0.2,1.6-0.2c-0.2,0.3-0.9,0.6-2,0.8c-0.7,0.1-1.2,0.2-1.5,0.3c-0.3,0.1-0.5,0.4-0.5,0.7c0,0.3,0.1,0.5,0.4,0.6
			c0.3,0.2,0.4,0.3,0.4,0.4c0,0.2-0.1,0.4-0.4,0.7c-0.3,0.3-0.4,0.6-0.4,0.8c1.2,0,1.8-0.2,2-0.6c0.1,0.1,0.2,0.2,0.3,0.3
			c0.1,0.1,0.3,0.1,0.4,0.2C145.4,122.6,146.3,121.9,146.7,120.3z M145.5,113.6c1.6,0,2.4-0.3,2.4-0.9v-0.4c0-1.1-0.3-1.6-0.8-1.6
			c-0.8,0-1.7,0.3-3,0.8c-1.2,0.5-2.1,1-2.6,1.5c0.5,0.4,1.2,0.6,2.3,0.6h1H145.5z"/>
	</g>
</g>
<g>
	<path d="M272.9,116.1c0,0,0.2,0.4,0.5,1.3c0.4,0.9,0.5,1.7,0.5,2.5c-1.4,0-3.3-0.2-5.5-0.6c-2.2-0.4-3.8-0.7-4.7-0.9
		c-0.6-0.8-1.5-1.5-2.5-2.2c-1-0.7-1.6-1.2-1.8-1.3c-1.8-1.2-3.2-2.4-4.2-3.4c-1-1-1.5-2.3-1.5-3.7c-0.8,0-1.3-0.1-1.4-0.2
		c-0.1-0.2-0.2-0.6-0.2-1.3c-1.4,0-2.6-0.5-3.5-1.5c-0.9-1-1.8-2.5-2.8-4.5c-0.8-1.6-1.5-2.8-2.2-3.7c-1,0-1.8-0.4-2.4-1.1
		c-0.6-0.7-1.1-1.5-1.5-2.5c-0.4-0.9-0.8-1.6-1.1-2.1c-0.4-0.6-1.3-1.5-2.6-2.5c-1.7-1.6-2.8-2.9-3.2-3.9c-0.5-1.2-2-3.4-4.4-6.6
		c-2.4-3.2-4.8-6.1-7.1-8.7c-2.4-2.6-3.9-3.9-4.6-3.9c-0.4,0-0.9,1.5-1.3,4.4c0,3,0.1,6.3,0.4,9.8c0.3,3.6,0.4,5.9,0.5,7.1
		c0.6,6.6,0.9,12.2,0.9,17c0,1.3-0.1,2.7-0.4,4.1c-0.3,1.4-0.4,2.4-0.5,2.8c-0.6,2.7-0.9,4.9-0.9,6.8c0,1.2-0.9,2-2.7,2.3
		c-1.8,0.3-3.9,0.5-6.5,0.5c-0.4,0-0.9-0.1-1.7-0.2c-0.8-0.2-1.5-0.3-2.4-0.5c-0.2-1.2-0.4-2.8-0.5-4.6c-0.2-1.9-0.3-3.4-0.4-4.6
		c0-4.5,0.3-11.4,0.8-20.5c0.6-8.3,0.9-15.6,0.9-21.9c-0.4-1.5-0.9-3.2-1.3-4.9c-0.4-1.7-0.6-3.3-0.6-4.8c0-1.7,0.2-4,0.5-6.9
		c0.4-2.4,0.7-4.8,0.7-7l-0.1-2.6c1.4-0.3,2.7-0.5,3.7-0.6c1-0.1,2.1-0.1,3.3-0.1c1.3,0,2.6,0,3.7,0.1c1.1,0.1,2.5,0.3,4.2,0.6
		c3.1,4.1,4.9,6.5,5.4,7c3.6,4.7,6.4,8.4,8.3,11.1c2,2.8,3.7,5.7,5.2,8.7c0,0.4,1.7,2.6,5,6.7c3.4,4.1,6.7,7.9,10,11.5
		c3.3,3.6,5.4,5.3,6.3,5.3c0.8,0,1.2-5.4,1.2-16.1l-0.1-15.3l-0.8-2.8c0-0.9,0.1-2,0.2-3.2c0.1-1.2,0.2-2.1,0.2-2.6
		c0.3-1.8,0.4-3.7,0.4-5.7c0-1.5,0.6-2.5,1.9-2.9c1.3-0.4,3-0.6,5.1-0.6c1.8,0,3.2,0.1,4.2,0.3c1,0.2,1.5,0.6,1.5,1.3
		c0,0.3-0.1,0.8-0.3,1.4c-0.2,0.6-0.3,1.1-0.3,1.6c0,0.4,0.2,1.1,0.5,2.2c0.3,1.1,0.5,2,0.5,2.6c0,3.4,0.3,7.5,0.9,12.1
		c0.1,0.8,0.3,2.4,0.5,5c0.3,2.6,0.4,5,0.4,7.3c0,3.1-0.3,6.7-0.9,11c-0.5,4.6-0.8,8.1-0.8,10.4v4c0,5.7,0.3,10.3,0.8,14
		C272.9,115.9,272.9,116.1,272.9,116.1z M211.4,110.6c-2.2,0-3.9,0.3-4.9,0.8c-1,0.5-1.5,1.7-1.5,3.4h2.2l4.3-3.4V110.6z M211.4,109
		c0.8-0.2,1.1-0.7,1.1-1.5c0-0.2,0-0.3-0.1-0.6c0-0.2-0.1-0.4-0.2-0.6c-2,1.5-3.7,2.2-5.1,2.2c0.6-0.5,0.9-1.1,0.9-1.8l-0.1-2.2
		c0-0.3,0.4-1.2,1.2-2.8c0.9-1.7,1.3-2.7,1.3-3.1c-2.1,0.2-3.4,0.7-4,1.4c-0.6,0.7-0.9,2-0.9,3.7l-0.1,2.3c0,1,0.2,1.8,0.5,2.4
		c0.4,0.6,1.1,0.9,2.2,0.9C209.5,109.3,210.6,109.2,211.4,109z M205.7,44.8c0,0.2,0.2,0.6,0.7,1.4l2.7-1.4l-1.9-0.8
		C206.1,44,205.7,44.3,205.7,44.8z M208,47.4c-1.6,1.4-2.4,2.6-2.4,3.7c0,0.2,0.1,0.3,0.3,0.5c0.2,0.2,0.3,0.2,0.4,0.2l6.7-6.3
		l-0.8-0.1C211,45.4,209.6,46.1,208,47.4z M219.6,52.6c-0.1-0.2-0.3-0.6-0.6-1.3c-0.3-0.6-0.7-0.9-1-0.9c-1.3,0-3.3,1-6.2,2.9
		c-2.9,1.9-4.9,3.6-6.2,4.9h0.7L219.6,52.6z M207.9,52.8c-1.5,0.7-2.2,1.5-2.2,2.6h0.7l6.7-3.6h-0.8
		C210.8,51.8,209.4,52.1,207.9,52.8z M208.9,59c-1.2,0.5-2,0.9-2.6,1.3v7.1l0.8,0.7c0.9-0.5,2-1.3,3.2-2.4c1.3-1.1,1.9-2,1.9-2.9
		c-0.4-0.5-0.7-1.1-0.9-2c-0.2-0.9-0.3-1.8-0.3-2.7C210.8,58.3,210,58.6,208.9,59z M207.6,92.6c-0.9,0.3-1.3,0.6-1.3,1.1
		c0.1,0.2,0.2,0.5,0.4,0.7c0.2,0.3,0.3,0.5,0.4,0.6l3.4-2.9h-0.9C209.1,92.2,208.5,92.3,207.6,92.6z M211.4,69.5
		c-3,0-4.4,1.1-4.4,3.2c0.5-0.2,1.4-0.6,2.6-1.2c1.2-0.6,1.8-1.1,1.8-1.3V69.5z M208.7,76.7c-1,0.3-1.5,0.9-1.5,1.7
		c0,0.1,0.3,0.9,0.9,2.5c1.3-0.8,2.2-1.5,2.9-2.2c0.7-0.7,1-1.5,1-2.5C210.8,76.3,209.7,76.4,208.7,76.7z M209.5,84.1
		c-0.9,0.2-1.6,0.6-1.9,1.1c-0.3,0.6-0.5,1.5-0.5,2.7l4.3-3.6v-0.7C211.1,83.8,210.4,83.9,209.5,84.1z M210.6,74.5
		c0.7-0.6,1-1.3,1-2.2c-0.9,0-1.7,0.3-2.6,1c-0.8,0.7-1.2,1.4-1.2,2.1C209,75.3,209.9,75.1,210.6,74.5z M212.5,87.2
		c0-0.2,0-0.4-0.1-0.6c0-0.3-0.1-0.5-0.2-0.6c-2.4,1.8-3.8,3.2-4.2,4.2C211,90.1,212.5,89.2,212.5,87.2z M212.8,94
		c-0.2-0.4-0.4-0.8-0.5-1.1c-2.3,1.5-3.5,3.1-3.5,4.7c2.9,0,4.3-0.8,4.3-2.5C213.1,94.8,213,94.4,212.8,94z M212.4,81
		c0-0.5,0-0.8-0.1-1c-0.1-0.2-0.4-0.4-0.8-0.5c-1.3,1.1-2,2.2-2,3.1C211.4,82.6,212.4,82,212.4,81z M212.4,102.9c0.8-1,1.1-2,1.1-3
		c-1.2-0.1-2.2,0.4-3,1.5c-0.8,1.1-1.2,2.1-1.2,3.1C210.7,104.5,211.7,104,212.4,102.9z M213.2,47.3c-0.7,0.8-1.3,1.6-1.7,2.4
		l0.4,0.1c0.1-0.1,0.8-0.4,2-1c1.3-0.6,2.1-1,2.4-1.3c0-0.2-0.1-0.5-0.4-0.9c-0.3-0.4-0.5-0.6-0.7-0.6
		C214.6,46.1,213.9,46.5,213.2,47.3z M226.4,64c0,0.5-0.2,1.1-0.5,2c-0.4,0.9-0.5,1.6-0.5,2.2c3.5,0,5.2-0.3,5.2-1
		c0-1.9-2-5.1-5.9-9.6l-4-3.6c-0.4,0.1-1.9,0.8-4.3,2.2c0.4,0.5,0.8,1.2,1.3,2c0.5,0.8,1,1.3,1.4,1.6c0.4,0.3,1.1,0.4,2,0.4
		c0,1.5,0.2,2.7,0.5,3.4c0.3,0.7,1.1,1.5,2.4,2.5l2.4-2.9L226.4,64z M229.2,71.8c0.8,0,1.4-0.3,1.9-1c0.4-0.7,0.7-1.4,0.7-2.2
		c-1.1,0-2,0.1-2.7,0.2c-0.7,0.1-1.3,0.4-1.9,0.9C228.2,71.1,228.8,71.8,229.2,71.8z M234.7,75.7c0.5-0.2,0.8-0.6,0.8-1.1
		c0-0.6-0.2-1.1-0.7-1.5c-0.4-0.4-1.2-0.8-2.3-1.4c-0.3,0.1-0.7,0.3-1.3,0.6c-0.6,0.3-0.9,0.7-0.9,1.1c0,0.9,0.3,1.6,0.8,2
		c0.5,0.4,1.1,0.6,1.6,0.6C233.5,76,234.2,75.9,234.7,75.7z M237.3,76.4c-1.2,0-2.1,0.1-2.7,0.3c-0.6,0.2-0.9,0.7-0.9,1.5
		c0,0.8,0.6,1.5,1.7,2.1C236.6,79.5,237.3,78.2,237.3,76.4z M241.6,85.4c0.4-0.8,0.5-1.6,0.5-2.3c0-0.9-0.3-1.9-0.9-2.9
		c-0.6-1-1.4-1.5-2.4-1.5c-0.2,0-0.6,0.4-1.1,1.3c-0.6,0.9-1.1,1.4-1.4,1.5c0,0.8,0.2,1.3,0.7,1.5c0.4,0.2,1.1,0.3,2,0.3
		c0.6,0,1.2,0,1.6-0.1c0.4-0.1,0.7-0.1,0.8-0.1c-0.2,0.2-0.7,0.5-1.5,0.7c-0.8,0.3-1.2,0.6-1.2,0.9c0,0.3,0.2,0.7,0.5,1.2
		c0.3,0.5,0.6,0.7,0.9,0.7C240.7,86.7,241.2,86.3,241.6,85.4z M249.9,95.8c0,0,0.4-0.2,1.1-0.5c0.7-0.3,1.1-0.7,1.1-1.3
		c0-0.5-0.4-1-1.2-1.5c-0.8-0.6-1.4-0.9-1.7-1.1c-0.1,0-0.2,0-0.4,0.1l-4.2-7.1c-0.2-0.1-0.3-0.1-0.4-0.1c-0.8,0-1.4,0.4-1.7,1.1
		c-0.3,0.8-0.5,1.6-0.5,2.5c0,1,0.2,1.7,0.7,2.1c0.4,0.4,1.2,0.6,2.3,0.6c0,0.2-0.1,0.5-0.2,0.9c-0.1,0.4-0.2,0.8-0.2,1.1
		c0,0.7,0.4,1,1.2,1c0.3,0,0.6-0.1,1.1-0.2c0.4-0.2,0.8-0.3,1.1-0.6c-0.5,1.4-0.8,2.1-0.8,2.2c0,0.5,0.5,0.7,1.6,0.7
		C249.5,95.8,249.9,95.8,249.9,95.8z M253.9,99.6c0.9-0.3,1.6-0.7,2.2-1c0-0.7,0-1.2-0.1-1.5c-0.1-0.3-0.3-0.5-0.5-0.5
		c-0.2,0-0.4,0-0.7,0.1c-0.3,0.1-0.6,0.1-0.9,0.1v-2c-0.8,0-1.7,0.3-2.8,0.9c-1,0.6-1.5,1.2-1.5,1.8c0.1,0.2,0.2,0.3,0.3,0.5
		c0.1,0.2,0.3,0.4,0.5,0.5c0.3,0,0.6-0.1,0.9-0.3c0.3-0.2,0.6-0.4,0.7-0.5v2.3C252.4,100.1,253,100,253.9,99.6z M267,103.3
		c1.2-2.5,1.7-5.3,1.7-8.3c0-0.9-0.3-1.4-0.9-1.4c-1.3,0-2.4,0.3-3,0.9c-0.7,0.6-1.3,1.4-1.9,2.6c-0.6,1.2-1.3,2.1-2,2.7
		c-0.7,0.6-1.7,0.9-3,0.9l0.1-0.3c0-0.5-0.3-0.8-0.8-1.1c-0.3,0.1-0.9,0.3-2,0.8c-1.1,0.5-1.8,0.9-2.3,1.4l3.2,2.9
		c0.3-0.2,1.5-0.9,3.6-2.2c2.1-1.3,3.9-2,5.4-2c0,0.6-1,2.3-3.1,4.9c-0.9,1.1-1.4,1.8-1.6,2.1C263.6,107.1,265.8,105.9,267,103.3z
		 M259.7,105.6c1.6-1.1,2.4-2.1,2.4-3l-0.1-0.5c-1.6,0.5-3,1.1-4.3,2c-1.3,0.9-1.9,1.9-1.9,3.2C256.8,107.4,258.1,106.8,259.7,105.6
		z M261.9,108.5c-0.9,0.1-1.6,0.2-2.1,0.5c-0.5,0.2-0.7,0.7-0.7,1.4C260.9,110.4,261.9,109.7,261.9,108.5z M261.9,57.5h0.9L267,54
		l-0.8-0.7l1.6-0.7c0.2-0.4,0.4-1.1,0.5-2.1c0.2-1,0.3-1.8,0.3-2.3c0-0.2-0.1-0.5-0.3-0.7c-0.2-0.3-0.4-0.4-0.5-0.5h-5l-0.9,2.8
		c0,0.8,0.2,1.5,0.7,2.4c0.4,0.8,1.1,1.3,1.9,1.5h-2.6V57.5z M261.9,62.7c0.4,0,1.6-1,3.4-3c1.8-2,2.7-3.2,2.7-3.5H267l-5.1,4.1
		V62.7z M262.7,66.2c-0.4,0.7-0.7,1.1-0.8,1.2c0,0.4,0.1,0.9,0.3,1.7c0.2,0.7,0.4,1.1,0.6,1.1h0.9l4-3.4c-0.2-0.5-0.8-0.8-1.7-1.1
		c-1-0.3-1.7-0.4-2.3-0.4C263.5,65.2,263.1,65.6,262.7,66.2z M268.1,81.7c1.1-1.7,1.7-2.9,1.7-3.7c-0.6,0-1.1,0.1-1.5,0.4
		c-0.4,0.3-0.8,0.7-1.2,1.3c-0.8,1.1-1.7,1.8-2.7,1.8v-1.3c1.4-1,2.6-2.1,3.6-3.3c0.9-1.2,1.4-2.5,1.4-3.8h-3.2
		c0.3-0.3,0.7-0.6,1.3-0.9c0.6-0.3,1.1-0.6,1.5-0.9c0.4-0.3,0.6-0.7,0.6-1.3c0-0.2-0.2-0.5-0.5-0.9c-0.4-0.3-0.6-0.5-0.8-0.5
		c-1,0-2,0.5-3.2,1.5c-1.1,1-1.7,2-1.7,2.8h0.9l0.1,0.6c-0.1,0.2-0.6,0.7-1.6,1.5c-0.6,1.5-0.9,3.9-0.9,7.3c0,0.9,0.1,1.5,0.3,1.8
		c0.2,0.3,0.4,0.5,0.8,0.7c0.4,0.2,0.6,0.5,0.8,0.9c0.1,0.2,0,0.4-0.3,0.7c-0.3,0.3-0.5,0.5-0.7,0.5h5.8v-2.9
		c-0.4,0-0.9,0.1-1.5,0.3c-0.7,0.2-1.2,0.4-1.7,0.6C266.1,84.5,267,83.3,268.1,81.7z M265.4,91.5c0.5-0.3,1.1-0.8,1.7-1.4
		c0.6-0.6,0.9-1.1,0.9-1.3h-5.1v5.7c1,0,2.1-0.3,3.2-0.9c1.2-0.6,2-1.3,2.6-2.1H265.4z M266.4,109.8c1-0.6,1.5-1.5,1.5-2.6H267
		l-4.2,3.6C264.2,110.7,265.5,110.4,266.4,109.8z M267.8,111.4l-4,1.5v1.4l3.2,0.6h0.1c0.4,0,0.7-0.8,0.7-2.4V111.4z M267,59.6
		c-1.7,1.8-2.6,3.1-2.6,4c0,0.8,1.2,1.1,3.6,1.1C268.1,61.3,267.7,59.6,267,59.6z"/>
	<path d="M312.7,53.5c0-0.7-1.3-1.1-3.9-1.4c-2.6-0.2-5.2-0.3-7.9-0.3l-6.6,0.1c-5.2,0-7.8-0.4-7.8-1.3c0-1,0.4-2,1.2-3.1
		c0.4-0.5,0.7-1.1,1-1.8c0.3-0.6,0.5-1.4,0.5-2.1c0.1-0.1,0.4-0.4,0.8-0.9c0.4-0.5,2.3-0.8,5.6-0.8v1c5.3,0,9.9,0,13.9,0.1
		c3.9,0.1,7.3,0.2,10,0.2c10.8,0.3,18.8,0.5,24.1,0.5c3.5,0,6.1,0,7.9-0.1c1.1,0.3,1.6,1.4,1.6,3.2V48c0,1.5-0.3,2.6-0.8,3.3
		l-10.9,0.8c-1.7,0.1-4.2,0.4-7.4,1c-3,0.6-5.6,1-7.5,1c-0.6,2-0.9,5-0.9,9c0,3.4,0.2,8.6,0.5,15.5c0.4,6.7,0.5,11.9,0.5,15.5
		c0,1.8-0.1,5.9-0.4,12.1c-0.3,2.5-0.4,5.3-0.4,8.3c0,0.2,0,0.8-0.1,1.7c-0.1,0.9-0.4,1.5-0.9,2c-0.5,0.4-1.3,0.6-2.4,0.6
		c-0.4,0-0.9-0.1-1.5-0.4c-0.6-0.3-1.1-0.4-1.5-0.4c-0.3,0.2-0.8,0.3-1.5,0.5c-0.8,0.2-1.5,0.2-2.1,0.2c-0.4,0-1-0.3-1.9-0.9
		c-0.9-0.6-1.4-1-1.4-1.1l0.4-58.8V53.5z M298.4,48c1.4-0.2,2.4-0.7,3.2-1.6c-0.4,0-1.7-0.2-4-0.7c-2.2-0.5-3.7-0.8-4.3-0.8v3.3
		C295.3,48.3,297,48.2,298.4,48z M304.7,46.4c-1.4,0.4-2.4,0.9-3.2,1.3l5,0.1c2.9,0,4.3-0.3,4.3-1c0-0.7-0.9-1-2.7-1
		C307.2,45.7,306.1,45.9,304.7,46.4z M314,48.6c1.2,0,2-0.1,2.5-0.4c0.5-0.3,1-0.9,1.5-1.8l-2.2-0.2c-0.9,0-1.7,0.1-2.3,0.2
		c-0.6,0.2-1.1,0.6-1.3,1.3C312.5,48.3,313.1,48.6,314,48.6z M315.7,103.3c0.6,0.5,1,0.7,1.1,0.7c0-1.1,0.8-2.2,2.3-3.2
		c0.2-0.2,0.6-0.5,1.1-1c0.6-0.5,1-1.1,1.1-1.8H321c-0.9,0-2.2,0.4-3.8,1.2c-1.6,0.8-2.4,1.7-2.4,2.8
		C314.9,102.4,315.1,102.8,315.7,103.3z M315.5,78.7c0,1.1,0.3,1.6,0.9,1.7c1.6-1.2,3-2.6,4-4.2c0-0.2-0.1-0.3-0.2-0.4
		c-0.1-0.1-0.2-0.2-0.3-0.3c-1.5,0-2.6,0.2-3.4,0.6c-0.7,0.4-1.1,1.2-1.1,2.2V78.7z M315.7,88.4c0.1,0.2,0.4,0.4,0.8,0.5
		c0.9-0.7,1.8-1.5,2.8-2.4c1-0.9,1.7-1.7,2.2-2.6c-1.4,0-2.8,0.3-4,1c-1.3,0.7-1.9,1.5-1.9,2.6C315.5,87.9,315.6,88.2,315.7,88.4z
		 M317,113.7c0.5,0,1.5-1,2.8-3c1.3-2,2-3.4,2-4.1h-1.3v-2l-4,1.3l-0.8,7.2C316.1,113.5,316.6,113.7,317,113.7z M317.5,56.3
		c-0.4,0.7-0.7,1.4-1,2.1c0.7,0,1.6-0.5,2.6-1.6c1-1.1,1.5-2.1,1.5-3.1c0-0.2-0.2-0.3-0.6-0.6c-0.4-0.2-0.8-0.3-1.1-0.3
		c0-2,0.3-3.3,0.8-4c0.5-0.7,0.8-1.1,0.8-1.1v2.5c1,0,2.1-0.5,3.4-1.4c1.3-0.9,1.9-1.8,1.9-2.8c-2.5,0-4.6,0.3-6.1,0.9
		c-1.6,0.6-2.4,1.7-2.4,3.5c0,1.1,0.1,2.1,0.4,2.8c0.3,0.7,0.4,1.3,0.4,1.7C318.1,55.1,317.9,55.6,317.5,56.3z M316.9,69.6
		c-0.3,0.7-0.4,1.7-0.4,3c1.7-1.2,2.6-2.4,2.6-3.4l-0.1-0.7C317.8,68.5,317.1,68.9,316.9,69.6z M320.5,91.3c0.8-0.7,1.2-1.7,1.2-3.1
		c0-0.3,0-0.7-0.1-1.1c0-0.5-0.1-0.8-0.2-1l-5,5.6v1.5C318.3,92.6,319.7,92,320.5,91.3z M316.5,96c0.3,0,0.5-0.2,0.7-0.5
		c0.2-0.3,0.3-0.5,0.3-0.6l-0.1-0.5C316.7,94.7,316.5,95.2,316.5,96z M318.3,80.5c-0.7,1-1,2-1,2.9c1.1,0,2.1-0.2,3-0.5
		c0.9-0.3,1.3-0.9,1.3-1.7c0-1-0.4-2-1.1-2.9C319.7,78.8,319,79.5,318.3,80.5z M322.3,96l0.1-0.9v-0.3c0-0.9-0.3-1.5-0.9-1.6
		l-4.2,4.9L322.3,96z M319.3,64.1c-0.5,1-0.9,1.9-1.2,2.7l0.8,0.2c1.2,0,1.7-0.9,1.7-2.8l-0.1-2.4C320.2,62.4,319.8,63.1,319.3,64.1
		z M318.1,73.4h1.9v-2.9L318.1,73.4z M318.1,115.1c0.7-0.2,1.3-0.4,1.8-0.7c0.5-0.3,0.7-0.7,0.7-1.2l-0.1-0.8
		C319.2,113.5,318.3,114.4,318.1,115.1z M319.8,101.4c-0.7,0.6-1.1,1.2-1.1,1.8c1.2,0,2-0.2,2.5-0.6c0.5-0.4,0.8-1.2,1-2.4l-0.4-0.1
		C321.2,100.4,320.5,100.8,319.8,101.4z M320.5,57c-0.1,0.4-0.4,0.9-0.9,1.5c-0.5,0.7-0.7,1.1-0.7,1.3c1.5-0.5,2.5-1.2,2.8-2.4
		c0.4-1.1,0.5-2.2,0.5-3.3c0-1.1,0-1.8,0-2.1L320.5,57z M320,108.6h-1.1l1.1-0.6V108.6z M327.2,48.6h0.8v-1.4h-0.8V48.6z
		 M335.6,48.6c0.1,0,0.2-0.1,0.5-0.4c0.2-0.3,0.4-0.5,0.5-0.7c0-0.8-1.1-1.1-3.4-1.1l-3.4,0.1v2.2H335.6z M348.5,47.7
		c0-0.5-0.3-0.9-0.9-1c-0.6-0.2-1.6-0.2-3-0.2c-0.4,0-1.4,0.1-3.2,0.3c-1.7,0.2-2.8,0.4-3.3,0.5l0.7,0.5H348.5z"/>
	<path d="M372.8,118.3c-1.4-0.4-2.3-1-2.7-1.8c0-2.3,0-4.3,0.1-6.1c0.1-1.8,0.2-3.2,0.3-4.4c0.3-3.6,0.4-7.1,0.4-10.4v-4.7
		c0-3.7-0.1-6.9-0.3-9.6c-0.2-2.8-0.7-5.4-1.4-8V42.7h16.7c1.2,0.4,2.2,0.6,3.2,0.7c1,0.1,2.4,0.1,4.3,0.1c1.1,0,1.9-0.3,2.4-0.8
		c3.9,0,8.2-0.2,13-0.5l4.4-0.2c1.2,0,4.7,0.2,10.6,0.7c0.2,0.2,0.4,0.4,0.6,0.7c0.2,0.3,0.4,0.6,0.5,0.8c0,1.3-0.2,2.5-0.7,3.4
		c-0.4,1.1-0.5,2.1-0.5,3l0.1,1.3l-3.2,0.7c-3.8-0.2-7.6-0.3-11.4-0.3c-10,0-18.8,0.8-26.6,2.5c-0.4,0.8-0.7,1.6-0.9,2.2
		c-0.1,0.6-0.2,1.4-0.2,2.3c0,0.8,0.2,2,0.5,3.6c0.4,1.7,0.5,2.9,0.5,3.7l-0.9,6.7l1.6,1.4l4.3,0.2c2.1,0,4.4-0.2,7.1-0.6
		c1-0.2,1.9-0.3,2.7-0.3c0.6,0.5,1,0.8,1.2,0.8h-0.1l0.3,0.1c0.7,0,1.1-0.4,1.1-1.1h15.1c0.7,0.8,1.3,1.6,1.6,2.4l1.6-0.7
		c-0.4,0.3-0.6,0.7-0.7,1.2c-0.1,0.5-0.1,1.1-0.1,1.8c0,2.8,0,4.4,0.1,4.8l-1.7,1.3c-7.3,0-16.5,0.3-27.8,0.8l-3.8,0.1l-1.3-0.1
		c-0.7,0-1.1,0.2-1.1,0.7v21.4l0.9,1.3c0.1,0.2,1.8,0.3,5,0.5c3.3,0.2,6.1,0.3,8.5,0.3c1.1,0,3.1-0.3,6.2-0.9
		c3.4-0.8,5.9-1.1,7.4-1.1c1.2,0,2.6,0.1,4.2,0.3c1.6,0.2,2.5,0.3,2.6,0.4l0.9,0.6c0.1-0.5,0.6-0.7,1.5-0.7l1.7,0.1l-1.5,0.6
		l1.9-0.1h0.8c0.5,0,1,0.1,1.3,0.2c0.3,0.1,0.6,0.4,0.7,0.7c0.3-0.1,0.6-0.2,0.9-0.4c0.3-0.2,0.6-0.3,0.9-0.4
		c0.8,0.5,1.3,1.1,1.5,1.8c0.2,0.7,0.3,1.7,0.3,2.9c0,3.8-0.6,6.2-1.9,7.3l-3.6,0.1c-2.3,0-4.2-0.1-5.5-0.3s-3-0.7-5-1.5h-34.7
		C375.6,118.8,374.2,118.7,372.8,118.3z M375.9,51.2c0.7,0,2.7-0.6,5.8-1.8c3.2-1.2,4.8-2,4.9-2.4c-1.4-0.5-3.7-0.8-6.7-0.8
		c-4.3,0-6.5,0-6.5,0.1l-0.9,3.4c0.9,0,2.3-0.5,4.3-1.4l-1.9,2.9H375.9z M374.3,53.2c-0.7,0.4-1.1,1-1.1,1.7c0.8,0,1.6-0.2,2.4-0.7
		c0.8-0.5,1.4-1,1.8-1.6h-0.5C375.9,52.6,375,52.8,374.3,53.2z M375.4,59.4c-0.6,0.2-1.1,0.5-1.5,0.7c-0.4,0.3-0.5,0.7-0.5,1.3
		l0.1,1c1.5-1.1,2.6-2,3.2-2.8c0.6-0.8,0.9-1.8,0.9-3.2l-0.1-1.7c-0.5,0.5-1.3,1-2.4,1.6c-1,0.6-1.5,1-1.5,1.1
		c0,0.6,0.7,0.9,2.2,0.9l1.2-0.1C376.5,58.8,376,59.2,375.4,59.4z M374.4,67.1c-0.6,0.2-0.9,0.3-0.9,0.3V72c0.9,0,2-0.5,3.2-1.5
		c1.3-1,1.9-2,1.9-2.9c0-0.2-0.3-0.3-0.9-0.5c-0.6-0.2-1.2-0.3-1.7-0.3C375.5,66.8,374.9,66.9,374.4,67.1z M374.4,79.1
		c0.3,0.6,0.4,1,0.5,1.3l4.3-3.7v-0.9c-1.4,0-2.7,0.1-3.7,0.2c-1,0.2-1.5,0.6-1.5,1.3C374,77.9,374.2,78.5,374.4,79.1z M374.2,65.4
		c1.6,0,2.7-0.1,3.3-0.2c0.6-0.2,0.9-0.4,1.1-0.9c0.1-0.4,0.2-1.3,0.2-2.6C377.2,61.7,375.7,62.9,374.2,65.4z M374.6,101.5
		c0,0.4,0,0.7,0.1,0.9c0,0.2,0.1,0.4,0.1,0.5h1.2c0.2,0,0.5-0.4,0.9-1.2c0.4-0.8,0.6-1.4,0.6-1.8c0-0.4-0.1-0.8-0.3-1.3
		c-0.2-0.5-0.4-0.7-0.5-0.7l-0.1,0.1C375.2,98,374.6,99.1,374.6,101.5z M376.2,72.5c-0.9,0.6-1.4,1.3-1.4,2.1c3,0,4.4-1,4.4-3
		C378.2,71.7,377.2,72,376.2,72.5z M376,86.2c-0.8,0.5-1.2,1.2-1.2,2c1.1,0,1.8-0.1,2.2-0.4c0.4-0.3,0.5-0.8,0.5-1.7l-0.1-0.8
		C377.3,85.4,376.8,85.7,376,86.2z M375,84c0.7,0,1.4-0.1,2-0.4c0.6-0.3,0.9-0.7,0.9-1.3C375.9,82.2,375,82.8,375,84z M375.4,91.6
		c0.2,0.3,0.4,0.5,0.5,0.7c0.7-0.2,1.1-1,1.1-2.3c-0.4,0-0.8,0.1-1.3,0.2c-0.5,0.1-0.7,0.4-0.7,0.7
		C375.1,91.1,375.2,91.3,375.4,91.6z M376.5,108.7c0.3-0.5,0.5-1,0.5-1.5h-2v2.2C375.7,109.4,376.2,109.2,376.5,108.7z M375.4,114.6
		c0.3,0.2,0.4,0.4,0.5,0.5c0.2-0.2,0.8-0.7,2-1.7c1.1-1,1.7-1.6,1.7-2h-2.2v-1.3c-0.5,0.2-1.1,0.8-1.5,1.8c-0.5,1-0.8,1.5-0.9,1.6
		v0.2C375,114.1,375.1,114.4,375.4,114.6z M375.8,94.5c-0.2,0.6-0.3,1.4-0.3,2.5c1.3,0,2-1.1,2-3.3
		C376.6,93.6,376.1,93.9,375.8,94.5z M378.3,115.1c1.1,0,1.9-0.1,2.4-0.4c0.5-0.3,1.1-0.9,1.9-1.8
		C381.1,113.4,379.7,114.1,378.3,115.1z M387.6,80.9c1.3-0.5,1.9-1.2,1.9-2h-9.4c-0.6,0-0.9,0.5-0.9,1.5h5v1.3
		C385.2,81.7,386.3,81.4,387.6,80.9z M385.2,114.5c-0.5,0.2-0.8,0.3-1.1,0.6l0.9,0.1c0.8,0,1.3-0.3,1.6-0.9h-0.4
		C386,114.3,385.6,114.3,385.2,114.5z M388.8,49.3c-0.3,0.5-0.5,0.8-0.5,0.9c0,0.2,0.1,0.2,0.4,0.2c1,0,1.5-0.4,1.5-1.3l-0.1-0.8
		C389.5,48.5,389.1,48.8,388.8,49.3z M391.8,79.2c-1.4,0.9-2.1,1.9-2.1,3.2c1.4,0,3-0.4,4.8-1.3c1.7-0.9,3-1.9,3.7-2.9l-1.9-0.1
		C394.7,77.9,393.2,78.3,391.8,79.2z M392.4,113.3c-1.1,0.4-1.9,1-2.4,1.7l2.4,0.1c1.4,0,2.5-0.1,3.3-0.4c0.8-0.3,1.3-0.9,1.7-1.9
		l-1.6-0.1C394.6,112.8,393.5,113,392.4,113.3z M394.1,47h0.9v-0.7L394.1,47z M400.8,81.7c0.3,0,0.5-0.5,0.7-1.4
		c0.2-0.9,0.3-1.6,0.3-2.2h-0.9l-4.2,3.6H400.8z M402.4,113.5c-0.6,0.5-1.2,1-1.6,1.5c0.4,0,0.9-0.2,1.6-0.7c0.7-0.5,1.3-1,1.6-1.5
		l-0.4-0.1C403.4,112.8,403,113,402.4,113.5z M408.2,78.7c-0.8,0.7-1.3,1.4-1.7,2.1h6.7c-1-1-1.8-2.1-2.6-3.4
		C409.8,77.6,409,78.1,408.2,78.7z M407.3,111.5c-0.3,0.1-0.6,0.3-0.7,0.6h0.3c1.3,0,2.1-0.2,2.3-0.7h-0.8
		C408,111.4,407.6,111.4,407.3,111.5z M409.6,114.1c0.6-0.1,1.2-0.5,2-1.2v1.4l6.6-2.2h-8.3l-3.2,2.2
		C408,114.3,409,114.2,409.6,114.1z M409.7,46.3c0,0.6,0.2,1,0.5,1.2c0.4,0.2,0.9,0.3,1.6,0.3c1,0,1.9-0.2,2.8-0.6
		c0.9-0.4,1.3-1,1.3-1.7h-6.1C409.7,45.7,409.7,46,409.7,46.3z M415.8,114.1c-1.1,0.4-1.7,0.7-1.7,0.9v1.1c1,0,2-0.2,2.9-0.7
		c0.9-0.5,1.7-1.1,2.2-1.9h-1.1C417.7,113.6,416.9,113.8,415.8,114.1z M422.7,115.7c0.4-0.9,0.7-2.1,0.7-3.7h-3.6v5.1
		C421.3,117.1,422.3,116.7,422.7,115.7z"/>
	<path d="M514.3,116.1c0,0,0.2,0.4,0.5,1.3c0.4,0.9,0.5,1.7,0.5,2.5c-1.4,0-3.3-0.2-5.5-0.6c-2.2-0.4-3.8-0.7-4.7-0.9
		c-0.6-0.8-1.5-1.5-2.5-2.2c-1-0.7-1.6-1.2-1.8-1.3c-1.8-1.2-3.2-2.4-4.2-3.4c-1-1-1.5-2.3-1.5-3.7c-0.8,0-1.3-0.1-1.4-0.2
		c-0.1-0.2-0.2-0.6-0.2-1.3c-1.4,0-2.6-0.5-3.5-1.5c-0.9-1-1.8-2.5-2.8-4.5c-0.8-1.6-1.5-2.8-2.2-3.7c-1,0-1.8-0.4-2.4-1.1
		c-0.6-0.7-1.1-1.5-1.5-2.5c-0.5-0.9-0.8-1.6-1.1-2.1c-0.4-0.6-1.3-1.5-2.6-2.5c-1.7-1.6-2.8-2.9-3.2-3.9c-0.5-1.2-2-3.4-4.4-6.6
		c-2.4-3.2-4.8-6.1-7.1-8.7c-2.4-2.6-3.9-3.9-4.6-3.9c-0.5,0-0.9,1.5-1.3,4.4c0,3,0.1,6.3,0.4,9.8c0.3,3.6,0.4,5.9,0.5,7.1
		c0.6,6.6,0.9,12.2,0.9,17c0,1.3-0.1,2.7-0.4,4.1c-0.3,1.4-0.5,2.4-0.5,2.8c-0.6,2.7-0.9,4.9-0.9,6.8c0,1.2-0.9,2-2.7,2.3
		c-1.8,0.3-3.9,0.5-6.5,0.5c-0.4,0-0.9-0.1-1.7-0.2c-0.8-0.2-1.5-0.3-2.4-0.5c-0.2-1.2-0.4-2.8-0.5-4.6c-0.2-1.9-0.3-3.4-0.4-4.6
		c0-4.5,0.3-11.4,0.8-20.5c0.6-8.3,0.9-15.6,0.9-21.9c-0.5-1.5-0.9-3.2-1.3-4.9c-0.4-1.7-0.6-3.3-0.6-4.8c0-1.7,0.2-4,0.5-6.9
		c0.4-2.4,0.7-4.8,0.7-7l-0.1-2.6c1.4-0.3,2.7-0.5,3.7-0.6c1-0.1,2.1-0.1,3.3-0.1c1.3,0,2.6,0,3.7,0.1c1.1,0.1,2.5,0.3,4.2,0.6
		c3.1,4.1,4.9,6.5,5.4,7c3.6,4.7,6.4,8.4,8.3,11.1c2,2.8,3.7,5.7,5.2,8.7c0,0.4,1.7,2.6,5,6.7c3.4,4.1,6.7,7.9,10,11.5
		c3.3,3.6,5.4,5.3,6.3,5.3c0.8,0,1.2-5.4,1.2-16.1L500,60.3l-0.8-2.8c0-0.9,0.1-2,0.2-3.2c0.1-1.2,0.2-2.1,0.2-2.6
		c0.3-1.8,0.4-3.7,0.4-5.7c0-1.5,0.6-2.5,1.9-2.9c1.3-0.4,3-0.6,5.1-0.6c1.8,0,3.2,0.1,4.2,0.3c1,0.2,1.5,0.6,1.5,1.3
		c0,0.3-0.1,0.8-0.3,1.4c-0.2,0.6-0.3,1.1-0.3,1.6c0,0.4,0.2,1.1,0.5,2.2c0.3,1.1,0.5,2,0.5,2.6c0,3.4,0.3,7.5,0.9,12.1
		c0.1,0.8,0.3,2.4,0.5,5c0.3,2.6,0.4,5,0.4,7.3c0,3.1-0.3,6.7-0.9,11c-0.5,4.6-0.8,8.1-0.8,10.4v4c0,5.7,0.3,10.3,0.8,14
		C514.2,115.9,514.3,116.1,514.3,116.1z M452.8,110.6c-2.2,0-3.9,0.3-4.9,0.8c-1,0.5-1.5,1.7-1.5,3.4h2.2l4.3-3.4V110.6z M452.8,109
		c0.8-0.2,1.1-0.7,1.1-1.5c0-0.2,0-0.3-0.1-0.6c0-0.2-0.1-0.4-0.2-0.6c-2,1.5-3.7,2.2-5.1,2.2c0.6-0.5,0.9-1.1,0.9-1.8l-0.1-2.2
		c0-0.3,0.4-1.2,1.2-2.8c0.9-1.7,1.3-2.7,1.3-3.1c-2.1,0.2-3.4,0.7-4,1.4c-0.6,0.7-0.9,2-0.9,3.7l-0.1,2.3c0,1,0.2,1.8,0.5,2.4
		c0.4,0.6,1.1,0.9,2.2,0.9C450.9,109.3,452,109.2,452.8,109z M447,44.8c0,0.2,0.2,0.6,0.7,1.4l2.7-1.4l-1.9-0.8
		C447.5,44,447,44.3,447,44.8z M449.4,47.4c-1.6,1.4-2.4,2.6-2.4,3.7c0,0.2,0.1,0.3,0.3,0.5c0.2,0.2,0.3,0.2,0.4,0.2l6.7-6.3
		l-0.8-0.1C452.4,45.4,451,46.1,449.4,47.4z M461,52.6c-0.1-0.2-0.3-0.6-0.6-1.3c-0.3-0.6-0.7-0.9-1-0.9c-1.3,0-3.3,1-6.2,2.9
		c-2.9,1.9-4.9,3.6-6.2,4.9h0.7L461,52.6z M449.3,52.8c-1.5,0.7-2.2,1.5-2.2,2.6h0.7l6.7-3.6h-0.8C452.2,51.8,450.7,52.1,449.3,52.8
		z M450.3,59c-1.2,0.5-2,0.9-2.6,1.3v7.1l0.8,0.7c0.9-0.5,2-1.3,3.2-2.4c1.3-1.1,1.9-2,1.9-2.9c-0.4-0.5-0.7-1.1-0.9-2
		c-0.2-0.9-0.3-1.8-0.3-2.7C452.2,58.3,451.4,58.6,450.3,59z M449,92.6c-0.9,0.3-1.3,0.6-1.3,1.1c0.1,0.2,0.2,0.5,0.4,0.7
		c0.2,0.3,0.3,0.5,0.4,0.6l3.4-2.9h-0.9C450.5,92.2,449.8,92.3,449,92.6z M452.8,69.5c-3,0-4.4,1.1-4.4,3.2c0.5-0.2,1.4-0.6,2.6-1.2
		c1.2-0.6,1.8-1.1,1.8-1.3V69.5z M450.1,76.7c-1,0.3-1.5,0.9-1.5,1.7c0,0.1,0.3,0.9,0.9,2.5c1.3-0.8,2.2-1.5,2.9-2.2
		c0.7-0.7,1-1.5,1-2.5C452.2,76.3,451.1,76.4,450.1,76.7z M450.9,84.1c-0.9,0.2-1.6,0.6-1.9,1.1c-0.3,0.6-0.5,1.5-0.5,2.7l4.3-3.6
		v-0.7C452.5,83.8,451.8,83.9,450.9,84.1z M452,74.5c0.7-0.6,1-1.3,1-2.2c-0.9,0-1.7,0.3-2.6,1c-0.8,0.7-1.2,1.4-1.2,2.1
		C450.4,75.3,451.3,75.1,452,74.5z M453.9,87.2c0-0.2,0-0.4-0.1-0.6c0-0.3-0.1-0.5-0.2-0.6c-2.4,1.8-3.8,3.2-4.2,4.2
		C452.4,90.1,453.9,89.2,453.9,87.2z M454.2,94c-0.2-0.4-0.4-0.8-0.5-1.1c-2.3,1.5-3.5,3.1-3.5,4.7c2.9,0,4.3-0.8,4.3-2.5
		C454.4,94.8,454.4,94.4,454.2,94z M453.8,81c0-0.5,0-0.8-0.1-1c-0.1-0.2-0.4-0.4-0.8-0.5c-1.3,1.1-2,2.2-2,3.1
		C452.8,82.6,453.8,82,453.8,81z M453.8,102.9c0.8-1,1.1-2,1.1-3c-1.2-0.1-2.2,0.4-3,1.5c-0.8,1.1-1.2,2.1-1.2,3.1
		C452.1,104.5,453.1,104,453.8,102.9z M454.6,47.3c-0.7,0.8-1.3,1.6-1.7,2.4l0.4,0.1c0.1-0.1,0.8-0.4,2-1c1.3-0.6,2.1-1,2.4-1.3
		c0-0.2-0.1-0.5-0.4-0.9c-0.3-0.4-0.5-0.6-0.7-0.6C456,46.1,455.3,46.5,454.6,47.3z M467.8,64c0,0.5-0.2,1.1-0.5,2
		c-0.4,0.9-0.5,1.6-0.5,2.2c3.5,0,5.2-0.3,5.2-1c0-1.9-2-5.1-5.9-9.6l-4-3.6c-0.5,0.1-1.9,0.8-4.3,2.2c0.4,0.5,0.8,1.2,1.3,2
		c0.5,0.8,1,1.3,1.4,1.6c0.4,0.3,1.1,0.4,2,0.4c0,1.5,0.2,2.7,0.5,3.4c0.3,0.7,1.1,1.5,2.4,2.5l2.4-2.9L467.8,64z M470.6,71.8
		c0.8,0,1.4-0.3,1.9-1c0.4-0.7,0.7-1.4,0.7-2.2c-1.1,0-2,0.1-2.7,0.2c-0.7,0.1-1.3,0.4-1.9,0.9C469.5,71.1,470.2,71.8,470.6,71.8z
		 M476.1,75.7c0.5-0.2,0.8-0.6,0.8-1.1c0-0.6-0.2-1.1-0.7-1.5c-0.5-0.4-1.2-0.8-2.3-1.4c-0.3,0.1-0.7,0.3-1.3,0.6
		c-0.6,0.3-0.9,0.7-0.9,1.1c0,0.9,0.3,1.6,0.8,2c0.5,0.4,1.1,0.6,1.6,0.6C474.9,76,475.6,75.9,476.1,75.7z M478.6,76.4
		c-1.2,0-2.1,0.1-2.7,0.3c-0.6,0.2-0.9,0.7-0.9,1.5c0,0.8,0.6,1.5,1.7,2.1C478,79.5,478.6,78.2,478.6,76.4z M483,85.4
		c0.4-0.8,0.5-1.6,0.5-2.3c0-0.9-0.3-1.9-0.9-2.9c-0.6-1-1.4-1.5-2.4-1.5c-0.2,0-0.6,0.4-1.1,1.3c-0.6,0.9-1.1,1.4-1.4,1.5
		c0,0.8,0.2,1.3,0.7,1.5c0.4,0.2,1.1,0.3,2,0.3c0.6,0,1.2,0,1.6-0.1c0.4-0.1,0.7-0.1,0.8-0.1c-0.2,0.2-0.7,0.5-1.5,0.7
		c-0.8,0.3-1.2,0.6-1.2,0.9c0,0.3,0.2,0.7,0.5,1.2c0.3,0.5,0.6,0.7,0.9,0.7C482.1,86.7,482.6,86.3,483,85.4z M491.3,95.8
		c0,0,0.4-0.2,1.1-0.5c0.7-0.3,1.1-0.7,1.1-1.3c0-0.5-0.4-1-1.2-1.5c-0.8-0.6-1.4-0.9-1.7-1.1c-0.1,0-0.2,0-0.4,0.1l-4.2-7.1
		c-0.2-0.1-0.3-0.1-0.4-0.1c-0.8,0-1.4,0.4-1.7,1.1c-0.3,0.8-0.5,1.6-0.5,2.5c0,1,0.2,1.7,0.7,2.1c0.4,0.4,1.2,0.6,2.3,0.6
		c0,0.2-0.1,0.5-0.2,0.9c-0.1,0.4-0.2,0.8-0.2,1.1c0,0.7,0.4,1,1.2,1c0.3,0,0.6-0.1,1.1-0.2c0.4-0.2,0.8-0.3,1.1-0.6
		c-0.5,1.4-0.8,2.1-0.8,2.2c0,0.5,0.5,0.7,1.6,0.7C490.9,95.8,491.3,95.8,491.3,95.8z M495.3,99.6c0.9-0.3,1.6-0.7,2.2-1
		c0-0.7,0-1.2-0.1-1.5c-0.1-0.3-0.3-0.5-0.5-0.5c-0.2,0-0.4,0-0.7,0.1c-0.3,0.1-0.6,0.1-0.9,0.1v-2c-0.8,0-1.7,0.3-2.8,0.9
		c-1,0.6-1.5,1.2-1.5,1.8c0.1,0.2,0.2,0.3,0.3,0.5c0.1,0.2,0.3,0.4,0.5,0.5c0.3,0,0.6-0.1,0.9-0.3c0.3-0.2,0.6-0.4,0.7-0.5v2.3
		C493.8,100.1,494.4,100,495.3,99.6z M508.4,103.3c1.2-2.5,1.7-5.3,1.7-8.3c0-0.9-0.3-1.4-0.9-1.4c-1.3,0-2.4,0.3-3,0.9
		c-0.7,0.6-1.3,1.4-2,2.6c-0.6,1.2-1.3,2.1-2,2.7c-0.7,0.6-1.7,0.9-3,0.9l0.1-0.3c0-0.5-0.3-0.8-0.8-1.1c-0.3,0.1-0.9,0.3-2,0.8
		c-1.1,0.5-1.8,0.9-2.3,1.4l3.2,2.9c0.3-0.2,1.5-0.9,3.6-2.2c2.1-1.3,3.9-2,5.4-2c0,0.6-1,2.3-3.1,4.9c-0.9,1.1-1.4,1.8-1.6,2.1
		C505,107.1,507.2,105.9,508.4,103.3z M501,105.6c1.6-1.1,2.4-2.1,2.4-3l-0.1-0.5c-1.6,0.5-3,1.1-4.3,2c-1.3,0.9-1.9,1.9-1.9,3.2
		C498.1,107.4,499.5,106.8,501,105.6z M503.3,108.5c-0.9,0.1-1.6,0.2-2.1,0.5c-0.5,0.2-0.7,0.7-0.7,1.4
		C502.3,110.4,503.3,109.7,503.3,108.5z M503.3,57.5h0.9l4.2-3.6l-0.8-0.7l1.6-0.7c0.2-0.4,0.4-1.1,0.5-2.1c0.2-1,0.3-1.8,0.3-2.3
		c0-0.2-0.1-0.5-0.3-0.7c-0.2-0.3-0.4-0.4-0.5-0.5h-5l-0.9,2.8c0,0.8,0.2,1.5,0.7,2.4c0.4,0.8,1.1,1.3,1.9,1.5h-2.6V57.5z
		 M503.3,62.7c0.4,0,1.6-1,3.4-3c1.8-2,2.7-3.2,2.7-3.5h-0.9l-5.1,4.1V62.7z M504.1,66.2c-0.4,0.7-0.7,1.1-0.8,1.2
		c0,0.4,0.1,0.9,0.3,1.7c0.2,0.7,0.4,1.1,0.6,1.1h0.9l4-3.4c-0.2-0.5-0.8-0.8-1.7-1.1c-1-0.3-1.7-0.4-2.3-0.4
		C504.9,65.2,504.5,65.6,504.1,66.2z M509.5,81.7c1.1-1.7,1.7-2.9,1.7-3.7c-0.6,0-1.1,0.1-1.5,0.4c-0.4,0.3-0.8,0.7-1.2,1.3
		c-0.8,1.1-1.7,1.8-2.7,1.8v-1.3c1.4-1,2.6-2.1,3.6-3.3c0.9-1.2,1.4-2.5,1.4-3.8h-3.2c0.3-0.3,0.7-0.6,1.3-0.9
		c0.6-0.3,1.1-0.6,1.5-0.9c0.4-0.3,0.6-0.7,0.6-1.3c0-0.2-0.2-0.5-0.5-0.9c-0.4-0.3-0.6-0.5-0.8-0.5c-1,0-2,0.5-3.2,1.5
		c-1.1,1-1.7,2-1.7,2.8h0.9l0.1,0.6c-0.1,0.2-0.6,0.7-1.6,1.5c-0.6,1.5-0.9,3.9-0.9,7.3c0,0.9,0.1,1.5,0.3,1.8
		c0.2,0.3,0.4,0.5,0.8,0.7c0.4,0.2,0.6,0.5,0.8,0.9c0.1,0.2,0,0.4-0.3,0.7c-0.3,0.3-0.5,0.5-0.7,0.5h5.8v-2.9
		c-0.4,0-0.9,0.1-1.5,0.3c-0.7,0.2-1.2,0.4-1.7,0.6C507.5,84.5,508.4,83.3,509.5,81.7z M506.8,91.5c0.5-0.3,1.1-0.8,1.7-1.4
		c0.6-0.6,0.9-1.1,0.9-1.3h-5.1v5.7c1,0,2.1-0.3,3.2-0.9c1.2-0.6,2-1.3,2.6-2.1H506.8z M507.8,109.8c1-0.6,1.5-1.5,1.5-2.6h-0.9
		l-4.2,3.6C505.6,110.7,506.8,110.4,507.8,109.8z M509.2,111.4l-4,1.5v1.4l3.2,0.6h0.1c0.4,0,0.7-0.8,0.7-2.4V111.4z M508.4,59.6
		c-1.7,1.8-2.6,3.1-2.6,4c0,0.8,1.2,1.1,3.6,1.1C509.4,61.3,509.1,59.6,508.4,59.6z"/>
	<path d="M554.1,53.5c0-0.7-1.3-1.1-3.9-1.4c-2.6-0.2-5.2-0.3-7.9-0.3l-6.6,0.1c-5.2,0-7.8-0.4-7.8-1.3c0-1,0.4-2,1.2-3.1
		c0.4-0.5,0.7-1.1,1-1.8c0.3-0.6,0.5-1.4,0.5-2.1c0.1-0.1,0.4-0.4,0.8-0.9c0.4-0.5,2.3-0.8,5.6-0.8v1c5.3,0,9.9,0,13.9,0.1
		c3.9,0.1,7.3,0.2,10,0.2c10.8,0.3,18.8,0.5,24.1,0.5c3.5,0,6.1,0,7.9-0.1c1.1,0.3,1.6,1.4,1.6,3.2V48c0,1.5-0.3,2.6-0.8,3.3
		l-10.9,0.8c-1.7,0.1-4.2,0.4-7.4,1c-3,0.6-5.6,1-7.5,1c-0.6,2-0.9,5-0.9,9c0,3.4,0.2,8.6,0.5,15.5c0.4,6.7,0.5,11.9,0.5,15.5
		c0,1.8-0.1,5.9-0.4,12.1c-0.3,2.5-0.4,5.3-0.4,8.3c0,0.2,0,0.8-0.1,1.7c-0.1,0.9-0.4,1.5-0.9,2c-0.5,0.4-1.3,0.6-2.4,0.6
		c-0.4,0-0.9-0.1-1.5-0.4c-0.6-0.3-1.1-0.4-1.5-0.4c-0.3,0.2-0.8,0.3-1.5,0.5c-0.8,0.2-1.5,0.2-2.1,0.2c-0.4,0-1-0.3-2-0.9
		c-0.9-0.6-1.4-1-1.4-1.1l0.4-58.8V53.5z M539.8,48c1.4-0.2,2.4-0.7,3.2-1.6c-0.4,0-1.7-0.2-4-0.7c-2.2-0.5-3.7-0.8-4.3-0.8v3.3
		C536.7,48.3,538.4,48.2,539.8,48z M546.1,46.4c-1.4,0.4-2.4,0.9-3.2,1.3l5,0.1c2.9,0,4.3-0.3,4.3-1c0-0.7-0.9-1-2.7-1
		C548.6,45.7,547.5,45.9,546.1,46.4z M555.4,48.6c1.2,0,2-0.1,2.5-0.4c0.5-0.3,1-0.9,1.5-1.8l-2.2-0.2c-0.9,0-1.7,0.1-2.3,0.2
		c-0.6,0.2-1.1,0.6-1.3,1.3C553.9,48.3,554.4,48.6,555.4,48.6z M557.1,103.3c0.6,0.5,1,0.7,1.1,0.7c0-1.1,0.8-2.2,2.3-3.2
		c0.2-0.2,0.6-0.5,1.1-1c0.6-0.5,1-1.1,1.1-1.8h-0.4c-0.9,0-2.2,0.4-3.8,1.2c-1.6,0.8-2.4,1.7-2.4,2.8
		C556.2,102.4,556.5,102.8,557.1,103.3z M556.9,78.7c0,1.1,0.3,1.6,0.9,1.7c1.6-1.2,3-2.6,4-4.2c0-0.2-0.1-0.3-0.2-0.4
		c-0.1-0.1-0.2-0.2-0.3-0.3c-1.5,0-2.6,0.2-3.4,0.6c-0.7,0.4-1.1,1.2-1.1,2.2V78.7z M557,88.4c0.1,0.2,0.4,0.4,0.8,0.5
		c0.9-0.7,1.8-1.5,2.8-2.4c1-0.9,1.7-1.7,2.2-2.6c-1.4,0-2.8,0.3-4,1c-1.3,0.7-1.9,1.5-1.9,2.6C556.9,87.9,557,88.2,557,88.4z
		 M558.4,113.7c0.5,0,1.5-1,2.8-3c1.3-2,2-3.4,2-4.1h-1.3v-2l-4,1.3l-0.8,7.2C557.5,113.5,557.9,113.7,558.4,113.7z M558.9,56.3
		c-0.4,0.7-0.7,1.4-1,2.1c0.7,0,1.6-0.5,2.6-1.6c1-1.1,1.5-2.1,1.5-3.1c0-0.2-0.2-0.3-0.6-0.6c-0.4-0.2-0.8-0.3-1.1-0.3
		c0-2,0.3-3.3,0.8-4c0.5-0.7,0.8-1.1,0.8-1.1v2.5c1,0,2.1-0.5,3.4-1.4c1.3-0.9,1.9-1.8,1.9-2.8c-2.5,0-4.6,0.3-6.1,0.9
		c-1.6,0.6-2.4,1.7-2.4,3.5c0,1.1,0.1,2.1,0.4,2.8c0.3,0.7,0.4,1.3,0.4,1.7C559.5,55.1,559.3,55.6,558.9,56.3z M558.3,69.6
		c-0.3,0.7-0.4,1.7-0.4,3c1.7-1.2,2.6-2.4,2.6-3.4l-0.1-0.7C559.2,68.5,558.5,68.9,558.3,69.6z M561.9,91.3c0.8-0.7,1.2-1.7,1.2-3.1
		c0-0.3,0-0.7-0.1-1.1c0-0.5-0.1-0.8-0.2-1l-5,5.6v1.5C559.7,92.6,561.1,92,561.9,91.3z M557.9,96c0.3,0,0.5-0.2,0.7-0.5
		c0.2-0.3,0.3-0.5,0.3-0.6l-0.1-0.5C558.1,94.7,557.9,95.2,557.9,96z M559.7,80.5c-0.7,1-1,2-1,2.9c1.1,0,2.1-0.2,3-0.5
		c0.9-0.3,1.3-0.9,1.3-1.7c0-1-0.4-2-1.1-2.9C561.1,78.8,560.3,79.5,559.7,80.5z M563.6,96l0.1-0.9v-0.3c0-0.9-0.3-1.5-0.9-1.6
		l-4.2,4.9L563.6,96z M560.7,64.1c-0.5,1-0.9,1.9-1.2,2.7l0.8,0.2c1.2,0,1.7-0.9,1.7-2.8l-0.1-2.4C561.6,62.4,561.2,63.1,560.7,64.1
		z M559.5,73.4h1.9v-2.9L559.5,73.4z M559.5,115.1c0.7-0.2,1.3-0.4,1.8-0.7c0.5-0.3,0.7-0.7,0.7-1.2l-0.1-0.8
		C560.5,113.5,559.7,114.4,559.5,115.1z M561.2,101.4c-0.7,0.6-1.1,1.2-1.1,1.8c1.2,0,2-0.2,2.5-0.6c0.5-0.4,0.8-1.2,1-2.4l-0.4-0.1
		C562.6,100.4,561.9,100.8,561.2,101.4z M561.9,57c-0.1,0.4-0.4,0.9-0.9,1.5c-0.5,0.7-0.7,1.1-0.7,1.3c1.5-0.5,2.5-1.2,2.8-2.4
		c0.4-1.1,0.5-2.2,0.5-3.3c0-1.1,0-1.8,0-2.1L561.9,57z M561.4,108.6h-1.1l1.1-0.6V108.6z M568.6,48.6h0.8v-1.4h-0.8V48.6z
		 M577,48.6c0.1,0,0.2-0.1,0.5-0.4c0.2-0.3,0.4-0.5,0.5-0.7c0-0.8-1.1-1.1-3.4-1.1l-3.4,0.1v2.2H577z M589.9,47.7
		c0-0.5-0.3-0.9-0.9-1c-0.6-0.2-1.6-0.2-3-0.2c-0.4,0-1.4,0.1-3.2,0.3c-1.7,0.2-2.8,0.4-3.3,0.5l0.7,0.5H589.9z"/>
</g>
<g>
	<path fill="#010302" d="M203.8,141.7l-1.2,1.4c-1.6-1.2-3.2-1.8-4.8-1.8c-1,0-1.9,0.3-2.7,0.8c-0.7,0.5-1.3,1.1-1.7,1.8
		c-0.4,0.7-0.7,1.6-0.9,2.7c-0.2,1.1-0.4,2-0.4,2.8c-0.1,0.8-0.1,1.7-0.1,2.8c0,1,0.2,2.2,0.6,3.5c0.4,1.3,1,2.6,1.9,3.7
		c0.9,1.1,2,1.7,3.2,1.7c1.3,0,3.3-0.7,6-2.1c0.3,0.4,0.6,1.1,1.1,2c-2.6,1.8-4.9,2.7-7,2.7c-1.3,0-2.5-0.4-3.6-1.2
		c-1.1-0.8-2-1.8-2.6-3.1c-0.6-1.3-1.1-2.6-1.5-3.9c-0.3-1.4-0.5-2.7-0.5-3.9c0-1.4,0.1-2.7,0.3-4s0.6-2.6,1.1-3.9
		c0.5-1.3,1.2-2.3,2.2-3.1c1-0.8,2.2-1.2,3.6-1.2c1.2,0,2.4,0.2,3.7,0.6C201.8,140.6,202.9,141.1,203.8,141.7z"/>
	<path fill="#010302" d="M206.3,155.7c0-0.8,0.1-1.8,0.3-2.8c0.2-1,0.4-2.1,0.8-3.2c0.4-1.1,0.9-2.1,1.6-2.8s1.5-1.1,2.4-1.1
		c2,0,3.6,0.9,4.8,2.7c1.2,1.8,1.8,3.8,1.8,6c0,0.9-0.1,1.9-0.3,2.8c-0.2,0.9-0.5,1.8-0.9,2.7c-0.4,0.9-1,1.6-1.8,2.2
		s-1.7,0.9-2.7,1c-1.9-0.3-3.4-1.1-4.4-2.5C206.8,159.4,206.3,157.7,206.3,155.7z M211.6,147.4c-0.7,0.1-1.3,0.8-1.8,2
		c-0.5,1.3-0.8,2.5-1,3.6c-0.1,1.2-0.2,2.2-0.2,3.1c0,1.2,0.4,2.2,1.1,3.2c0.7,1,1.5,1.5,2.4,1.5c0.6,0,1.2-0.3,1.7-0.8
		c0.5-0.5,0.9-1.1,1.2-1.9c0.3-0.7,0.5-1.5,0.7-2.2s0.2-1.4,0.2-2c0-1.7-0.4-3.2-1.1-4.5C214,148.3,212.9,147.5,211.6,147.4z"/>
	<path fill="#010302" d="M222.3,154.6l-0.1-1.8c0.1,0,0.2,0,0.3,0c0.1,0,0.2,0,0.3,0c2.1,0,3.1-0.9,3.1-2.8
		c-0.2-1.6-1.1-2.4-2.6-2.4c-0.6,0-1.4,0.2-2.5,0.5l-0.6-0.9c0.9-0.8,2.1-1.2,3.7-1.2c1.1,0,2.1,0.3,2.8,0.9
		c0.8,0.6,1.1,1.4,1.1,2.6c0,0.7-0.1,1.4-0.4,2s-0.6,1.2-1.1,1.5c0.8,0.2,1.4,0.7,1.8,1.6c0.4,0.9,0.7,1.9,0.7,3
		c0,1.5-0.5,2.7-1.4,3.8s-2.1,1.6-3.6,1.6c-0.7,0-1.6-0.2-2.6-0.6c-1-0.4-1.5-0.9-1.5-1.6c0-0.4,0.3-0.7,0.8-0.7
		c0.4,0,0.9,0.2,1.5,0.5c0.6,0.3,1.1,0.5,1.5,0.5c0.9,0,1.6-0.4,2.3-1.2c0.7-0.8,1-1.6,1-2.6c0-1-0.3-1.8-1-2.3
		c-0.7-0.5-1.6-0.8-2.6-0.8C222.8,154.6,222.5,154.6,222.3,154.6z"/>
	<path fill="#010302" d="M231.8,166.4l-1.4-0.3c0-0.2,0-0.9-0.1-2c-0.1-1.1-0.1-1.9-0.1-2.4c0-0.4,0-0.9,0.1-1.3h2
		c0.1-0.4,0.3-0.9,0.5-1.6c0.2-0.7,0.4-1.2,0.5-1.5c0.1-0.3,0.2-0.7,0.4-1.3c0.2-0.6,0.3-1.1,0.3-1.5c0.1-0.4,0.1-0.9,0.2-1.5
		c0.1-0.6,0.1-1.2,0.1-1.9c0-1.6-0.1-3.3-0.2-5.3c1.2,0.1,2.4,0.1,3.7,0.1c1.3,0,2.3,0.1,3.2,0.1c0.8,0,1.7,0.1,2.5,0.3
		c0.1,1.4,0.1,3.7,0.2,7c0.1,3.2,0.1,5.6,0.2,7h2.4v0.9c0,0.5,0,1.3,0,2.3c0,1,0,1.7,0,2c0,0.6,0,1.1-0.1,1.4l-1.4-0.3
		c-0.1-0.3-0.2-0.7-0.2-1.1c-0.1-0.4-0.1-0.9-0.2-1.5c-0.1-0.5-0.1-0.9-0.2-1.1c-1.2-0.1-3.1-0.2-5.6-0.4s-4.6-0.3-6-0.4
		L231.8,166.4z M236.6,147.7c0,0.3,0,1-0.1,2c0,1,0,1.7-0.1,2.3c0,0.5-0.1,1.2-0.2,2.2s-0.2,1.7-0.4,2.3c-0.1,0.6-0.4,1.3-0.6,2
		c-0.3,0.7-0.6,1.3-1,1.9h6.7l0.6-12.3c-0.3,0-1-0.1-2.3-0.1C238.2,147.8,237.2,147.7,236.6,147.7z"/>
	<path fill="#010302" d="M249.3,148.8l-0.6-1.6c0.5-0.5,1.2-1,2-1.3c0.8-0.3,1.6-0.5,2.4-0.5c3.5,0,5.2,3,5.2,9.1
		c0,0.8,0,2.1-0.1,3.7c-0.1,1.6-0.1,2.8-0.1,3.7c-0.2,0.6-0.5,1-1,1c-0.4,0-0.7-0.2-1-0.6c-0.3-0.4-0.5-0.8-0.5-1.3
		c0-0.1,0-0.3,0-0.3c-1.3,1.3-2.6,1.9-4.1,1.9c-1.1,0-2-0.4-2.9-1.2c-0.8-0.8-1.2-1.8-1.2-2.9c0-1.9,0.7-3.7,2.2-5.3
		c1.5-1.6,3.2-2.3,5.1-2.3c0.1,0,0.2,0,0.2,0c0.1,0,0.2,0,0.3,0c0.1,0,0.2,0,0.3,0c-0.2-2.4-1.1-3.6-2.9-3.6
		C251.7,147.4,250.6,147.9,249.3,148.8z M255.7,158.6c0-1.5,0.1-2.6,0.1-3.3c0-0.6,0-1.5-0.1-2.6h-0.2c-1.5,0-2.8,0.6-4,1.7
		c-1.2,1.1-1.8,2.4-1.8,3.9c0,0.7,0.2,1.2,0.6,1.6c0.4,0.4,0.9,0.6,1.5,0.6C252.6,160.5,254,159.8,255.7,158.6z"/>
	<path fill="#010302" d="M273.3,159.3l0.3,1.4c-0.9,0.3-2.3,0.7-4,1.1c-1.8,0.4-3.1,0.6-4,0.6c-0.9,0-1.7-0.3-2.3-0.9
		s-1.2-1.4-1.5-2.3c-0.3-0.9-0.6-1.8-0.7-2.8s-0.2-1.8-0.2-2.7c0-5.2,2.3-7.8,7-7.8c1.1,0,2.1,0.4,2.9,1.1s1.3,1.7,1.3,2.8
		c0,0.6-0.2,1.2-0.5,1.7c-0.3,0.5-0.8,0.9-1.2,1.1c-0.5,0.3-1.1,0.5-1.9,0.8c-0.8,0.2-1.4,0.4-2,0.5c-0.6,0.1-1.3,0.2-2.1,0.3
		c-0.8,0.1-1.4,0.2-1.7,0.3c0,0.6,0.1,1.1,0.1,1.6c0.1,0.5,0.2,1,0.3,1.5s0.4,1,0.6,1.3c0.3,0.3,0.6,0.6,1.1,0.9
		c0.5,0.2,1,0.3,1.6,0.3c0.7,0,1.6-0.1,2.7-0.2c1.1-0.1,2-0.3,2.9-0.4C272.9,159.4,273.3,159.3,273.3,159.3z M263.2,139.9
		c0.6,0,1,0.2,1.4,0.7c0.4,0.5,0.6,1,0.6,1.7c0,0.5-0.1,0.8-0.3,1.1c-0.2,0.3-0.5,0.4-0.9,0.4c-0.6,0-1-0.3-1.4-0.8
		s-0.5-1.1-0.5-1.7c0-0.5,0.1-0.8,0.3-1.1C262.6,140.1,262.9,139.9,263.2,139.9z M262.8,152.6c2.8-0.8,5.1-1.7,6.9-2.6
		c-0.1-0.7-0.3-1.2-0.6-1.5s-0.6-0.5-1.1-0.5c-1.3,0-2.4,0.4-3.4,1.3S263,151.3,262.8,152.6z M269.6,139.9c0.6,0,1,0.2,1.4,0.7
		c0.4,0.5,0.6,1,0.6,1.7c0,0.5-0.1,0.8-0.3,1.1c-0.2,0.3-0.5,0.4-0.9,0.4c-0.6,0-1-0.3-1.4-0.8c-0.3-0.5-0.5-1.1-0.5-1.7
		c0-0.5,0.1-0.8,0.3-1.1C269,140.1,269.2,139.9,269.6,139.9z"/>
	<path fill="#010302" d="M287,146.9l2.1-0.2c1,2.8,2.1,8.1,3.2,15.7c-0.3,0.1-0.7,0.1-1,0.1c-0.3,0-0.7-0.1-1.1-0.2
		c-0.3-1.1-0.6-3.2-1-6.1c-0.4-2.9-0.8-4.9-1.1-6.2c-1,1.7-2.4,4.7-4.1,9.2c-0.1,0-0.4,0.1-0.8,0.1c-0.4,0.1-0.6,0.1-0.8,0.1
		c-0.2,0-0.5,0-0.8-0.1c-0.3-0.9-0.8-2.2-1.5-4.1c-0.6-1.9-1.2-3.3-1.6-4.3c-2,5.1-3.2,8.9-3.7,11.4l-1.2-0.3
		c0.1-1.6,0.7-4.3,1.7-8.3c1-3.9,1.7-6.5,1.9-7.5c0.2,0,0.5,0,0.9,0.1c0.3,0.1,0.6,0.1,0.7,0.1c0.5,0.9,1.3,2.7,2.2,5.4
		c0.9,2.7,1.5,4.3,1.9,5C284.4,152.4,285.8,149.1,287,146.9z"/>
	<path fill="#010302" d="M312.8,146.8l-0.2,1.3c-0.9-0.1-1.6-0.2-2.2-0.2c-1.4,0-2.6,0.4-3.5,1.3c-0.9,0.9-1.6,1.9-1.9,3.1
		c-0.3,1.2-0.5,2.5-0.5,3.9c0,0.7,0,1.3,0.1,1.8c0.1,0.5,0.2,1,0.4,1.5s0.6,0.9,1,1.2c0.5,0.3,1,0.4,1.7,0.4c0.9,0,2.1-0.2,3.5-0.5
		c0.4-0.2,0.8-0.3,1-0.3c0.5,0,0.8,0.6,0.9,1.8c-1.8,0.6-3.5,0.9-5,0.9c-2.2,0-3.8-0.6-4.6-1.7c-0.8-1.1-1.2-2.9-1.2-5.4
		c0-1.5,0.1-2.7,0.3-3.8c0.2-1.1,0.5-2.1,1-3.1c0.5-0.9,1.2-1.7,2.2-2.2s2.1-0.8,3.4-0.8C310.8,146.1,312,146.4,312.8,146.8z"/>
	<path fill="#010302" d="M315.9,148.8l-0.6-1.6c0.5-0.5,1.2-1,2-1.3c0.8-0.3,1.6-0.5,2.4-0.5c3.5,0,5.2,3,5.2,9.1
		c0,0.8,0,2.1-0.1,3.7s-0.1,2.8-0.1,3.7c-0.2,0.6-0.5,1-1,1c-0.4,0-0.7-0.2-1-0.6c-0.3-0.4-0.5-0.8-0.5-1.3c0-0.1,0-0.3,0-0.3
		c-1.3,1.3-2.6,1.9-4.1,1.9c-1.1,0-2-0.4-2.9-1.2c-0.8-0.8-1.2-1.8-1.2-2.9c0-1.9,0.7-3.7,2.2-5.3s3.2-2.3,5.1-2.3
		c0.1,0,0.2,0,0.2,0c0.1,0,0.2,0,0.3,0c0.1,0,0.2,0,0.3,0c-0.2-2.4-1.1-3.6-2.9-3.6C318.3,147.4,317.2,147.9,315.9,148.8z
		 M322.3,158.6c0-1.5,0.1-2.6,0.1-3.3c0-0.6,0-1.5-0.1-2.6h-0.2c-1.5,0-2.8,0.6-4,1.7c-1.2,1.1-1.8,2.4-1.8,3.9
		c0,0.7,0.2,1.2,0.6,1.6c0.4,0.4,0.9,0.6,1.5,0.6C319.3,160.5,320.6,159.8,322.3,158.6z"/>
	<path fill="#010302" d="M330.2,159.7c0,0.4,0,0.8,0.1,1.4c-0.2,0.6-0.5,1-1.1,1c-0.4,0-0.7-0.2-1.1-0.5c-0.3-0.3-0.6-0.7-0.6-1.1
		c0.1-1.7,0.1-4.2,0.2-7.4c0.1-3.3,0.2-5.4,0.2-6.6l1.4-0.3c0.2,1.3,0.4,3.1,0.5,5.3c0.1,2.2,0.1,3.9,0.2,4.9
		c0.4-0.6,1.5-2.1,3.3-4.6c1.8-2.5,3.1-4.3,3.7-5.5c0.5-0.1,0.7-0.1,0.9-0.1c0.4,0,0.7,0.2,0.8,0.5c0.2,0.4,0.3,1,0.3,2l0.6,12.9
		c-0.2,0.6-0.5,0.9-1.1,0.9c-0.4,0-0.7-0.2-1.1-0.5c-0.3-0.3-0.6-0.7-0.6-1.1c0-0.7,0.1-2.4,0.2-5c0.1-2.7,0.2-4.6,0.2-5.7
		C333.8,154.5,331.4,157.6,330.2,159.7z M330.3,142.9l-0.2-1c0.5,0.1,1,0.1,1.5,0.1c1.4,0,2.7-0.4,3.9-1.2c0.5,0,0.9,0.2,1.2,0.4
		c0.3,0.3,0.5,0.5,0.5,0.9c0,0.3-0.1,0.5-0.3,0.7c-0.2,0.2-0.5,0.3-0.8,0.4c-0.4,0.1-0.7,0.1-0.9,0.1c-0.2,0-0.6,0-1,0
		C332.8,143.3,331.5,143.2,330.3,142.9z"/>
	<path fill="#010302" d="M341.2,148l-0.3-1.4c2.8-0.2,7.1-0.4,13.1-0.7c0.5,0,0.9,0.2,1.3,0.6c0.4,0.4,0.5,0.7,0.5,1.1
		c0,0.6-0.4,1-1.2,1.1l-5.8-0.3c0.1,1.6,0.2,3.8,0.2,6.8c0,3,0,5.2,0.1,6.5c-0.2,0.6-0.6,0.9-1.1,0.9c-0.4,0-0.7-0.1-1-0.4
		s-0.5-0.6-0.6-1.1c0.3-5.1,0.6-9.4,0.9-12.9L341.2,148z"/>
	<path fill="#010302" d="M357.2,146.5l1.4,0.3c0,0.7,0.1,1.4,0.2,2.3c0.1,0.9,0.2,1.9,0.3,3.1c0.8-0.3,1.6-0.4,2.4-0.4
		c0.9,0,1.7,0.2,2.5,0.5s1.4,0.8,1.9,1.4s1,1.2,1.3,1.9s0.5,1.5,0.5,2.2c0,0.7-0.1,1.4-0.4,2c-0.3,0.6-0.7,1.1-1.2,1.5
		c-0.5,0.4-1.1,0.8-1.8,1c-0.7,0.2-1.4,0.4-2.3,0.4c-0.5,0-1,0-1.6-0.1c-0.6-0.1-1.1-0.1-1.5-0.2c-0.5-0.1-0.8-0.2-1.1-0.3
		c-0.3-0.1-0.4-0.2-0.4-0.4c0-0.3,0-0.8,0-1.4s0-1.3,0-2.1c0-0.8,0-1.5,0-2.4c0-0.8,0-1.6,0-2.4c0-0.8,0-1.5,0-2.1
		c0-0.6,0-1.2,0-1.5C357.1,148.7,357.1,147.6,357.2,146.5z M359.4,154.2l-0.3,6.3c0.8,0.3,1.6,0.4,2.3,0.4c0.6,0,1.1-0.1,1.6-0.3
		s0.9-0.5,1.2-0.8c0.3-0.3,0.6-0.7,0.8-1.1c0.2-0.4,0.3-0.8,0.3-1.3c0-0.5-0.1-0.9-0.3-1.3c-0.2-0.4-0.5-0.8-0.8-1.1
		c-0.4-0.3-0.8-0.6-1.4-0.7c-0.5-0.2-1.1-0.3-1.8-0.3c-0.2,0-0.5,0-0.7,0S359.7,154.1,359.4,154.2z M369,146.4l1.4,0.3
		c0.1,1.6,0.3,3.7,0.5,6.2c0.2,2.5,0.3,5.4,0.5,8.8c-0.2,0.6-0.5,0.9-1.1,0.9c-0.4,0-0.7-0.2-1.1-0.5c-0.3-0.3-0.6-0.7-0.6-1.1
		c0-0.3,0-0.8,0-1.5c0-0.7,0-1.5,0-2.4c0-0.9,0-1.9,0.1-2.9c0-1,0-2.1,0.1-3c0-1,0-1.9,0.1-2.7C368.9,147.6,369,146.9,369,146.4z"/>
	<path fill="#010302" d="M374.4,158.4c0.6,0,1,0.2,1.4,0.7c0.4,0.5,0.6,1,0.6,1.7c0,0.5-0.1,0.8-0.3,1.1s-0.5,0.4-0.9,0.4
		c-0.6,0-1-0.2-1.4-0.7c-0.3-0.5-0.5-1-0.5-1.7c0-0.5,0.1-0.8,0.3-1.1C373.7,158.6,374,158.4,374.4,158.4z"/>
	<path fill="#010302" d="M398.8,140l0.3,1.4c-0.9,0.1-2.5,0.2-4.8,0.3c-2.3,0.1-3.9,0.2-4.8,0.3c0.1,2,0.1,5.3,0.1,10
		c0,4.7,0.1,8.1,0.2,10.2c-0.2,0.6-0.5,1-1.1,1c-0.4,0-0.7-0.2-1.1-0.5c-0.3-0.3-0.6-0.7-0.6-1.1c0.2-2.6,0.4-8.8,0.4-18.4
		c0-0.4,0-0.9,0-1.6c0-0.7,0-1.3,0-1.7c1.1,0.1,2.2,0.1,3.4,0.1c0.5,0,1.1,0,2,0c0.9,0,1.6,0,2,0C396.4,139.8,397.7,139.9,398.8,140
		z"/>
	<path fill="#010302" d="M412.9,159.3l0.3,1.4c-0.9,0.3-2.3,0.7-4,1.1s-3.1,0.6-4,0.6c-0.9,0-1.7-0.3-2.3-0.9
		c-0.7-0.6-1.2-1.4-1.5-2.3c-0.3-0.9-0.6-1.8-0.7-2.8c-0.2-0.9-0.2-1.8-0.2-2.7c0-5.2,2.3-7.8,7-7.8c1.1,0,2.1,0.4,2.9,1.1
		s1.3,1.7,1.3,2.8c0,0.6-0.2,1.2-0.5,1.7c-0.3,0.5-0.8,0.9-1.2,1.1s-1.1,0.5-1.9,0.8c-0.8,0.2-1.4,0.4-2,0.5
		c-0.6,0.1-1.3,0.2-2.1,0.3c-0.8,0.1-1.4,0.2-1.7,0.3c0,0.6,0.1,1.1,0.1,1.6c0.1,0.5,0.2,1,0.3,1.5c0.2,0.5,0.4,1,0.6,1.3
		s0.6,0.6,1.1,0.9c0.5,0.2,1,0.3,1.6,0.3c0.7,0,1.7-0.1,2.7-0.2c1.1-0.1,2-0.3,2.9-0.4C412.4,159.4,412.8,159.3,412.9,159.3z
		 M402.4,152.6c2.8-0.8,5.1-1.7,6.9-2.6c-0.1-0.7-0.3-1.2-0.6-1.5c-0.2-0.3-0.6-0.5-1.1-0.5c-1.3,0-2.4,0.4-3.4,1.3
		S402.5,151.3,402.4,152.6z"/>
	<path fill="#010302" d="M423.7,146.5l1.4,0.3l0.7,15.2c-0.2,0.6-0.5,0.9-1.1,0.9c-0.4,0-0.7-0.2-1.1-0.5c-0.4-0.3-0.6-0.7-0.6-1.1
		c0-0.1,0.1-1.8,0.3-5.3v-0.3c-0.6,0-1.4-0.1-2.6-0.1c-1.7,0-3-0.1-3.8-0.2c0.1,1.2,0.2,3.2,0.4,5.8c-0.2,0.6-0.5,1-1.1,1
		c-0.4,0-0.7-0.2-1.1-0.5c-0.3-0.3-0.6-0.7-0.6-1.1c0.1-1,0.1-2.1,0.1-3.1c0-0.7,0-1.7,0-3c0-1.3,0-2.3,0-3c0-2,0.1-3.7,0.2-5
		l1.4,0.3c0.4,4.5,0.6,6.8,0.7,7c3.5,0.2,5.3,0.3,5.4,0.3c0.8,0,1.3-0.1,1.3-0.2c0-0.4,0-1.7,0.1-4
		C423.6,147.9,423.6,146.7,423.7,146.5z"/>
	<path fill="#010302" d="M440.7,159.3l0.3,1.4c-0.9,0.3-2.3,0.7-4,1.1s-3.1,0.6-4,0.6c-0.9,0-1.7-0.3-2.3-0.9
		c-0.7-0.6-1.2-1.4-1.5-2.3c-0.3-0.9-0.6-1.8-0.7-2.8c-0.2-0.9-0.2-1.8-0.2-2.7c0-5.2,2.3-7.8,7-7.8c1.1,0,2.1,0.4,2.9,1.1
		s1.3,1.7,1.3,2.8c0,0.6-0.2,1.2-0.5,1.7c-0.3,0.5-0.8,0.9-1.2,1.1s-1.1,0.5-1.9,0.8c-0.8,0.2-1.4,0.4-2,0.5
		c-0.6,0.1-1.3,0.2-2.1,0.3c-0.8,0.1-1.4,0.2-1.7,0.3c0,0.6,0.1,1.1,0.1,1.6c0.1,0.5,0.2,1,0.3,1.5c0.2,0.5,0.4,1,0.6,1.3
		s0.6,0.6,1.1,0.9c0.5,0.2,1,0.3,1.6,0.3c0.7,0,1.7-0.1,2.7-0.2c1.1-0.1,2-0.3,2.9-0.4C440.3,159.4,440.7,159.3,440.7,159.3z
		 M430.2,152.6c2.8-0.8,5.1-1.7,6.9-2.6c-0.1-0.7-0.3-1.2-0.6-1.5c-0.2-0.3-0.6-0.5-1.1-0.5c-1.3,0-2.4,0.4-3.4,1.3
		S430.4,151.3,430.2,152.6z"/>
	<path fill="#010302" d="M442.6,145.9l1.7,0.3c0,0.4,0,0.8,0,1c1.1-0.7,2.3-1.1,3.4-1.1c1.9,0,3.3,0.8,4.4,2.4s1.6,3.5,1.6,5.5
		c0,1-0.1,2-0.2,3c-0.2,0.9-0.4,1.9-0.8,2.9c-0.4,1-1,1.8-1.8,2.4s-1.8,0.9-3,0.9c-1.1,0-2.1-0.3-3.2-0.9c0.1,3.6,0.2,6.4,0.2,8.1
		c-0.2,0.6-0.5,1-1.1,1c-0.4,0-0.7-0.2-1.1-0.5c-0.3-0.3-0.6-0.7-0.6-1.1L442.6,145.9z M444.7,149.2l0.1,10.1
		c0.2,0.5,0.6,0.9,1.1,1.2s1.1,0.5,1.7,0.5c0.8,0,1.5-0.3,2.1-0.8c0.6-0.5,1-1.2,1.2-2.1c0.2-0.9,0.4-1.7,0.5-2.4s0.1-1.5,0.1-2.4
		c0-3.5-1.2-5.3-3.6-5.3c-0.8,0-1.5,0.1-2.1,0.3C445.2,148.6,444.8,148.9,444.7,149.2z"/>
	<path fill="#010302" d="M459,159.7c0,0.4,0,0.8,0.1,1.4c-0.2,0.6-0.5,1-1.1,1c-0.4,0-0.7-0.2-1.1-0.5c-0.3-0.3-0.6-0.7-0.6-1.1
		c0.1-1.7,0.1-4.2,0.2-7.4c0.1-3.3,0.2-5.4,0.2-6.6l1.4-0.3c0.2,1.3,0.4,3.1,0.5,5.3c0.1,2.2,0.1,3.9,0.2,4.9
		c0.4-0.6,1.5-2.1,3.3-4.6c1.8-2.5,3.1-4.3,3.7-5.5c0.5-0.1,0.7-0.1,0.9-0.1c0.4,0,0.7,0.2,0.8,0.5c0.2,0.4,0.3,1,0.3,2l0.6,12.9
		c-0.2,0.6-0.5,0.9-1.1,0.9c-0.4,0-0.7-0.2-1.1-0.5c-0.3-0.3-0.6-0.7-0.6-1.1c0-0.7,0.1-2.4,0.2-5c0.1-2.7,0.2-4.6,0.2-5.7
		C462.6,154.5,460.3,157.6,459,159.7z"/>
	<path fill="#010302" d="M471.5,145.9l1.7,0.3c0,0.4,0,0.8,0,1c1.1-0.7,2.3-1.1,3.4-1.1c1.9,0,3.3,0.8,4.4,2.4s1.6,3.5,1.6,5.5
		c0,1-0.1,2-0.2,3c-0.2,0.9-0.4,1.9-0.8,2.9c-0.4,1-1,1.8-1.8,2.4s-1.8,0.9-3,0.9c-1.1,0-2.1-0.3-3.2-0.9c0.1,3.6,0.2,6.4,0.2,8.1
		c-0.2,0.6-0.5,1-1.1,1c-0.4,0-0.7-0.2-1.1-0.5c-0.3-0.3-0.6-0.7-0.6-1.1L471.5,145.9z M473.5,149.2l0.1,10.1
		c0.2,0.5,0.6,0.9,1.1,1.2s1.1,0.5,1.7,0.5c0.8,0,1.5-0.3,2.1-0.8c0.6-0.5,1-1.2,1.2-2.1c0.2-0.9,0.4-1.7,0.5-2.4s0.1-1.5,0.1-2.4
		c0-3.5-1.2-5.3-3.6-5.3c-0.8,0-1.5,0.1-2.1,0.3C474,148.6,473.6,148.9,473.5,149.2z"/>
	<path fill="#010302" d="M487.4,171.6l-1.9-1.1c0.8-1.5,2.3-4.3,4.5-8.4c-1.7-1.5-2.9-3.8-3.8-6.8c-0.9-3-1.4-6.1-1.6-9.1l1.8,0.1
		c0.1,0.5,0.3,1.6,0.7,3.4c0.3,1.8,0.6,3.1,0.8,4c0.2,0.9,0.6,1.9,1.1,3.2c0.5,1.3,1.1,2.4,1.8,3.2c2.9-5.6,4.3-10.1,4.3-13.7V146
		c1.1,0.2,1.9,0.4,2.4,0.6c-0.3,2.2-0.8,4.4-1.5,6.7c-0.7,2.3-1.6,4.6-2.6,6.9s-2,4.2-2.8,5.8S488.6,169.4,487.4,171.6z"/>
	<path fill="#010302" d="M511.1,159.3l0.3,1.4c-0.9,0.3-2.3,0.7-4,1.1s-3.1,0.6-4,0.6c-0.9,0-1.7-0.3-2.3-0.9
		c-0.7-0.6-1.2-1.4-1.5-2.3c-0.3-0.9-0.6-1.8-0.7-2.8c-0.2-0.9-0.2-1.8-0.2-2.7c0-5.2,2.3-7.8,7-7.8c1.1,0,2.1,0.4,2.9,1.1
		s1.3,1.7,1.3,2.8c0,0.6-0.2,1.2-0.5,1.7c-0.3,0.5-0.8,0.9-1.2,1.1s-1.1,0.5-1.9,0.8c-0.8,0.2-1.4,0.4-2,0.5
		c-0.6,0.1-1.3,0.2-2.1,0.3c-0.8,0.1-1.4,0.2-1.7,0.3c0,0.6,0.1,1.1,0.1,1.6c0.1,0.5,0.2,1,0.3,1.5c0.2,0.5,0.4,1,0.6,1.3
		s0.6,0.6,1.1,0.9c0.5,0.2,1,0.3,1.6,0.3c0.7,0,1.7-0.1,2.7-0.2c1.1-0.1,2-0.3,2.9-0.4C510.6,159.4,511.1,159.3,511.1,159.3z
		 M500.6,152.6c2.8-0.8,5.1-1.7,6.9-2.6c-0.1-0.7-0.3-1.2-0.6-1.5c-0.2-0.3-0.6-0.5-1.1-0.5c-1.3,0-2.4,0.4-3.4,1.3
		S500.8,151.3,500.6,152.6z"/>
	<path fill="#010302" d="M524.8,146.9l2.1-0.2c1,2.8,2.1,8.1,3.2,15.7c-0.3,0.1-0.7,0.1-1,0.1c-0.3,0-0.7-0.1-1.1-0.2
		c-0.3-1.1-0.6-3.2-1-6.1c-0.4-2.9-0.8-4.9-1.1-6.2c-1,1.7-2.4,4.7-4.1,9.2c-0.1,0-0.4,0.1-0.8,0.1c-0.4,0.1-0.6,0.1-0.8,0.1
		c-0.2,0-0.5,0-0.8-0.1c-0.3-0.9-0.8-2.2-1.5-4.1c-0.6-1.9-1.2-3.3-1.6-4.3c-2,5.1-3.2,8.9-3.7,11.4l-1.2-0.3
		c0.1-1.6,0.7-4.3,1.7-8.3c1-3.9,1.7-6.5,1.9-7.5c0.2,0,0.5,0,0.9,0.1c0.3,0.1,0.6,0.1,0.7,0.1c0.5,0.9,1.3,2.7,2.2,5.4
		c0.9,2.7,1.5,4.3,1.9,5C522.2,152.4,523.6,149.1,524.8,146.9z"/>
	<path fill="#010302" d="M542.9,159.7c0,0.4,0,0.8,0.1,1.4c-0.2,0.6-0.5,1-1.1,1c-0.4,0-0.7-0.2-1.1-0.5c-0.3-0.3-0.6-0.7-0.6-1.1
		c0.1-1.7,0.1-4.2,0.2-7.4c0.1-3.3,0.2-5.4,0.2-6.6l1.4-0.3c0.2,1.3,0.4,3.1,0.5,5.3c0.1,2.2,0.1,3.9,0.2,4.9
		c0.4-0.6,1.5-2.1,3.3-4.6c1.8-2.5,3.1-4.3,3.7-5.5c0.5-0.1,0.7-0.1,0.9-0.1c0.4,0,0.7,0.2,0.8,0.5c0.2,0.4,0.3,1,0.3,2l0.6,12.9
		c-0.2,0.6-0.5,0.9-1.1,0.9c-0.4,0-0.7-0.2-1.1-0.5c-0.3-0.3-0.6-0.7-0.6-1.1c0-0.7,0.1-2.4,0.2-5c0.1-2.7,0.2-4.6,0.2-5.7
		C546.5,154.5,544.1,157.6,542.9,159.7z"/>
	<path fill="#010302" d="M555.3,166.4l-1.4-0.3c0-0.2,0-0.9-0.1-2s-0.1-1.9-0.1-2.4c0-0.4,0-0.9,0.1-1.3h2c0.1-0.4,0.3-0.9,0.5-1.6
		c0.2-0.7,0.4-1.2,0.5-1.5c0.1-0.3,0.2-0.7,0.4-1.3c0.2-0.6,0.3-1.1,0.3-1.5s0.1-0.9,0.2-1.5c0.1-0.6,0.1-1.2,0.1-1.9
		c0-1.6-0.1-3.3-0.2-5.3c1.2,0.1,2.4,0.1,3.7,0.1c1.3,0,2.3,0.1,3.2,0.1c0.8,0,1.7,0.1,2.5,0.3c0.1,1.4,0.1,3.7,0.2,7
		c0.1,3.2,0.1,5.6,0.2,7h2.4v0.9c0,0.5,0,1.3,0,2.3s0,1.7,0,2c0,0.6,0,1.1-0.1,1.4l-1.4-0.3c-0.1-0.3-0.2-0.7-0.2-1.1
		c-0.1-0.4-0.1-0.9-0.2-1.5c-0.1-0.5-0.1-0.9-0.2-1.1c-1.2-0.1-3.1-0.2-5.6-0.4s-4.6-0.3-6-0.4L555.3,166.4z M560.1,147.7
		c0,0.3,0,1-0.1,2s0,1.7-0.1,2.3c0,0.5-0.1,1.2-0.2,2.2s-0.2,1.7-0.4,2.3c-0.1,0.6-0.4,1.3-0.6,2s-0.6,1.3-1,1.9h6.7l0.6-12.3
		c-0.3,0-1-0.1-2.3-0.1C561.6,147.8,560.7,147.7,560.1,147.7z"/>
	<path fill="#010302" d="M584.1,159.3l0.3,1.4c-0.9,0.3-2.3,0.7-4,1.1s-3.1,0.6-4,0.6c-0.9,0-1.7-0.3-2.3-0.9
		c-0.7-0.6-1.2-1.4-1.5-2.3c-0.3-0.9-0.6-1.8-0.7-2.8c-0.2-0.9-0.2-1.8-0.2-2.7c0-5.2,2.3-7.8,7-7.8c1.1,0,2.1,0.4,2.9,1.1
		s1.3,1.7,1.3,2.8c0,0.6-0.2,1.2-0.5,1.7c-0.3,0.5-0.8,0.9-1.2,1.1s-1.1,0.5-1.9,0.8c-0.8,0.2-1.4,0.4-2,0.5
		c-0.6,0.1-1.3,0.2-2.1,0.3c-0.8,0.1-1.4,0.2-1.7,0.3c0,0.6,0.1,1.1,0.1,1.6c0.1,0.5,0.2,1,0.3,1.5c0.2,0.5,0.4,1,0.6,1.3
		s0.6,0.6,1.1,0.9c0.5,0.2,1,0.3,1.6,0.3c0.7,0,1.7-0.1,2.7-0.2c1.1-0.1,2-0.3,2.9-0.4C583.6,159.4,584.1,159.3,584.1,159.3z
		 M573.6,152.6c2.8-0.8,5.1-1.7,6.9-2.6c-0.1-0.7-0.3-1.2-0.6-1.5c-0.2-0.3-0.6-0.5-1.1-0.5c-1.3,0-2.4,0.4-3.4,1.3
		S573.8,151.3,573.6,152.6z"/>
	<path fill="#010302" d="M588.4,159.7c0,0.4,0,0.8,0.1,1.4c-0.2,0.6-0.5,1-1.1,1c-0.4,0-0.7-0.2-1.1-0.5c-0.3-0.3-0.6-0.7-0.6-1.1
		c0.1-1.7,0.1-4.2,0.2-7.4c0.1-3.3,0.2-5.4,0.2-6.6l1.4-0.3c0.2,1.3,0.4,3.1,0.5,5.3c0.1,2.2,0.1,3.9,0.2,4.9
		c0.4-0.6,1.5-2.1,3.3-4.6c1.8-2.5,3.1-4.3,3.7-5.5c0.5-0.1,0.7-0.1,0.9-0.1c0.4,0,0.7,0.2,0.8,0.5c0.2,0.4,0.3,1,0.3,2l0.6,12.9
		c-0.2,0.6-0.5,0.9-1.1,0.9c-0.4,0-0.7-0.2-1.1-0.5c-0.3-0.3-0.6-0.7-0.6-1.1c0-0.7,0.1-2.4,0.2-5c0.1-2.7,0.2-4.6,0.2-5.7
		C592,154.5,589.6,157.6,588.4,159.7z"/>
	<path fill="#010302" d="M600.9,158.4c0.6,0,1,0.2,1.4,0.7c0.4,0.5,0.6,1,0.6,1.7c0,0.5-0.1,0.8-0.3,1.1s-0.5,0.4-0.9,0.4
		c-0.6,0-1-0.2-1.4-0.7c-0.3-0.5-0.5-1-0.5-1.7c0-0.5,0.1-0.8,0.3-1.1C600.2,158.6,600.5,158.4,600.9,158.4z"/>
</g>
</svg>
