<?xml version="1.0" encoding="utf-8"?>
<!-- Generator: Adobe Illustrator 17.1.0, SVG Export Plug-In . SVG Version: 6.00 Build 0)  -->
<!DOCTYPE svg PUBLIC "-//W3C//DTD SVG 1.1//EN" "http://www.w3.org/Graphics/SVG/1.1/DTD/svg11.dtd">
<svg version="1.1" id="Layer_1" xmlns="http://www.w3.org/2000/svg" xmlns:xlink="http://www.w3.org/1999/xlink" x="0px" y="0px"
	 viewBox="0 0 144.4 18.9" enable-background="new 0 0 144.4 18.9" xml:space="preserve">
<g>
	<g>
		<g>
			<g>
				<path d="M144.2,9c0.1,0,0.1,0.1,0.2,0.1C144,8.9,144.2,9,144.2,9z"/>
				<path d="M140.6,8.2L140.6,8.2c0.1-0.1-0.1-0.1-0.2,0c-0.1,0-0.3,0.1-0.3,0.1L140.6,8.2z"/>
				<path d="M137.3,7.5c0.2,0.4,0.5,0.4,0.8,0.4s0.7-0.1,1,0.1l0.1,0.2l0.3-0.4C138.8,7.6,137.8,7.8,137.3,7.5z"/>
				<path d="M135.6,5c0.1,0.4-0.4,0.2,0.4,0.3c0-0.1-0.1-0.1-0.1-0.1C135.9,5.1,135.8,5.1,135.6,5z"/>
				<path d="M135.9,5.2C136.3,5.3,135.7,4.8,135.9,5.2L135.9,5.2z"/>
				<path d="M134.3,4.7l0.5-0.2c-0.1-0.3-0.5-0.5-0.4-0.6C134,3.9,134.1,4.2,134.3,4.7z"/>
				<path d="M133.9,5.4l0.2-0.1C134.1,5.1,134,5.1,133.9,5.4z"/>
				<path d="M134.6,5.1l-0.5,0.2c0.1,0.2,0.1,0.6,0.2,0C134.3,5.5,134.4,5.3,134.6,5.1z"/>
				<path d="M134.9,5.4c0.3,0.3,0.6,0.6,0.1,0.8C135.9,6.3,135.8,5.6,134.9,5.4z"/>
				<path d="M137.2,8.3l0.3,0.3l0.3-0.2C137.7,8.4,137.2,8,137.2,8.3z"/>
				<path d="M131.5,2.9c0,0.3,0.2,0.8,0.2,1.2l0.3-0.2C131.8,3.6,131.5,3.3,131.5,2.9z"/>
				<path d="M131.7,4.1l-0.5,0.3C131.6,4.6,131.7,4.4,131.7,4.1z"/>
				<path d="M133.8,6.6c0,0,0.2-0.2,0.4-0.3c0.2-0.1,0.4-0.3,0.4-0.3l-1,0.6L133.8,6.6z"/>
				<polygon points="129.6,2 129.8,1.4 129.3,2.3 				"/>
				<path d="M128.3,1.6c0.2-0.6-0.3-1.3-0.1-1.6c-0.3-0.1-0.6,0.4-0.9,0.9C127.6,0.7,127.9,0.9,128.3,1.6z"/>
				<path d="M126.9,1.5c0.1-0.1,0.3-0.4,0.4-0.6C127.2,1,127,1.2,126.9,1.5z"/>
				<path d="M130.3,4c0-0.2-0.1-0.7-0.4-1l0.2,1C130.2,3.9,130.2,4,130.3,4z"/>
				<path d="M130.1,4L130.1,4c-0.2-0.1-0.4-0.2-0.4-0.2S129.9,3.8,130.1,4z"/>
				<path d="M130.4,4C130.3,4,130.3,4,130.4,4C130.3,4.1,130.3,4.1,130.4,4z"/>
				<path d="M132.5,5.6c-0.3,0.3-0.9,0.7-0.3,1.5C132.4,6.6,132,6.2,132.5,5.6z"/>
				<path d="M130.6,5.2l0.5,0.3c0-0.2-0.1-0.6,0-0.8c0,0-0.1,0.1-0.3,0.2C130.7,5.1,130.6,5.2,130.6,5.2z"/>
				<polygon points="130.3,5.4 130.6,5.2 130.4,5.1 				"/>
				<path d="M127.8,2.8c-0.2,0.4-0.5,0.3-0.8,0.3c0.3,0.3,0.6,0.5,0.9,0.6C128,3.4,128.1,2.9,127.8,2.8z"/>
				<path d="M128.9,3.5L128.9,3.5C128.9,3.6,128.9,3.6,128.9,3.5z"/>
				<path d="M124.2,2.9c0,0.1,0,0.1,0,0.2V2.9L124.2,2.9z"/>
				<path d="M128,3.9c0.2,0.3,0.4,0,0.5-0.2c-0.2,0-0.4,0.1-0.6,0C127.9,3.9,127.9,4,128,3.9z"/>
				<path d="M126.1,1.7c0.1,0.3,0.3,0.5,0.4,0.7C126.4,2.1,126.1,1.5,126.1,1.7z"/>
				<path d="M128.8,3.2L128.8,3.2C128.7,3,128.8,3.1,128.8,3.2z"/>
				<path d="M128.8,3.2c-0.1,0.1-0.2,0.3-0.3,0.5c0.1,0,0.3-0.1,0.4-0.2C128.8,3.4,128.8,3.3,128.8,3.2z"/>
				<path d="M123.3,10.1c0-1,0.6-2,1.2-0.9c0.5-0.8,0.2-4.3-0.3-6.1c0,0.5,0,0.9-0.5,1.5c0.2,0.6,1.2,1.3,0.7,2.2
					c-0.7,0.6-0.6-0.3-0.9-0.9c0.3,1.3-0.9,1.9-0.7,3.8l0.6-0.7C123.4,9.3,123.2,9.8,123.3,10.1z"/>
				<path d="M125.2,3.1l0.2-0.1c-0.2-0.2-0.4-0.6-0.8-1.4c-0.4,0.6-0.4,1-0.5,1.3c0,0,0.3,0,0.5,0c0.3,0,0.5,0,0.5,0L125.2,3.1z"/>
				<path d="M126.4,3.1c-0.2,1-0.7,1.5-0.4,2.7c0.6,0,0.4-0.9,0.8-1.3C125.8,4.5,127.1,4,126.4,3.1C126.6,3,126.8,3,127,3
					c-0.2-0.2-0.4-0.4-0.5-0.7v0.1l0,0l0,0c0,0.2,0.1,0.2,0,0.1l0,0C126.5,2.9,126.5,3,126.4,3.1c-0.3-0.3,0-0.3,0-0.4s0-0.1,0-0.2
					l0,0c0,0-0.3,0.1-0.5,0.2c-0.3,0.1-0.5,0.2-0.5,0.2C125.7,3.1,126,3.1,126.4,3.1z"/>
				<path d="M131.6,8.8c0-0.1,0-0.1,0-0.2C131.5,8.7,131.5,8.8,131.6,8.8z"/>
				<path d="M131.2,8.3c0.1-0.1,0.1-0.4,0.4-0.3c0.2,0.3,0,0.4,0,0.7c0.1-0.2,0.5-0.5,0.1-1l-0.1,0.1c-0.4-0.3-1-1.5-0.9-1.6
					C130.8,7,130.9,7.5,131.2,8.3z"/>
				<path d="M128.8,6.3c0,0-0.2,0.1-0.4,0.2c-0.2,0.1-0.4,0.2-0.4,0.2l0.4,0.9V7.1C128.8,7.3,128.7,6.6,128.8,6.3z"/>
				<polygon points="124.1,2.3 124.2,1.1 123.7,2.8 				"/>
				<polygon points="123,2.5 123,1.5 122.7,2.1 				"/>
				<path d="M59.9,15.3l-0.3,0.3C59.7,15.5,59.8,15.4,59.9,15.3z"/>
				<path d="M61.7,15.3v-0.5C61.7,15.1,61.6,15.3,61.7,15.3z"/>
				<path d="M95.5,2.6c-0.4-1-0.8-2.5-0.7-1.3l0.1,1.1C95.1,2.3,95.3,2.4,95.5,2.6z"/>
				<path d="M76.7,9.4c0,0.1,0.1,0.2,0.1,0.3C76.9,9.3,77,9,77,8.6C76.9,8.8,76.8,9.1,76.7,9.4z"/>
				<path d="M76.4,14l-0.5-0.7C76.1,13.5,76.2,13.8,76.4,14z"/>
				<path d="M49.9,16.5l-0.3,1.1C50,17.6,49.8,17,49.9,16.5z"/>
				<path d="M111.5,2.9c-0.3-0.4-0.6-0.6-0.8-0.7C111.1,2.9,111.4,3.9,111.5,2.9z"/>
				<path d="M60.6,3.3c-0.2,0.2-0.2,0.4-0.2,0.7C60.5,3.8,60.6,3.6,60.6,3.3z"/>
				<path d="M109.8,2.2c0.1,0.1,0.1,0.2,0.2,0.3c0.2-0.2,0.5-0.3,0.7-0.3C110.4,1.8,110.1,1.5,109.8,2.2z"/>
				<path d="M13.6,14.2l-0.1-0.1C13.5,14.2,13.6,14.2,13.6,14.2z"/>
				<path d="M3.1,8.1c0.1,0,0.3-0.1,0.4-0.2C3.4,8,3.3,8,3.1,8.1z"/>
				<path d="M118.5,2C118.7,1.9,118.5,1.9,118.5,2L118.5,2z"/>
				<path d="M119.6,6.5c-0.1,0.1-0.1,0.3-0.1,0.5C119.6,6.8,119.6,6.6,119.6,6.5z"/>
				<path d="M107.4,9.3L107.4,9.3C107.5,9.5,107.5,9.4,107.4,9.3z"/>
				<path d="M118.8,2.5c-0.1-0.1-0.2-0.3-0.3-0.3C118.6,2.3,118.7,2.4,118.8,2.5z"/>
				<path d="M118.8,2c0.1,0.1,0.1,0.1,0.2,0.1C119,1.9,119,1.8,118.8,2z"/>
				<path d="M118.1,2.1c0.1,0,0.3,0,0.4,0.1c0-0.1-0.1-0.1-0.1-0.2C118.4,2,118.3,2.1,118.1,2.1z"/>
				<path d="M33,12.5c0,0,0-0.1-0.1-0.1C32.8,12.9,32.9,12.8,33,12.5z"/>
				<path d="M89.3,14.3C89.3,14.3,89.4,14.3,89.3,14.3C89.4,14.3,89.3,14.3,89.3,14.3L89.3,14.3z"/>
				<path d="M88.5,15.2c0.4-1.4,0.6-1.2,0.8-0.9L89,11L88.5,15.2z"/>
				<path d="M55.5,15.6l0.6,1c-0.7,1.7-1.2,1.1-0.7,2.5c0.1-3.5,2.3-0.4,2.4-3.9l0.4,0.7c-0.1,0-0.1,0.2-0.2,0.1
					c0.8,1.7,0.6-2.6,1.6-2.1c0.3,0.3,0.6,0.8,0.3,1.2l0.8-0.9c0.2,0.1,0.2,0.7-0.1,0.6l1.2-0.3v0.1c0.2-0.6,0.5-1.4,0.7-1.8
					c0.3,0.5-0.1,0.4-0.1,0.8l0.6-0.9c0.3,0.9-0.3,1.8-0.7,1.7c0.6,3.5,0.5-0.9,1.8,1.2L63.5,16c0.4,2,0.9,1.3,1.6,2.5
					c-0.2-0.7-1.4-3.1-0.7-4c0.2,0.3,0.5,0.4,0.8-0.3c0,1.3,0.4,0.9,0.8,0.9v1.7c0.5-0.5,0.5-1.3,0.8-2.1c0.6,0.2,0.7,1.5,0.8,2.5
					c0.9,0.3-0.6-2.1,0.4-2.4c0.7,0.6,1.3,0,2.2-1c0.5,0.6-0.1,1,0.1,1.5l0.5-1.3c0.1,0,0.1,0.4,0.1,0.6c0.4-0.5,0-1.7,0.6-2.1
					c0.2-1.8,1.3,2.7,2,0.6c0.2,0.5-0.1,1,0,1.7c1-1.4,0.9-1,1.7-2.8l0.7,1.1c-0.5-1.2,0.1-2.7,0.7-3.9c-0.2-0.6-0.4-1.1-0.5-1.4
					l1-0.9c0.1,0.3,0,0.8-0.1,1.5c0.1-0.1,0.1-0.3,0.2-0.4c0.3,0.6,0.2,1.6-0.1,2.5c-0.1-0.3-0.2-0.7-0.3-1c-0.2,1-0.5,2.1-0.4,3.1
					c0.1-0.2,0.2-0.4,0.3-0.4c-0.1,0.3-0.1,0.5-0.1,0.7s0.1-0.2,0.3-0.6l0.2,1.9l0.1-0.7l1.2,1.2c0.9-1.9,1.7-4.6,3.1-5.4
					c-0.4,1.4-0.1,2.2-0.1,3.8c-0.4-1.7-1.1,0.7-1.8,0.4c0.4,0.2,0.3,0.9,0.2,1.2l1.3-1.6c0,1.3,0.3,1,0.6,1.5
					c-0.3-2.6,1-1.7,1.5-2.5c0,0.9-0.1,1.8-0.7,1.6c0.7,2,0.9-3.1,1.6-1.4c-0.2,0-0.2-0.1-0.3,0.3c0.4-0.8,1.3-0.2,1.1,0.6h-0.2
					c1.1,0.3,3.2,0,3.4-2.2c0,0.3-0.1,2.7-0.2,3.1l1.9-7.4c-0.2,1.9,0.5,6.4-0.4,7.5c0.3,0.3,0.6,0.6,1.1-0.1
					c-0.2-0.3-0.4-2.7-0.2-2.9c0.6,2.1,0.4,1.1,1.2,2.9c-0.3-0.4,0-3.4,0.4-3.3c-0.1,0.4,0,2.9-0.1,3.3l1-2.9
					c-0.3,0.5,0,2.5,0.2,3.3c-0.1-0.6,0.9,0.1,1.1-0.2l-0.4-0.7c1.1,0.4,1.1-4.1,2.3-4c-0.1,0.6-0.3,3.7,0.2,4.1
					c0.3-1.5,1.2-7.2,2.2-8.4l0.2,0.9l0.8-1c-0.5,2.3-1.8,7-2.5,8.8c0.4,0.7,0.1,1,0.8,0.9c0.2,0.8-0.3,1.2-0.5,1.3l1.5,0.5
					c-0.1-1.7,1.1-1.8,1.1-3.2l-1.6,1.8c-0.1-1.7,0.9-5,2-4.7c0.3,0.7-0.2,3.1-0.2,3.7c0.1-0.6,1-1.1,1.1-0.7l-0.4,0.9
					c0.6,0.7,1-2.3,1.7-0.6c0.2,0.1,0.7,2.3,0.8,1.2c-0.4-2-0.5-8.2-0.2-9.7c0.1,0.1,1.3,1.9,1.6,2.9c0.4,1.6-0.6,3.7-0.3,5.1
					c0-0.5,0.2-1.1,0.3-1.3c0.3,0.4-0.1,1.5,0.4,1.3c0.1-1.8,1.1,0.1,0.3-1.5c0.5-0.5,0.6,0.4,1.2,0.3c-0.2-1.1,0.6-3.9,1.1-4.4
					c0,0.5,0.1,1,0.1,1.3c1.1,0.2,1.7,1,2.7,1c0.1,0.4,0.6,0.9,0.4,1.7c0.1-0.3,0.3-0.9,0.6-1c0.6,1.5-0.7,0.2-0.2,2.1
					c0-1,0.8-1.4,1.3-2.1c-0.1-1.6-1.1-0.3-1.5,0.3c0-2.2,0.8-4.5,1.9-5.5c0.9-0.5,0.4,1.4,0.5,1.1c1.6,0.4,1.4-3.8,2.7-2.2
					c0.5,1.4,0,2.8,0.1,3.8c-0.7,0.5-1.1-0.9-1.6-0.8l0.6,0.7c-0.2,0.5-0.7,0.8-0.9,0.4c0.4,1.3,2.7,0.2,4,1.4
					c0.2-0.5,0.6-1,0.4-1.5l-0.4,0.2c-0.4-1.1,0.7-1.6,0.2-2.1c0.5-0.8,1.1-2,1.9-1.4l0.1,1.6c0-0.5-0.5-0.9-0.7-0.5
					c0.3-0.7,1.1,2.2,1.5,0.1l-0.5-1.1c0.5-0.8,1.2-2.5,1.9-2c-0.3-1.6-0.2,0.2-0.6-1.7c0.4,2.3-1.7-0.1-1,2.3
					c-0.5-2.1-0.8-0.9-1.5-2.7c0,0.5,0.2,1-0.3,0.7c0,0.2-0.1,0.3-0.1,0.5l0,0v0.1c0,0.1,0,0.1,0,0c0.1,0.2,0.2,0.5,0.3,0.8
					c-0.3,1.2-1.2,1.2-1.5,1.8c-0.3-0.2,0.1-0.6,0-1.2l-0.4,0.9c0-1.2-0.9-1.9-0.1-2.6l-0.7-0.1c-0.4-0.7-1-0.9-1.3-0.4
					c-0.3-0.3-0.8,1.3-0.5,0.4l-1.1,0.7V2.5c-1.1-0.1-2.2,1.9-3.5-0.2c-0.4,0.3-0.7,0.7-1.3,0.3l-0.1-1c-0.5,0.4-1.4-1-1.6,0
					c-0.5-2.7-2.3-0.6-3.1-1.1v1.3c-0.6-0.1-1.1,0.3-1.8,0.8v1.2c-0.6,1-1.6-0.8-2.5-0.7c0.1-0.4,0.3-0.3,0.5-0.1
					c-1.1-2.6-2.4,1.9-3.4,0c-0.3,0.4-0.4,0.3-0.6,0c0,0,0,0,0.1-0.1h-0.1c-0.1-0.2-0.2-0.4-0.4-0.6c0.1,0.3,0.2,0.5,0.3,0.6
					c-0.2,0-0.5,0.2-0.8,0.5l-0.1-1.3c0,0,0,0-0.1,0c-0.3-0.5-0.2,0.6-0.1,1.5c-0.1,0.2-0.3,0.5-0.4,0.8c-0.2-2-0.8,0.7-1.1-1.5
					c-0.2,1.1-1.5,0.8-1.6,3c0-0.3-0.1-0.4,0.1-0.4c-0.3-0.3-0.7-0.5-1,0.1L91.2,4l-0.7,2.1c-0.4-1-0.6-1.5-0.2-2.8
					c-1.1,1.9-0.9,0.7-1.7,2.6v-1c-0.3,0-0.8,1.4-1,0.6c-0.7-2-3.5-0.3-5.4-2.1c0.4,3-0.9-1.4-0.9,1c-0.1-0.7-0.4-1.1-0.1-1.7
					c-0.9,0.7-1.4-1.1-2.1,0.8C79,2.8,79.3,2.4,79.2,2c-0.1,0.2-0.3,0.6-0.4,0.2s0.1-0.6,0.3-0.9c-1,0.1-1.1,2.3-1.1,4.4
					c-0.5-1-0.7-0.8-1.1,0.5c-0.2-0.7-0.5-1.4,0.1-1.6c-0.3-0.1-2-1-2.1,0.7c-0.1-0.4-0.5-0.1-0.6,0.1c-0.7-0.1-0.8-0.2-1.6-0.1
					l0.2,0.3c-0.3,2-0.6,0.4-1.2,0.7V6.1c-1.4-1.4-0.6,0.7-1.9-1l0.1,1.2c-0.1,2.7-1.2-1.6-2-0.6l0.3,0.7c-0.4,0.9-1.2-3.6-1.6-4
					c-0.1-0.2,0.1-0.4,0.3-0.5c-1.1-1.6-0.1,1.6-1,2c-0.2-0.9,0.2-2.2-0.4-2.4c-0.3-0.7-1.6,2.9-2.4,1.2c0.2,0.7,0.3,1.4-0.1,1.9
					c-0.6,0.2-1.6-2.6-2.1-0.4c-0.1-0.2-0.1-0.4-0.1-0.5c-0.5,0.6-1.5,0.9-1.7,2.1c-0.4-4.3-2.8,2.1-2.8-1.9l-1.4,0.2V3.7
					c-0.9-0.3-1.2,0.7-1.5,1.6c-0.2-0.3-0.1-0.6,0-0.8c-1.3-0.8-1.4-0.6-2.5,1.3l-0.1-1.3c-0.3,0.7-1.9-2-3.2-0.5
					c0-0.1,0-0.4,0.1-0.6c-1.4,1.5-3.4-3.6-4,1.1l-0.9,1.2c1.2,0.4-0.2,2,0.3,2.8c-0.5,0.3-1.2-1.4-0.7-1.7L42.5,7
					C42.7,4.6,41,6.1,41,4.5c-2.4,0.1-4.8-1.2-7-1.3l0.3,1.9L33.5,5c-0.2-0.4-0.3-1.5,0.3-1.4c-0.3-1.1-0.9,0.9-1,1.3
					c-1.1-0.8,0.4-2.2,0.1-2.3l-0.5,0.1l0.1,0.2c-0.4,0.8-0.4,1.6-1.1,1.5C31,4,31.2,3.2,31,3.2c0-0.1-0.1-0.2-0.3-0.1l-1-0.2
					l0.4,1.5c-0.4,0.7-0.9-0.1-0.5,1.6c-0.7-2.6-3.7-0.9-4.1-1.8c-0.6,1.1-1.2,1.1-2,0.9c0.2,0.3,0.3,2-0.4,1.8
					c0.2-3.5-1.2-1.5-1.7-4c0.2,0.8-0.2,0.9-0.7,1.1c-0.4,0.2-0.8,0.4-0.5,1.6c-0.5-0.3,0-1.3-0.4-2.2c-1.3,1.2-2.9-0.5-4.5,0.4
					c0,0.4,0.2,1-0.1,1.6c0,0-0.2-0.4-0.4-0.9c-0.2-0.4-0.4-0.8-0.4-0.8c-0.3,0.3-0.3,2.2-0.9,1.1c0.1,0.3,0.2,0.7,0,0.9
					c-1.6-0.5-3.2,0.2-4.8,0.7C7.9,6.6,7.1,6.8,6.3,6.9C5.5,7,4.7,7,3.9,7.1C4.3,7.2,4,7.3,3.7,7.4c0.2,0,0,0.3,0,0.4
					c0,0-0.3,0-0.7,0c-0.3,0-0.7,0-0.7,0C2.2,8,1.8,8.1,1.5,8.1C1.2,8.2,0.8,8.3,0.8,8.3l0.4-0.1C0.9,8.3,1.1,8.3,1.4,8.4
					S2,8.7,1.9,8.8c0.3-0.1,0.7,0.1,1.2,0.3c0.5,0.2,1,0.6,1.5,0.3c0.2,0.2-0.2,0.2-0.1,0.4c0.3-0.2,0.6-0.3,1.2,0L5.6,9.9
					c1.6,0.3,2.3,0.9,4.2,1.9L9.7,11c0.4,0.2,0.5,0.5,0.7,0.7c0.5-1-1.1-0.4-0.7-1.5c0.3,0.8,1,1,1.6,1.2c0.7,0.2,1.3,0.4,1.5,1.5
					c0.6,0.2-0.2-1.1,0.4-0.9l0.2,0.6l0.2-0.7c0.4,0.2,0.6,1,0.6,1.6c-0.1-0.1-0.3,0.1-0.4,0.1c0.5,0.9,1.5,0.2,1.6,0.5l-0.6-0.6
					c0.8-0.1,1.8,0.2,2.7,0.5c0.5,0.1,0.9,0.2,1.4,0.1c0.4-0.1,0.9-0.4,1.3-0.8l-0.1-0.6c1.2-1.2,1,0.6,2.3,0.1v0.1
					c0.3-0.6,0.6-0.9,1-0.8c-0.3,0.7,0.6,1.3,0.2,2.1c1.3-1.2,0.7-0.9,1.5-3.1l0.2,1c0.3-0.9,0.3-1.3,1-1.6
					c-0.6,0.8,0.4,1.5-0.2,2.6c1.4,2.1,2.1-2.1,2.7,1c0.6-2.7-1.2-1.5-0.9-2.1c-0.3-0.9,0.5-2,1-1.7c0.5,0.1,0.8,3.4,1.9,3.4
					c-0.1,0-0.1,0.2-0.2,0.2c0.4,0.7,0.8-0.9,1.4,0.2c0.3-1.6,0.7,0.1,0.8-2l-1,0.5c0.6-0.5,1.1-2.9,2.1-1.8c-0.1,0.4-0.4,1-0.6,1.3
					c0.3,0.6,0.5-0.4,0.8,0.2c-0.1,2.1-1.3,0.4-1.9,2c0.3,0.9,1.2-1.5,0.9,0.7c0.5-2.8,1.1,0.4,1.9-1.8l-0.1,1.2
					c0.1-0.2,0.4-0.8,0.6-0.7l-0.4,1.6c0.6-1.4,1.2,1.2,1.8,0.5c-1.3,0-0.3-1.5-0.8-2.4c1.5-1.7,0.9,3.2,2.6,2.6
					c-0.2,0.2-0.9-0.7-0.5-1.3c0.3,0.3,0.8,0.7,1,1.4c1.1-0.3-0.2-1.3,0.3-2c0.4,1.5,0.6-0.6,1.1-1.1v1.3c1.3,0.8,0.3-2.6,1.5-1.6
					l-0.5,1.7l0.6-0.4l-0.1,1.4c0.7-1.1,0.9-0.8,1.5-0.4c-0.2-0.9,0.1-2.3,0.7-2.3c0.4,0.7-0.2,1.2,0.6,1c-0.2,0.8-0.4,1.8-0.7,0.6
					c0,0.4-0.2,0.8-0.2,1.2c0.4,0.9,1.1,0.2,1.4,0.2c-0.1,0-0.3-0.1-0.3-0.3l1.2-1.7c0.2,0.5,0,0.8-0.1,1.2c0.2-0.1,0.4-0.7,0.8-0.8
					c-0.1,1-0.1,2.1-0.6,2.6l1.1-1.1c0.1,0.4,0.6,1.2,0.4,1.6c0.6,0.6,1.5-2,2.4-1.2c0-0.2,0.1-0.4,0.3-0.5c0.8,0.2,1.5,1.5,2.4,0.1
					l0.5,1.8c0.7-0.4-0.7-2.3,0.5-3c0.9-0.6,0.3,1.6,0.6,2.1c0.4-0.9,1.2-2.8,1.9-1.3C55.9,15.7,55.7,15.5,55.5,15.6z M64.4,14.8
					c-0.2,0.3-0.5,1.1-0.6,0.3C64,13.7,64.1,14.4,64.4,14.8z M78,11.8c-0.1,0.4-0.3,0.2-0.6-0.3C77.6,11.4,77.8,11.4,78,11.8z
					 M115.9,3C115.9,3.1,115.9,3.1,115.9,3C115.5,2.6,115.6,2.8,115.9,3z M116.7,3.6c0.1-0.2,0.1-0.3,0-0.5
					c-0.1,0.3-0.2,0.3-0.4,0.3C116.3,3.6,116.4,3.9,116.7,3.6z M30.5,4.1l0.2,0.3C30.3,4.8,30.4,4.4,30.5,4.1z"/>
				<path d="M76.5,13.5c0-0.2-0.1-0.4-0.1-0.7C76.3,13,76.3,13.3,76.5,13.5z"/>
				<path d="M49.9,16.3C49.9,16.2,49.9,16.2,49.9,16.3c0,0.1-0.1,0.1-0.1,0.2L49.9,16.3z"/>
				<path d="M104.2,14.2c-0.2-0.2-0.3-0.4-0.3-0.6C103.9,13.9,104,14.1,104.2,14.2z"/>
				<path d="M120.9,1.4l-0.5,0.3c0.2-0.1,0.3,0.2,0.5,0.4C120.9,1.9,120.8,1.5,120.9,1.4z"/>
				<path d="M125.4,9.2c0.1-0.2,0.2,0,0.2-0.2V8.4C125.3,8.5,125.1,9,125.4,9.2z"/>
				<path d="M121.4,5.6c0,1.1,0.4,0.7,0.7,0.5c0,0,0,0-0.1,0C122.2,4.6,121.8,5.1,121.4,5.6z"/>
				<path d="M122.2,6.1c0.1,0,0.2-0.1,0.3,0C122.6,5.5,122.4,5.9,122.2,6.1z"/>
				<path d="M117.7,2.9c0.2,0.3,0.1-1.3,0.2-0.9C118.1,0.6,116.8,3.6,117.7,2.9z"/>
				<polygon points="121.7,9.1 121.6,7.8 121.4,8.8 				"/>
				<path d="M118.9,8.1l0.6,0.4c0-0.2,0.1-0.3,0.2-0.4C119.2,8,118.8,7.7,118.9,8.1z"/>
				<path d="M119.6,8c0.2,0,0.4,0,0.5-0.2C119.9,7.8,119.7,7.9,119.6,8z"/>
				<polygon points="120.9,9.5 120.7,9.2 120.3,9.1 				"/>
				<path d="M112.7,7.9l-0.6,0.4c-0.1,0.4,0.1,0.7,0.3,0.5C112.5,8.5,112.8,8.3,112.7,7.9z"/>
				<path d="M114.6,11.4c-0.2-0.3-0.2-0.6-0.3-1V12L114.6,11.4z"/>
				<path d="M112.7,11.8c-0.1,0.4-0.9,1.3-0.1,1.2C112.7,12.6,113.3,12.2,112.7,11.8z"/>
				<polygon points="103.3,9.8 103.4,9.8 103.4,7.1 				"/>
				<path d="M94.9,16.1c0.7,0.6,0.2-1.6,0.8-0.8c0.2-0.6-0.5-0.6-0.4-1.2C95,14.8,94.7,14.4,94.9,16.1z"/>
				<path d="M95.4,14.1c0.1-0.1,0.1-0.2,0.2-0.4C95.5,13.9,95.5,14,95.4,14.1z"/>
				<path d="M1.3,8.5c0,0-0.1,0-0.2,0.1C1,8.6,0.9,8.7,0.9,8.7l0.3-0.1L1.3,8.5z"/>
				<path d="M0.4,9H0.3L0,9.1C0.1,9.1,0.3,9,0.4,9z"/>
				<path d="M65.8,18.2v-0.4c-0.1-0.4-0.2-0.5-0.4-0.5L65.8,18.2z"/>
				<polygon points="59.3,16.9 59.4,17 59.2,15.4 				"/>
				<path d="M53.8,18.9c0.2,0.1,0.5-0.3,0.7-0.2C54,18.9,53.8,17,53.8,18.9z"/>
			</g>
		</g>
	</g>
</g>
</svg>
