<?xml version="1.0" encoding="utf-8"?>
<!-- Generator: Adobe Illustrator 17.1.0, SVG Export Plug-In . SVG Version: 6.00 Build 0)  -->
<!DOCTYPE svg PUBLIC "-//W3C//DTD SVG 1.1//EN" "http://www.w3.org/Graphics/SVG/1.1/DTD/svg11.dtd">
<svg version="1.1" id="Layer_1" xmlns="http://www.w3.org/2000/svg" xmlns:xlink="http://www.w3.org/1999/xlink" x="0px" y="0px"
	 viewBox="0 0 144.4 18.9" enable-background="new 0 0 144.4 18.9" xml:space="preserve">
<g>
	<g>
		<g>
			<g>
				<path fill="#3F3B3C" d="M144.2,9.8c0.2,0.1,0.1,0,0.2-0.1C144,9.6,144.2,9.8,144.2,9.8z"/>
				<path fill="#3F3B3C" d="M140.7,9.3l0.1-0.1c0,0-0.1,0.1-0.3,0.1c-0.1,0.1-0.3,0.1-0.3,0.1L140.7,9.3z"/>
				<path fill="#3F3B3C" d="M137.4,8.8c0.3,0.8,1.2,0.1,1.8,0.4l0.1,0.2l0.3-0.5C138.8,8.8,137.9,9.1,137.4,8.8z"/>
				<path fill="#3F3B3C" d="M135.6,6.5c0.1,0.4-0.4,0.2,0.4,0.2c0,0-0.1-0.1-0.1-0.1C135.9,6.6,135.8,6.6,135.6,6.5z"/>
				<path fill="#3F3B3C" d="M136,6.6C136.3,6.7,135.7,6.2,136,6.6L136,6.6z"/>
				<path fill="#3F3B3C" d="M134.4,6.4l0.5-0.2c-0.1-0.3-0.5-0.4-0.4-0.6C134,5.7,134.1,5.9,134.4,6.4z"/>
				<path fill="#3F3B3C" d="M133.9,7l0.2-0.1C134.1,6.8,134.1,6.8,133.9,7z"/>
				<path fill="#3F3B3C" d="M134.7,6.7l-0.5,0.2c0.1,0.2,0.1,0.5,0.2-0.1C134.4,7.2,134.5,6.9,134.7,6.7z"/>
				<path fill="#3F3B3C" d="M135,7c0.3,0.3,0.6,0.5,0.1,0.7C136,7.7,135.8,7,135,7z"/>
				<path fill="#3F3B3C" d="M137.2,9.6l0.3,0.3l0.3-0.2C137.7,9.7,137.2,9.3,137.2,9.6z"/>
				<path fill="#3F3B3C" d="M131.5,5.1c0,0.2,0.2,0.7,0.2,1l0.3-0.2C131.9,5.7,131.6,5.4,131.5,5.1z"/>
				<path fill="#3F3B3C" d="M131.7,6.1l-0.5,0.3C131.7,6.6,131.7,6.4,131.7,6.1z"/>
				<path fill="#3F3B3C" d="M133.9,8.2c0,0,0.2-0.2,0.4-0.3c0.2-0.2,0.4-0.3,0.4-0.3s-0.2,0.2-0.5,0.3c-0.2,0.2-0.5,0.3-0.5,0.3
					L133.9,8.2z"/>
				<polygon fill="#3F3B3C" points="129.6,4.5 129.9,4 129.4,4.8 				"/>
				<path fill="#3F3B3C" d="M128.3,4.3c0.2-0.5-0.3-1-0.1-1.3c-0.3,0-0.6,0.4-0.9,0.8C127.6,3.7,127.9,3.8,128.3,4.3z"/>
				<path fill="#3F3B3C" d="M126.9,4.4c0.1-0.1,0.3-0.3,0.4-0.6C127.2,3.9,127.1,4.1,126.9,4.4z"/>
				<path fill="#3F3B3C" d="M130.4,6.1c0-0.2-0.1-0.6-0.4-0.9l0.2,0.8C130.2,6.1,130.3,6.1,130.4,6.1z"/>
				<path fill="#3F3B3C" d="M130.2,6.1L130.2,6.1C129.9,6,129.8,6,129.7,6C129.8,6,129.9,6,130.2,6.1z"/>
				<path fill="#3F3B3C" d="M130.4,6.2C130.4,6.1,130.4,6.1,130.4,6.2C130.4,6.2,130.4,6.2,130.4,6.2z"/>
				<path fill="#3F3B3C" d="M132.5,7.4c-0.3,0.3-0.9,0.7-0.3,1.3C132.4,8.3,132.1,7.9,132.5,7.4z"/>
				<path fill="#3F3B3C" d="M130.7,7.1l0.5,0.3c0-0.2-0.1-0.5,0-0.7L130.7,7.1z"/>
				<polygon fill="#3F3B3C" points="130.4,7.3 130.7,7.1 130.5,7 				"/>
				<path fill="#3F3B3C" d="M127.8,5.4c-0.2,0.3-0.5,0.3-0.8,0.3c0.3,0.2,0.6,0.4,0.9,0.4C128,5.8,128.1,5.4,127.8,5.4z"/>
				<path fill="#3F3B3C" d="M129,5.8C128.9,5.8,128.9,5.8,129,5.8C128.9,5.9,129,5.9,129,5.8z"/>
				<path fill="#3F3B3C" d="M124.2,5.3c0,0.1,0,0.1,0,0.2L124.2,5.3L124.2,5.3z"/>
				<path fill="#3F3B3C" d="M128,6.3c0.2,0.2,0.4,0,0.5-0.2c-0.2,0.1-0.4,0.1-0.6,0C128,6.2,128,6.3,128,6.3z"/>
				<path fill="#3F3B3C" d="M126.1,4.7c0.1,0.2,0.3,0.4,0.4,0.6C126.4,4.9,126.2,4.4,126.1,4.7z"/>
				<path fill="#3F3B3C" d="M128.8,5.6C128.8,5.6,128.9,5.6,128.8,5.6C128.8,5.4,128.8,5.5,128.8,5.6z"/>
				<path fill="#3F3B3C" d="M128.8,5.6c-0.1,0.1-0.2,0.3-0.3,0.4c0.1,0,0.3-0.1,0.4-0.2C128.9,5.8,128.8,5.7,128.8,5.6z"/>
				<path fill="#3F3B3C" d="M123.4,11.3c0-0.9,0.6-1.7,1.2-0.8c0.5-0.6,0.2-3.4-0.3-5.1c0,0.4,0,0.7-0.5,1.2c0.2,0.5,1.2,1.2,0.7,2
					c-0.7,0.4-0.6-0.3-0.9-0.8c0.3,1.1-0.9,1.6-0.7,3.2l0.6-0.6C123.4,10.7,123.2,11.1,123.4,11.3z"/>
				<path fill="#3F3B3C" d="M125.3,5.7l0.2-0.1c-0.2-0.2-0.4-0.5-0.8-1.3c-0.4,0.4-0.4,0.7-0.5,1l1.1,0.3L125.3,5.7z"/>
				<path fill="#3F3B3C" d="M126.5,5.7c-0.2,0.9-0.7,1.2-0.4,2.2c0.6,0,0.4-0.7,0.8-1c-1,0.1,0.3-0.4-0.4-1c0.2-0.1,0.4-0.1,0.6-0.1
					c-0.2-0.1-0.4-0.3-0.5-0.5c0,0,0,0,0,0.1l0,0l0,0c0,0.1,0.1,0.2,0,0.1c0,0,0,0,0,0C126.5,5.5,126.5,5.6,126.5,5.7
					c-0.3-0.2,0-0.2,0-0.3c0,0,0-0.1,0-0.1l0,0l-1,0.3C125.7,5.8,126,5.8,126.5,5.7z"/>
				<path fill="#3F3B3C" d="M131.7,10.2c0-0.1,0-0.1,0-0.2C131.6,10.1,131.5,10.2,131.7,10.2z"/>
				<path fill="#3F3B3C" d="M131.2,9.8c0.1-0.1,0.1-0.4,0.4-0.3c0.2,0.2,0,0.3,0,0.6c0.1-0.2,0.5-0.5,0.1-0.9l-0.1,0.1
					c-0.4-0.3-1-1.2-0.9-1.3C130.9,8.6,131,9.1,131.2,9.8z"/>
				<path fill="#3F3B3C" d="M128.8,8.1L128,8.4l0.4,0.7l0-0.4C128.9,9,128.8,8.4,128.8,8.1z"/>
				<polygon fill="#3F3B3C" points="124.1,4.8 124.2,3.8 123.8,5.1 				"/>
				<polygon fill="#3F3B3C" points="123,4.7 123.1,3.9 122.8,4.4 				"/>
				<path fill="#3F3B3C" d="M59.9,12.4l-0.3,0.1C59.8,12.4,59.9,12.4,59.9,12.4z"/>
				<path fill="#3F3B3C" d="M61.7,12.5l0-0.2C61.7,12.4,61.7,12.4,61.7,12.5z"/>
				<path fill="#3F3B3C" d="M95.6,3.9c-0.4-0.9-0.8-2.4-0.7-1.2l0.1,1.1C95.2,3.6,95.4,3.7,95.6,3.9z"/>
				<path fill="#3F3B3C" d="M76.7,10.6c0,0.1,0.1,0.2,0.1,0.2c0.1-0.3,0.2-0.5,0.2-0.7C77,10.3,76.9,10.5,76.7,10.6z"/>
				<path fill="#3F3B3C" d="M76.5,13.8L76,13.3C76.1,13.4,76.3,13.6,76.5,13.8z"/>
				<path fill="#3F3B3C" d="M49.9,13.4L49.6,14C50.1,13.8,49.9,13.7,49.9,13.4z"/>
				<path fill="#3F3B3C" d="M111.6,4c-0.3-0.5-0.6-0.7-0.8-0.8C111.2,4,111.5,5,111.6,4z"/>
				<path fill="#3F3B3C" d="M60.6,8.7c-0.2,0.1-0.2,0.1-0.2,0.2C60.6,8.8,60.7,8.8,60.6,8.7z"/>
				<path fill="#3F3B3C" d="M109.9,3.2c0.1,0.1,0.1,0.2,0.2,0.3c0.2-0.2,0.5-0.3,0.7-0.2C110.5,2.7,110.2,2.4,109.9,3.2z"/>
				<path fill="#3F3B3C" d="M13.7,14.8c0,0-0.1-0.1-0.1-0.1C13.6,14.8,13.6,14.8,13.7,14.8z"/>
				<path fill="#3F3B3C" d="M3.1,9.1C3.2,9,3.4,9,3.5,9C3.5,8.9,3.3,9,3.1,9.1z"/>
				<path fill="#3F3B3C" d="M118.5,3.7C118.8,3.7,118.6,3.6,118.5,3.7L118.5,3.7z"/>
				<path fill="#3F3B3C" d="M119.7,8c-0.1,0.1-0.1,0.3-0.1,0.5C119.6,8.3,119.6,8.1,119.7,8z"/>
				<path fill="#3F3B3C" d="M107.5,10.6L107.5,10.6C107.5,10.9,107.5,10.8,107.5,10.6z"/>
				<path fill="#3F3B3C" d="M118.9,4.2c-0.1-0.1-0.2-0.3-0.3-0.4C118.6,4,118.7,4.1,118.9,4.2z"/>
				<path fill="#3F3B3C" d="M118.8,3.7c0.1,0.1,0.1,0.1,0.2,0.1C119.1,3.7,119,3.6,118.8,3.7z"/>
				<path fill="#3F3B3C" d="M118.2,3.7c0.1,0,0.3,0.1,0.4,0.2c0-0.1-0.1-0.1-0.1-0.2C118.4,3.7,118.4,3.7,118.2,3.7z"/>
				<path fill="#3F3B3C" d="M33.1,13.5C33.1,13.5,33.1,13.4,33.1,13.5C32.8,13.8,32.9,13.7,33.1,13.5z"/>
				<path fill="#3F3B3C" d="M89.4,15.4C89.4,15.3,89.4,15.3,89.4,15.4L89.4,15.4L89.4,15.4z"/>
				<path fill="#3F3B3C" d="M88.5,16.1c0.4-1.3,0.6-1.1,0.8-0.8l-0.3-3L88.5,16.1z"/>
				<path fill="#3F3B3C" d="M55.5,12.5l0.6,0.3c-0.7,0.5-1.2,0.4-0.7,0.8c0.1-1.1,2.3-0.2,2.4-1.3l0.4,0.2c-0.1,0-0.1,0.1-0.2,0
					c0.8,0.5,0.6-0.8,1.6-0.6c0.3,0.1,0.6,0.3,0.3,0.4l0.8-0.2c0.2,0,0.2,0.2-0.1,0.2l1.2,0l0,0c0.2-0.2,0.5-0.4,0.7-0.5
					c0.3,0.2-0.1,0.1-0.1,0.3l0.6-0.2c0.3,0.3-0.3,0.6-0.7,0.5c0.6,1.2,0.5-0.3,1.8,0.6l-0.6,0.1c0.4,0.7,0.9,0.5,1.6,1.1
					c-0.2-0.3-1.4-1.3-0.7-1.5c0.2,0.1,0.5,0.2,0.8,0c0,0.5,0.4,0.4,0.8,0.4l0,0.6c0.5-0.1,0.5-0.4,0.8-0.7c0.6,0.1,0.7,0.7,0.8,1.2
					c0.9,0.3-0.6-1,0.4-0.9c0.7,0.4,1.3,0.2,2.2-0.2c0.5,0.4-0.1,0.5,0.1,0.8l0.5-0.6c0.1,0,0.1,0.2,0.1,0.3c0.4-0.2,0-0.8,0.6-1
					c0.1-0.5,0.4-0.1,0.8,0.3c0.4,0.4,0.8,0.8,1.2,0.3c0.2,0.3-0.1,0.6,0,1c1-0.6,0.9-0.4,1.7-1.5l0.7,0.8c-0.5-0.9,0.1-1.8,0.7-2.6
					c-0.2-0.4-0.4-0.8-0.5-0.9l1-0.7c0.1,0.2,0,0.6-0.1,1.1c0.1-0.1,0.1-0.2,0.2-0.3c0.3,0.4,0.2,1.1-0.1,1.8
					c-0.1-0.2-0.2-0.5-0.3-0.7c-0.2,0.7-0.5,1.4-0.4,2.1c0.1-0.1,0.2-0.2,0.3-0.3c-0.1,0.2-0.1,0.3-0.1,0.5c0,0.1,0.1-0.1,0.3-0.4
					l0.2,1.3l0.1-0.5c0,0,0.3,0.2,0.6,0.5c0.3,0.3,0.6,0.5,0.6,0.5c0.9-1.2,1.7-3.3,3.1-3.9c-0.4,1.1-0.1,1.8-0.1,3.1
					c-0.4-1.4-1.1,0.5-1.8,0.1c0.4,0.2,0.3,0.8,0.2,1c0,0,0.3-0.3,0.7-0.5c0.3-0.3,0.7-0.5,0.7-0.5c0,1.1,0.3,0.8,0.6,1.3
					c-0.3-2.1,1-1.3,1.5-2c0,0.7-0.1,1.5-0.7,1.3c0.7,1.7,0.9-2.5,1.6-1.1c-0.2,0-0.2-0.1-0.3,0.3c0.4-0.6,1.3-0.1,1.1,0.6l-0.2,0
					c1.1,0.3,3.2,0.2,3.4-1.8c0,0.3-0.1,2.4-0.2,2.8l1.9-6.9c-0.2,1.8,0.5,6.1-0.4,7c0.3,0.3,0.6,0.6,1.1,0
					c-0.2-0.3-0.4-2.6-0.2-2.8c0.6,2,0.4,1.1,1.2,2.9c-0.3-0.4,0-3.2,0.4-3.2c-0.1,0.4,0,2.8-0.1,3.1l1-2.8c-0.3,0.5,0,2.4,0.2,3.2
					c-0.1-0.6,0.9,0.1,1.1-0.2L93.8,15c1.1,0.5,1.1-4.1,2.3-3.9c-0.1,0.6-0.3,3.8,0.2,4.2c0.3-1.5,1.2-7.3,2.2-8.6l0.2,0.9l0.8-1
					c-0.5,2.4-1.8,7.3-2.5,9.2c0.4,0.7,0.1,1,0.8,1c0.2,0.8-0.3,1.2-0.5,1.3l1.5,0.6c-0.1-1.8,1.1-1.8,1.1-3.3L98,17
					c-0.1-1.8,0.9-5.1,2-4.8c0.3,0.7-0.2,3.3-0.2,3.9c0.1-0.6,1-1.2,1.1-0.7l-0.4,1c0.6,0.7,1-2.4,1.7-0.6c0.2,0.1,0.7,2.4,0.8,1.3
					c-0.4-2.1-0.5-8.7-0.2-10.4c0.1,0.1,1.3,2,1.6,3.1c0.4,1.7-0.6,4-0.3,5.5c0-0.5,0.2-1.1,0.3-1.3c0.3,0.4-0.1,1.6,0.4,1.4
					c0.1-1.9,1.1,0.2,0.3-1.6c0.5-0.5,0.6,0.4,1.2,0.3c-0.2-1.2,0.6-4.2,1.1-4.7c0,0.5,0.1,1.1,0.1,1.4c1.1,0.2,1.7,1,2.7,1
					c0.1,0.5,0.6,1,0.4,1.8c0.1-0.3,0.3-1,0.6-1c0.6,1.6-0.7,0.3-0.2,2.2c0-1.1,0.8-1.5,1.3-2.2c-0.1-1.7-1.1-0.3-1.5,0.4
					c0-2.3,0.8-4.7,1.9-5.7c0.9-0.5,0.4,1.5,0.5,1.2c1.6,0.4,1.4-3.8,2.7-2.2c0.5,1.4,0,2.8,0.1,3.8c-0.7,0.5-1.1-0.9-1.6-0.9
					l0.6,0.7c-0.2,0.5-0.7,0.8-0.9,0.4c0.4,1.3,2.7,0.3,4,1.4c0.2-0.5,0.6-0.9,0.4-1.5l-0.4,0.2c-0.4-1.1,0.7-1.5,0.2-2
					c0.5-0.7,1.1-1.9,1.9-1.2l0.1,1.5c0-0.4-0.5-0.9-0.7-0.5c0.3-0.6,1.1,2,1.5,0.1l-0.5-1c0.5-0.7,1.2-2.1,1.9-1.6
					c-0.3-1.4-0.2,0.1-0.6-1.6c0.4,2.1-1.7-0.3-1,2c-0.5-2-0.8-0.9-1.5-2.7c0,0.5,0.2,1-0.3,0.7c0,0.1-0.1,0.3-0.1,0.4c0,0,0,0,0,0
					l0,0.1c0,0.1,0,0.1,0,0c0.1,0.2,0.2,0.5,0.3,0.8c-0.3,1.1-1.2,1-1.5,1.6c-0.3-0.3,0.1-0.6,0-1.1l-0.4,0.9c0-1.1-0.9-2-0.1-2.6
					l-0.7-0.1c-0.4-0.7-1-1-1.3-0.6c-0.3-0.3-0.8,1.2-0.5,0.3l-1.1,0.6l0-0.3c-1.1-0.2-2.2,1.9-3.5-0.4c-0.4,0.3-0.7,0.7-1.3,0.3
					l-0.1-1.1c-0.5,0.4-1.4-1.1-1.6,0c-0.5-2.9-2.3-0.7-3.1-1.2l0,1.4c-0.6-0.1-1.1,0.3-1.8,0.9l0,1.2c-0.6,1-1.6-0.8-2.5-0.7
					c0.1-0.5,0.3-0.4,0.5-0.1c-1.1-2.7-2.4,2.1-3.4,0.2c-0.3,0.4-0.4,0.3-0.6,0c0,0,0,0,0.1-0.1c0,0-0.1,0-0.1,0
					c-0.1-0.2-0.2-0.4-0.4-0.6c0.1,0.3,0.2,0.5,0.3,0.6c-0.2,0-0.5,0.2-0.8,0.5l-0.1-1.2c0,0,0,0-0.1,0c-0.3-0.4-0.2,0.6-0.1,1.5
					c-0.1,0.2-0.3,0.5-0.4,0.8c-0.2-2-0.8,0.7-1.1-1.4c-0.2,1-1.5,0.9-1.6,3c0-0.3-0.1-0.4,0.1-0.4c-0.3-0.2-0.7-0.5-1,0.2L90.6,6
					l-0.7,2.1c-0.4-0.9-0.6-1.4-0.2-2.6c-1.1,1.8-0.9,0.7-1.7,2.5L88,7c-0.3,0.1-0.8,1.3-1,0.6c-0.7-1.7-3.5-0.1-5.4-1.4
					c0.4,2.4-0.9-1-0.9,0.9c-0.1-0.6-0.4-0.8-0.1-1.4c-0.9,0.7-1.4-0.6-2.1,0.9c-0.1-0.5,0.2-0.8,0.1-1.1c-0.1,0.1-0.3,0.5-0.4,0.2
					c-0.1-0.3,0.1-0.5,0.3-0.7c-1,0.3-1.1,1.9-1.1,3.3c-0.5-0.7-0.7-0.5-1.1,0.4c-0.2-0.4-0.5-0.9,0.1-1.1c-0.3,0-2-0.4-2.1,0.7
					c-0.1-0.2-0.5,0-0.6,0.1c-0.7,0-0.8-0.1-1.6,0.1l0.2,0.1c-0.3,1.1-0.6,0.3-1.2,0.5l0-0.1c-1.4-0.6-0.6,0.4-1.9-0.3l0.1,0.6
					c-0.1,1.2-1.2-0.6-2-0.1l0.3,0.3c-0.4,0.4-1.2-1.4-1.6-1.5c-0.1-0.1,0.1-0.2,0.3-0.3c-1.1-0.5-0.1,0.7-1,0.9
					c-0.2-0.3,0.2-0.9-0.4-0.8c-0.3-0.2-1.6,1.2-2.4,0.7c0.2,0.2,0.3,0.4-0.1,0.6c-0.6,0.1-1.6-0.7-2.1,0c-0.1-0.1-0.1-0.1-0.1-0.2
					c-0.5,0.2-1.5,0.3-1.7,0.7c-0.4-1.3-2.8,0.6-2.8-0.6l-1.4,0l0-0.1C53.6,8.7,53.3,9,53,9.3c-0.2-0.1-0.1-0.2,0-0.3
					c-1.3-0.4-1.4-0.4-2.5,0.3l-0.1-0.5c-0.1,0.1-0.6-0.1-1.2-0.4c-0.6-0.2-1.3-0.5-2-0.3c0-0.1,0-0.2,0.1-0.3
					c-0.7,0.3-1.6-0.3-2.3-0.8c-0.7-0.4-1.4-0.7-1.6,0.7c0,0-0.2,0.1-0.5,0.3c-0.2,0.2-0.5,0.3-0.5,0.3c1.2,0.3-0.2,1.3,0.3,1.8
					c-0.5,0.2-1.2-1-0.7-1.1l0.1,0.2c0.2-1.6-1.5-0.7-1.5-1.9c-2.4-0.2-4.8-1.6-7-1.9l0.3,1.7l-0.8-0.1c-0.2-0.4-0.3-1.3,0.3-1.2
					c-0.3-1-0.9,0.7-1,1.1c-1.1-0.7,0.4-2,0.1-2L32,5.1l0.1,0.2C31.7,6,31.7,6.7,31,6.6c-0.4-0.3-0.2-1.1-0.4-1.1
					c0-0.1-0.1-0.2-0.3-0.1l-1-0.1l0.4,1.4c-0.4,0.7-0.9-0.1-0.5,1.5c-0.7-2.4-3.7-0.8-4.1-1.5c-0.6,1-1.2,1-2,0.9
					c0.2,0.3,0.3,1.7-0.4,1.5c0.2-3-1.2-1.3-1.7-3.3c0.5,1.3-1.9,0.5-1.1,2.4c-0.5-0.2,0-1.1-0.4-1.7c-1.3,1.2-2.9-0.4-4.5,0.1
					c0,0.3,0.2,0.8-0.1,1.3l-0.8-1.5c-0.3,0.2-0.3,1.8-0.9,0.8c0.1,0.2,0.2,0.6,0,0.7c-1.6-0.6-3.2,0-4.8,0.3
					C6.9,8.7,5.3,8.8,3.7,8.6C4.2,8.7,3.9,8.9,3.5,9c0.2,0,0,0.3,0,0.5c0,0-1.3-0.2-1.3-0.2C2,9.7,0.8,9.7,0.7,10l0.4-0.1
					c-0.3,0.2-0.1,0.3,0.2,0.5c0.3,0.2,0.6,0.5,0.5,0.7c0.3-0.2,0.7,0,1.2,0.3c0.5,0.3,1,0.6,1.5,0.2c0.2,0.2-0.2,0.2-0.1,0.5
					C4.7,11.8,5,11.7,5.6,12l-0.1,0.1c1.6,0.2,2.3,0.8,4.2,1.5l-0.1-0.7c0.4,0.1,0.5,0.4,0.7,0.6c0.5-1-1.1-0.2-0.7-1.3
					c0.3,0.7,1,0.8,1.6,1c0.7,0.1,1.3,0.3,1.5,1.2c0.6,0.1-0.2-1,0.4-0.9l0.2,0.5l0.2-0.6c0.4,0.2,0.6,0.8,0.6,1.3
					c-0.1-0.1-0.3,0.1-0.4,0.1c0.5,0.7,1.5,0,1.6,0.3l-0.6-0.4c1.7-0.3,3.7,0.7,5.3-0.4l-0.1-0.5c1.2-0.8,1,0.6,2.3,0.3l0,0.1
					c0.3-0.5,0.6-0.7,1-0.6c-0.3,0.6,0.6,1.2,0.2,1.8c1.3-0.9,0.7-0.7,1.5-2.6l0.2,0.8c0.3-0.8,0.3-1.2,1-1.4
					c-0.6,0.7,0.4,1.3-0.2,2.3c1.4,1.9,2.1-1.8,2.7,0.9c0.6-2.4-1.2-1.4-0.9-1.9c-0.3-0.8,0.5-1.8,1-1.5c0.5,0.1,0.8,3.1,1.9,3
					c-0.1,0-0.1,0.2-0.2,0.2c0.4,0.6,0.8-0.8,1.4,0.1c0.3-1.5,0.7,0.1,0.8-1.8l-1,0.5c0.6-0.5,1.1-2.6,2.1-1.6
					c-0.1,0.4-0.4,0.9-0.6,1.1c0.3,0.5,0.5-0.4,0.8,0.2c-0.1,1.8-1.3,0.5-1.9,1.9c0.3,0.8,1.2-1.4,0.9,0.6c0.5-2.5,1.1,0.2,1.9-1.7
					l-0.1,1.1c0.1-0.2,0.4-0.7,0.6-0.7l-0.4,1.4c0.6-1.2,1.2,0.9,1.8,0.1c-1.3,0.2-0.3-1.2-0.8-1.9c1.5-1.5,0.9,2.6,2.6,1.7
					c-0.2,0.2-0.9-0.4-0.5-0.9c0.3,0.2,0.8,0.4,1,0.9c1.1-0.4-0.2-0.9,0.3-1.6c0.4,1.1,0.6-0.6,1.1-1l0,0.9c1.3,0.3,0.3-1.9,1.5-1.4
					l-0.5,1.3l0.6-0.4l-0.1,1c0.7-0.8,0.9-0.7,1.5-0.6c-0.2-0.5,0.1-1.4,0.7-1.5c0.4,0.4-0.2,0.7,0.6,0.5c-0.2,0.5-0.4,1.1-0.7,0.5
					c0,0.2-0.2,0.5-0.2,0.8c0.4,0.4,1.1-0.2,1.4-0.2c-0.1,0-0.3,0-0.3-0.1c0,0,0.3-0.3,0.6-0.6c0.3-0.3,0.6-0.6,0.6-0.6
					c0.2,0.2,0,0.4-0.1,0.7c0.2-0.1,0.4-0.5,0.8-0.6c-0.1,0.5-0.1,1-0.6,1.4c0,0,0.3-0.2,0.6-0.4c0.3-0.2,0.6-0.4,0.6-0.4
					c0.1,0.2,0.6,0.4,0.4,0.7c0.6,0.1,1.5-1.2,2.4-1c0-0.1,0.1-0.2,0.3-0.3c0.8,0,1.5,0.3,2.4-0.3l0.5,0.6c0.7-0.2-0.7-0.7,0.5-1
					c0.9-0.2,0.3,0.5,0.6,0.6c0.4-0.3,1.2-1,1.9-0.5C56,12.5,55.8,12.4,55.5,12.5z M64.5,12.5c-0.2,0.1-0.5,0.3-0.6,0.1
					C64,12.1,64.2,12.3,64.5,12.5z M78.1,12.4c-0.1,0.3-0.3,0.1-0.6-0.2C77.7,12.1,77.9,12.2,78.1,12.4z M115.9,4.4
					C115.9,4.5,115.9,4.5,115.9,4.4C115.5,4,115.7,4.2,115.9,4.4z M116.7,5c0.1-0.2,0.1-0.3,0-0.5c-0.1,0.3-0.2,0.3-0.4,0.2
					C116.4,5.1,116.5,5.3,116.7,5z M30.6,5.9l0.2,0.3C30.4,6.6,30.5,6.3,30.6,5.9z"/>
				<path fill="#3F3B3C" d="M76.5,13.4c0-0.2-0.1-0.3-0.1-0.5C76.4,13.1,76.4,13.3,76.5,13.4z"/>
				<path fill="#3F3B3C" d="M50,13.3C50,13.3,50,13.3,50,13.3C49.9,13.4,49.9,13.4,50,13.3L50,13.3z"/>
				<path fill="#3F3B3C" d="M104.3,16c-0.2-0.2-0.3-0.4-0.3-0.7C104,15.6,104,15.9,104.3,16z"/>
				<path fill="#3F3B3C" d="M121,3.5l-0.5,0.2c0.2,0,0.3,0.2,0.5,0.4C120.9,3.9,120.8,3.5,121,3.5z"/>
				<path fill="#3F3B3C" d="M125.4,10.6c0.1-0.1,0.2,0,0.2-0.1l0-0.5C125.3,10,125.1,10.4,125.4,10.6z"/>
				<path fill="#3F3B3C" d="M121.4,7.3c0,1,0.4,0.6,0.7,0.5c0,0,0,0-0.1,0C122.2,6.5,121.8,6.9,121.4,7.3z"/>
				<path fill="#3F3B3C" d="M122.3,7.8c0.1,0,0.2-0.1,0.3,0C122.6,7.3,122.5,7.7,122.3,7.8z"/>
				<path fill="#3F3B3C" d="M117.7,4.5c0.2,0.3,0.1-1.3,0.2-0.9C118.1,2.3,116.8,5,117.7,4.5z"/>
				<polygon fill="#3F3B3C" points="121.7,10.5 121.6,9.3 121.4,10.2 				"/>
				<path fill="#3F3B3C" d="M118.9,9.6l0.6,0.3c0-0.2,0.1-0.3,0.2-0.4C119.3,9.4,118.9,9.2,118.9,9.6z"/>
				<path fill="#3F3B3C" d="M119.6,9.5c0.2,0,0.4,0,0.5-0.2C120,9.3,119.8,9.3,119.6,9.5z"/>
				<polygon fill="#3F3B3C" points="121,10.8 120.8,10.6 120.4,10.5 				"/>
				<path fill="#3F3B3C" d="M112.7,9.2l-0.6,0.4c-0.1,0.5,0.1,0.7,0.3,0.6C112.6,9.8,112.8,9.7,112.7,9.2z"/>
				<path fill="#3F3B3C" d="M114.6,12.8c-0.2-0.3-0.2-0.6-0.3-1l0,1.6L114.6,12.8z"/>
				<path fill="#3F3B3C" d="M112.8,13.3c-0.1,0.5-0.9,1.4-0.1,1.2C112.7,14.1,113.4,13.6,112.8,13.3z"/>
				<polygon fill="#3F3B3C" points="103.3,11.2 103.5,11.2 103.5,8.3 				"/>
				<path fill="#3F3B3C" d="M95,17.5c0.7,0.7,0.2-1.6,0.8-0.8c0.2-0.6-0.5-0.7-0.4-1.2C95,16.1,94.8,15.8,95,17.5z"/>
				<path fill="#3F3B3C" d="M95.5,15.5c0.1-0.1,0.1-0.2,0.2-0.4C95.6,15.3,95.5,15.4,95.5,15.5z"/>
				<polygon fill="#3F3B3C" points="1.4,9.3 0.9,9.4 1.2,9.4 				"/>
				<path fill="#3F3B3C" d="M0.4,9.9L0.3,9.7C0.3,9.7,0,10,0,10C0.1,10,0.4,9.9,0.4,9.9z"/>
				<path fill="#3F3B3C" d="M65.8,13.9l0-0.1c-0.1-0.2-0.2-0.2-0.4-0.3L65.8,13.9z"/>
				<polygon fill="#3F3B3C" points="59.3,12.8 59.4,12.8 59.2,12.4 				"/>
				<path fill="#3F3B3C" d="M53.9,13.6c0.2,0,0.5-0.1,0.7-0.1C54.1,13.6,53.8,13,53.9,13.6z"/>
			</g>
		</g>
	</g>
</g>
</svg>
