<?xml version="1.0" encoding="utf-8"?>
<!-- Generator: Adobe Illustrator 17.1.0, SVG Export Plug-In . SVG Version: 6.00 Build 0)  -->
<!DOCTYPE svg PUBLIC "-//W3C//DTD SVG 1.1//EN" "http://www.w3.org/Graphics/SVG/1.1/DTD/svg11.dtd">
<svg version="1.1" id="Layer_1" xmlns="http://www.w3.org/2000/svg" xmlns:xlink="http://www.w3.org/1999/xlink" x="0px" y="0px"
	 viewBox="0 0 144.4 18.9" enable-background="new 0 0 144.4 18.9" xml:space="preserve">
<g>
	<g>
		<g>
			<g>
				<path fill="#3F3B3C" d="M144.2,8.8c0.2,0.1,0.1-0.1,0.2-0.1C144,8.6,144.2,8.8,144.2,8.8z"/>
				<path fill="#3F3B3C" d="M140.7,8.5l0.1-0.1c0,0-0.1,0.1-0.3,0.1c-0.1,0.1-0.3,0.1-0.3,0.1L140.7,8.5z"/>
				<path fill="#3F3B3C" d="M137.4,8c0.3,0.7,1.2,0,1.8,0.4l0.1,0.1l0.3-0.4C138.8,8,137.9,8.2,137.4,8z"/>
				<path fill="#3F3B3C" d="M135.6,5.9c0.1,0.4-0.4,0.2,0.4,0.2c0,0-0.1-0.1-0.1-0.1C135.9,6,135.8,6,135.6,5.9z"/>
				<path fill="#3F3B3C" d="M136,6C136.3,6.1,135.7,5.7,136,6L136,6z"/>
				<path fill="#3F3B3C" d="M134.4,5.8l0.5-0.2c-0.1-0.2-0.5-0.4-0.4-0.5C134,5.2,134.1,5.4,134.4,5.8z"/>
				<path fill="#3F3B3C" d="M133.9,6.4l0.2-0.1C134.1,6.2,134.1,6.2,133.9,6.4z"/>
				<path fill="#3F3B3C" d="M134.7,6.1l-0.5,0.2c0.1,0.2,0.1,0.5,0.2-0.1C134.4,6.5,134.5,6.3,134.7,6.1z"/>
				<path fill="#3F3B3C" d="M135,6.3c0.3,0.2,0.6,0.4,0.1,0.6C136,7,135.8,6.4,135,6.3z"/>
				<path fill="#3F3B3C" d="M137.2,8.7l0.3,0.2l0.3-0.2C137.7,8.8,137.2,8.5,137.2,8.7z"/>
				<path fill="#3F3B3C" d="M131.5,4.7c0,0.2,0.2,0.6,0.2,0.9l0.3-0.2C131.9,5.2,131.6,5,131.5,4.7z"/>
				<path fill="#3F3B3C" d="M131.7,5.6l-0.5,0.3C131.7,6,131.7,5.8,131.7,5.6z"/>
				<path fill="#3F3B3C" d="M133.9,7.4c0,0,0.2-0.1,0.4-0.3c0.2-0.1,0.4-0.3,0.4-0.3s-0.2,0.1-0.5,0.3c-0.2,0.1-0.5,0.3-0.5,0.3
					L133.9,7.4z"/>
				<polygon fill="#3F3B3C" points="129.6,4.2 129.9,3.7 129.4,4.4 				"/>
				<path fill="#3F3B3C" d="M128.3,4c0.2-0.4-0.3-0.9-0.1-1.2c-0.3,0-0.6,0.4-0.9,0.7C127.6,3.4,127.9,3.5,128.3,4z"/>
				<path fill="#3F3B3C" d="M126.9,4c0.1-0.1,0.3-0.3,0.4-0.5C127.2,3.6,127.1,3.8,126.9,4z"/>
				<path fill="#3F3B3C" d="M130.4,5.6c0-0.2-0.1-0.5-0.4-0.8l0.2,0.7C130.2,5.6,130.3,5.6,130.4,5.6z"/>
				<path fill="#3F3B3C" d="M130.2,5.6L130.2,5.6c-0.2-0.1-0.4-0.1-0.4-0.1C129.8,5.5,129.9,5.5,130.2,5.6z"/>
				<path fill="#3F3B3C" d="M130.4,5.6C130.4,5.6,130.4,5.6,130.4,5.6C130.4,5.7,130.4,5.7,130.4,5.6z"/>
				<path fill="#3F3B3C" d="M132.5,6.7c-0.3,0.3-0.9,0.6-0.3,1.2C132.4,7.5,132.1,7.2,132.5,6.7z"/>
				<path fill="#3F3B3C" d="M130.7,6.5l0.5,0.2c0-0.2-0.1-0.4,0-0.6L130.7,6.5z"/>
				<polygon fill="#3F3B3C" points="130.4,6.7 130.7,6.5 130.5,6.4 				"/>
				<path fill="#3F3B3C" d="M127.8,4.9c-0.2,0.3-0.5,0.3-0.8,0.3c0.3,0.2,0.6,0.3,0.9,0.4C128,5.3,128.1,5,127.8,4.9z"/>
				<path fill="#3F3B3C" d="M129,5.3C128.9,5.3,128.9,5.3,129,5.3C128.9,5.4,129,5.4,129,5.3z"/>
				<path fill="#3F3B3C" d="M124.2,4.8c0,0,0,0.1,0,0.2L124.2,4.8L124.2,4.8z"/>
				<path fill="#3F3B3C" d="M128,5.7c0.2,0.2,0.4,0,0.5-0.2c-0.2,0-0.4,0.1-0.6,0C128,5.7,128,5.7,128,5.7z"/>
				<path fill="#3F3B3C" d="M126.1,4.3c0.1,0.2,0.3,0.3,0.4,0.5C126.4,4.5,126.2,4.1,126.1,4.3z"/>
				<path fill="#3F3B3C" d="M128.8,5.1C128.8,5.1,128.9,5.1,128.8,5.1C128.8,4.9,128.8,5,128.8,5.1z"/>
				<path fill="#3F3B3C" d="M128.8,5.1c-0.1,0.1-0.2,0.2-0.3,0.4c0.1,0,0.3-0.1,0.4-0.2C128.9,5.3,128.8,5.2,128.8,5.1z"/>
				<path fill="#3F3B3C" d="M123.4,10.2c0-0.8,0.6-1.5,1.2-0.7c0.5-0.6,0.2-3.1-0.3-4.6c0,0.3,0,0.6-0.5,1.1
					c0.2,0.5,1.2,1.1,0.7,1.8c-0.7,0.4-0.6-0.3-0.9-0.7c0.3,1-0.9,1.4-0.7,2.9l0.6-0.5C123.4,9.6,123.2,10,123.4,10.2z"/>
				<path fill="#3F3B3C" d="M125.3,5.2l0.2-0.1c-0.2-0.2-0.4-0.5-0.8-1.1c-0.4,0.3-0.4,0.6-0.5,0.8l1.1,0.2L125.3,5.2z"/>
				<path fill="#3F3B3C" d="M126.5,5.2c-0.2,0.8-0.7,1.1-0.4,1.9c0.6,0,0.4-0.6,0.8-0.9C125.9,6.3,127.2,5.9,126.5,5.2
					c0.2,0,0.4,0,0.6,0c-0.2-0.1-0.4-0.3-0.5-0.4c0,0,0,0,0,0.1l0,0l0,0c0,0.1,0.1,0.2,0,0.1c0,0,0,0,0,0
					C126.5,5.1,126.5,5.1,126.5,5.2c-0.3-0.2,0-0.2,0-0.3c0,0,0-0.1,0-0.1l0,0l-1,0.3C125.7,5.3,126,5.3,126.5,5.2z"/>
				<path fill="#3F3B3C" d="M131.7,9.2c0-0.1,0-0.1,0-0.1C131.6,9.2,131.5,9.2,131.7,9.2z"/>
				<path fill="#3F3B3C" d="M131.2,8.9c0.1-0.1,0.1-0.3,0.4-0.3c0.2,0.2,0,0.3,0,0.5c0.1-0.2,0.5-0.4,0.1-0.8l-0.1,0.1
					c-0.4-0.2-1-1.1-0.9-1.2C130.9,7.8,131,8.3,131.2,8.9z"/>
				<path fill="#3F3B3C" d="M128.8,7.4L128,7.7l0.4,0.7l0-0.4C128.9,8.1,128.8,7.7,128.8,7.4z"/>
				<polygon fill="#3F3B3C" points="124.1,4.4 124.2,3.5 123.8,4.7 				"/>
				<polygon fill="#3F3B3C" points="123,4.3 123.1,3.5 122.8,4 				"/>
				<path fill="#3F3B3C" d="M59.9,13.9L59.7,14C59.8,14,59.9,13.9,59.9,13.9z"/>
				<path fill="#3F3B3C" d="M61.7,14l0-0.4C61.7,13.8,61.7,14,61.7,14z"/>
				<path fill="#3F3B3C" d="M95.6,2.8c-0.4-1-0.8-2.5-0.7-1.3l0.1,1.2C95.2,2.4,95.4,2.5,95.6,2.8z"/>
				<path fill="#3F3B3C" d="M76.7,9.7c0,0.1,0.1,0.2,0.1,0.3c0.1-0.3,0.2-0.6,0.2-0.9C77,9.3,76.9,9.5,76.7,9.7z"/>
				<path fill="#3F3B3C" d="M76.5,13.6L76,13C76.1,13.2,76.3,13.4,76.5,13.6z"/>
				<path fill="#3F3B3C" d="M49.9,14.1l-0.3,0.7C50.1,14.8,49.9,14.5,49.9,14.1z"/>
				<path fill="#3F3B3C" d="M111.6,3.5c-0.3-0.4-0.6-0.6-0.8-0.7C111.2,3.5,111.5,4.4,111.6,3.5z"/>
				<path fill="#3F3B3C" d="M60.6,5.3c-0.2,0.2-0.2,0.3-0.2,0.5C60.6,5.7,60.7,5.5,60.6,5.3z"/>
				<path fill="#3F3B3C" d="M109.9,2.7c0.1,0.1,0.1,0.2,0.2,0.3c0.2-0.2,0.5-0.3,0.7-0.2C110.5,2.3,110.2,2,109.9,2.7z"/>
				<path fill="#3F3B3C" d="M13.7,11.2C13.6,11.2,13.6,11.1,13.7,11.2C13.6,11.2,13.6,11.2,13.7,11.2z"/>
				<path fill="#3F3B3C" d="M3.1,8.8c0.1,0,0.3,0,0.4,0C3.5,8.7,3.3,8.7,3.1,8.8z"/>
				<path fill="#3F3B3C" d="M118.5,3.3C118.8,3.3,118.6,3.2,118.5,3.3L118.5,3.3z"/>
				<path fill="#3F3B3C" d="M119.7,7.3c-0.1,0.1-0.1,0.2-0.1,0.5C119.6,7.5,119.6,7.3,119.7,7.3z"/>
				<path fill="#3F3B3C" d="M107.5,9.6L107.5,9.6C107.5,9.9,107.5,9.8,107.5,9.6z"/>
				<path fill="#3F3B3C" d="M118.9,3.8c-0.1-0.1-0.2-0.2-0.3-0.3C118.6,3.6,118.7,3.7,118.9,3.8z"/>
				<path fill="#3F3B3C" d="M118.8,3.4c0.1,0.1,0.1,0.1,0.2,0.1C119.1,3.3,119,3.2,118.8,3.4z"/>
				<path fill="#3F3B3C" d="M118.2,3.4c0.1,0,0.3,0.1,0.4,0.1c0-0.1-0.1-0.1-0.1-0.2C118.4,3.3,118.4,3.4,118.2,3.4z"/>
				<path fill="#3F3B3C" d="M33.1,11.1C33.1,11.1,33.1,11,33.1,11.1C32.8,11.2,32.9,11.2,33.1,11.1z"/>
				<path fill="#3F3B3C" d="M89.4,14.6C89.4,14.6,89.4,14.6,89.4,14.6C89.4,14.5,89.4,14.5,89.4,14.6L89.4,14.6z"/>
				<path fill="#3F3B3C" d="M88.5,15.4c0.4-1.3,0.6-1.2,0.8-0.9l-0.3-3.2L88.5,15.4z"/>
				<path fill="#3F3B3C" d="M55.5,13.9l0.6,0.7c-0.7,1.1-1.2,0.7-0.7,1.7c0.1-2.4,2.3-0.1,2.4-2.5l0.4,0.5c-0.1,0-0.1,0.1-0.2,0.1
					c0.8,1.2,0.6-1.8,1.6-1.4c0.3,0.2,0.6,0.6,0.3,0.9l0.8-0.6c0.2,0.1,0.2,0.5-0.1,0.4l1.2-0.2l0,0.1c0.2-0.4,0.5-1,0.7-1.3
					c0.3,0.4-0.1,0.3-0.1,0.6l0.6-0.6c0.3,0.7-0.3,1.3-0.7,1.2c0.6,2.6,0.5-0.6,1.8,0.9l-0.6,0.3c0.4,1.5,0.9,1,1.6,2
					c-0.2-0.5-1.4-2.4-0.7-3c0.2,0.2,0.5,0.3,0.8-0.2c0,0.9,0.4,0.7,0.8,0.7l0,1.3c0.5-0.3,0.5-1,0.8-1.5c0.6,0.1,0.7,1.1,0.8,2
					c0.9,0.3-0.6-1.6,0.4-1.8c0.7,0.5,1.3,0,2.2-0.7c0.5,0.5-0.1,0.8,0.1,1.2l0.5-1c0.1,0,0.1,0.4,0.1,0.5c0.4-0.4,0-1.3,0.6-1.7
					c0.2-1.5,1.3,2.2,2,0.5c0.2,0.4-0.1,0.8,0,1.3c1-1.1,0.9-0.8,1.7-2.2L76,13c-0.5-1.1,0.1-2.3,0.7-3.3c-0.2-0.5-0.4-0.9-0.5-1.2
					l1-0.8c0.1,0.2,0,0.7-0.1,1.3c0.1-0.1,0.1-0.2,0.2-0.3c0.3,0.5,0.2,1.3-0.1,2.1c-0.1-0.3-0.2-0.6-0.3-0.9
					c-0.2,0.8-0.5,1.8-0.4,2.6c0.1-0.2,0.2-0.3,0.3-0.4c-0.1,0.2-0.1,0.4-0.1,0.6c0,0.1,0.1-0.2,0.3-0.5l0.2,1.6l0.1-0.6l1.2,1.1
					c0.9-1.5,1.7-3.9,3.1-4.6c-0.4,1.2-0.1,2-0.1,3.4c-0.4-1.5-1.1,0.6-1.8,0.2c0.4,0.2,0.3,0.8,0.2,1.1l1.3-1.3
					c0,1.2,0.3,0.9,0.6,1.4c-0.3-2.3,1-1.5,1.5-2.2c0,0.8-0.1,1.6-0.7,1.4c0.7,1.8,0.9-2.7,1.6-1.2c-0.2,0-0.2-0.1-0.3,0.3
					c0.4-0.7,1.3-0.1,1.1,0.6l-0.2,0c1.1,0.3,3.2,0.2,3.4-2c0,0.3-0.1,2.6-0.2,3l1.9-7.2c-0.2,1.9,0.5,6.4-0.4,7.4
					c0.3,0.3,0.6,0.6,1.1,0c-0.2-0.3-0.4-2.7-0.2-2.9c0.6,2.1,0.4,1.1,1.2,3c-0.3-0.4,0-3.4,0.4-3.3c-0.1,0.4,0,3-0.1,3.3l1-2.9
					c-0.3,0.5,0,2.5,0.2,3.4c-0.1-0.6,0.9,0.1,1.1-0.2l-0.4-0.7c1.1,0.5,1.1-4.2,2.3-4c-0.1,0.6-0.3,3.8,0.2,4.2
					c0.3-1.5,1.2-7.5,2.2-8.7l0.2,0.9l0.8-1c-0.5,2.4-1.8,7.3-2.5,9.2c0.4,0.7,0.1,1.1,0.8,1c0.2,0.8-0.3,1.3-0.5,1.3l1.5,0.6
					c-0.1-1.8,1.1-1.8,1.1-3.3L98,16.1c-0.1-1.8,0.9-5.2,2-4.8c0.3,0.7-0.2,3.2-0.2,3.9c0.1-0.6,1-1.2,1.1-0.8l-0.4,1
					c0.6,0.7,1-2.4,1.7-0.7c0.2,0.1,0.7,2.3,0.8,1.2c-0.4-2.1-0.5-8.5-0.2-10c0.1,0.1,1.3,2,1.6,3c0.4,1.6-0.6,3.8-0.3,5.2
					c0-0.5,0.2-1.1,0.3-1.3c0.3,0.4-0.1,1.5,0.4,1.3c0.1-1.8,1.1,0.1,0.3-1.5c0.5-0.5,0.6,0.4,1.2,0.3c-0.2-1.2,0.6-4,1.1-4.5
					c0,0.5,0.1,1,0.1,1.3c1.1,0.2,1.7,1,2.7,1c0.1,0.4,0.6,0.9,0.4,1.7c0.1-0.3,0.3-0.9,0.6-0.9c0.6,1.5-0.7,0.3-0.2,2
					c0-1,0.8-1.4,1.3-2c-0.1-1.5-1.1-0.3-1.5,0.4c0-2.1,0.8-4.4,1.9-5.3c0.9-0.5,0.4,1.4,0.5,1.1c1.6,0.4,1.4-3.5,2.7-2
					c0.5,1.3,0,2.5,0.1,3.4c-0.7,0.5-1.1-0.8-1.6-0.8l0.6,0.6c-0.2,0.4-0.7,0.8-0.9,0.4c0.4,1.2,2.7,0.2,4,1.2
					c0.2-0.4,0.6-0.8,0.4-1.3l-0.4,0.2c-0.4-1,0.7-1.3,0.2-1.8c0.5-0.7,1.1-1.7,1.9-1.1l0.1,1.3c0-0.4-0.5-0.8-0.7-0.4
					c0.3-0.6,1.1,1.8,1.5,0.1l-0.5-0.9c0.5-0.6,1.2-1.9,1.9-1.4c-0.3-1.3-0.2,0.1-0.6-1.4c0.4,1.9-1.7-0.3-1,1.8
					c-0.5-1.8-0.8-0.8-1.5-2.5c0,0.4,0.2,0.9-0.3,0.6c0,0.1-0.1,0.3-0.1,0.4c0,0,0,0,0,0l0,0.1c0,0.1,0,0.1,0,0
					c0.1,0.2,0.2,0.5,0.3,0.7c-0.3,1-1.2,0.9-1.5,1.4c-0.3-0.2,0.1-0.5,0-1l-0.4,0.8c0-1-0.9-1.8-0.1-2.3l-0.7-0.1
					c-0.4-0.6-1-0.9-1.3-0.5c-0.3-0.3-0.8,1.1-0.5,0.3l-1.1,0.6l0-0.3c-1.1-0.3-2.2,1.7-3.5-0.4c-0.4,0.3-0.7,0.6-1.3,0.2l-0.1-1
					c-0.5,0.3-1.4-1.1-1.6-0.1c-0.5-2.8-2.3-0.7-3.1-1.3l0,1.4c-0.6-0.1-1.1,0.3-1.8,0.8l0,1.2c-0.6,1-1.6-0.9-2.5-0.8
					c0.1-0.5,0.3-0.3,0.5-0.1c-1.1-2.7-2.4,2-3.4,0c-0.3,0.4-0.4,0.3-0.6,0c0,0,0,0,0.1-0.1c0,0-0.1,0-0.1,0
					c-0.1-0.2-0.2-0.4-0.4-0.6c0.1,0.3,0.2,0.5,0.3,0.6c-0.2,0-0.5,0.2-0.8,0.5l-0.1-1.3c0,0,0,0-0.1,0c-0.3-0.5-0.2,0.6-0.1,1.6
					c-0.1,0.2-0.3,0.5-0.4,0.8c-0.2-2.1-0.8,0.7-1.1-1.5c-0.2,1.1-1.5,0.9-1.6,3.1c0-0.3-0.1-0.4,0.1-0.4c-0.3-0.2-0.7-0.5-1,0.1
					l-0.1-1.6l-0.7,2.1c-0.4-0.9-0.6-1.5-0.2-2.7C88.7,6.1,88.9,5,88,6.8l0-1c-0.3,0.1-0.8,1.4-1,0.6c-0.7-1.8-3.5-0.1-5.4-1.7
					c0.4,2.7-0.9-1.2-0.9,0.9c-0.1-0.6-0.4-1-0.1-1.5c-0.9,0.7-1.4-0.9-2.1,0.9c-0.1-0.6,0.2-0.9,0.1-1.3c-0.1,0.1-0.3,0.6-0.4,0.2
					c-0.1-0.4,0.1-0.5,0.3-0.8c-1,0.2-1.1,2.1-1.1,3.8c-0.5-0.8-0.7-0.7-1.1,0.5c-0.2-0.6-0.5-1.1,0.1-1.4c-0.3-0.1-2-0.7-2.1,0.6
					c-0.1-0.3-0.5-0.1-0.6,0.1c-0.7-0.1-0.8-0.2-1.6,0l0.2,0.2c-0.3,1.6-0.6,0.4-1.2,0.6l0-0.2c-1.4-1.1-0.6,0.6-1.9-0.7l0.1,1
					c-0.1,2.1-1.2-1.2-2-0.4l0.3,0.5c-0.4,0.7-1.2-2.8-1.6-3c-0.1-0.2,0.1-0.3,0.3-0.4c-1.1-1.1-0.1,1.2-1,1.6
					c-0.2-0.7,0.2-1.7-0.4-1.8c-0.3-0.5-1.6,2.2-2.4,1c0.2,0.5,0.3,1-0.1,1.4c-0.6,0.2-1.6-1.8-2.1-0.2c-0.1-0.1-0.1-0.3-0.1-0.4
					c-0.5,0.4-1.5,0.7-1.7,1.5c-0.4-3-2.8,1.5-2.8-1.2l-1.4,0.2l0-0.3c-0.9-0.1-1.2,0.5-1.5,1.1c-0.2-0.2-0.1-0.4,0-0.6
					c-1.3-0.5-1.4-0.3-2.5,0.9l-0.1-0.8c-0.3,0.5-1.9-1.2-3.2-0.2c0-0.1,0-0.2,0.1-0.4c-1.4,0.9-3.4-1.9-4,0.8l-0.9,0.7
					c1.2,0.2-0.2,1.1,0.3,1.6c-0.5,0.2-1.2-0.8-0.7-0.9l0.1,0.1c0.2-1.4-1.5-0.4-1.5-1.4c-2.4,0.1-4.8-0.4-7-0.3l0.3,0.9l-0.8,0
					C32.9,7.5,32.8,7,33.3,7c-0.3-0.5-0.9,0.5-1,0.7c-1.1-0.3,0.4-1,0.1-1.1L32,6.7l0.1,0.1c-0.4,0.4-0.4,0.8-1.1,0.7
					C30.6,7.4,30.8,7,30.6,7c0-0.1-0.1-0.1-0.3,0l-1,0l0.4,0.6c-0.4,0.3-0.9,0-0.5,0.7c-0.7-1.1-3.7-0.3-4.1-0.6
					c-0.6,0.5-1.2,0.5-2,0.4c0.2,0.1,0.3,0.7-0.4,0.7c0.2-1.3-1.2-0.5-1.7-1.4c0.5,0.6-1.9,0.2-1.1,1c-0.5-0.1,0-0.4-0.4-0.7
					c-1.3,0.5-2.9-0.1-4.5,0.1c0,0.1,0.2,0.3-0.1,0.5l-0.8-0.6c-0.3,0.1-0.3,0.7-0.9,0.3c0.1,0.1,0.2,0.2,0,0.3
					c-1.6-0.2-3.2,0-4.8,0.1c-1.6,0.1-3.2,0.2-4.8,0c0.4,0.1,0.1,0.1-0.2,0.2c0.2,0,0,0.2,0,0.3c0,0-0.3,0-0.7-0.1
					c-0.3,0-0.7-0.1-0.7-0.1C2,9.1,0.8,8.9,0.7,9.1l0.4-0.1C0.5,9.3,1.9,9.5,1.8,9.9c0.6-0.3,1.7,0.5,2.7,0.1
					c0.2,0.1-0.2,0.1-0.1,0.2C4.7,10.1,5,10,5.6,10.1l-0.1,0c1.6,0,2.3,0.3,4.2,0.5l-0.1-0.3c0.4,0.1,0.5,0.1,0.7,0.2
					c0.5-0.4-1.1-0.1-0.7-0.5c0.5,0.6,2.8,0.1,3.2,0.8c0.6,0-0.2-0.4,0.4-0.3l0.2,0.2l0.2-0.3c0.4,0.1,0.6,0.3,0.6,0.5
					c-0.1,0-0.3,0-0.4,0c0.5,0.3,1.5,0,1.6,0.1l-0.6-0.2c1.7-0.1,3.7,0.3,5.3-0.1l-0.1-0.2c1.2-0.3,1,0.3,2.3,0.2l0,0
					c0.3-0.2,0.6-0.3,1-0.3c-0.3,0.2,0.6,0.5,0.2,0.8c1.3-0.4,0.7-0.3,1.5-1.1l0.2,0.4c0.3-0.3,0.3-0.5,1-0.6
					c-0.6,0.3,0.4,0.6-0.2,1c1.4,0.9,2.1-0.8,2.7,0.5c0.6-1.1-1.2-0.7-0.9-0.9c-0.3-0.4,0.5-0.8,1-0.7c0.5,0,0.8,1.5,1.9,1.5
					c-0.1,0-0.1,0.1-0.2,0.1c0.4,0.3,0.8-0.4,1.4,0.2c0.3-0.7,0.7,0.1,0.8-0.9l-1,0.2c0.6-0.2,1.1-1.3,2.1-0.8
					c-0.1,0.2-0.4,0.4-0.6,0.6c0.3,0.3,0.5-0.2,0.8,0.1c-0.1,1-1.3,0.2-1.9,0.9c0.3,0.4,1.2-0.6,0.9,0.4c0.5-1.3,1.1,0.2,1.9-0.8
					l-0.1,0.6c0.1-0.1,0.4-0.4,0.6-0.3l-0.4,0.8c0.6-0.6,1.2,0.7,1.8,0.3c-1.3-0.1-0.3-0.8-0.8-1.2c1.5-0.8,0.9,1.7,2.6,1.5
					c-0.2,0.1-0.9-0.4-0.5-0.7c0.3,0.2,0.8,0.4,1,0.8c1.1-0.1-0.2-0.7,0.3-1.1c0.4,0.8,0.6-0.3,1.1-0.5l0,0.7
					c1.3,0.5,0.3-1.4,1.5-0.8l-0.5,0.9l0.6-0.2l-0.1,0.8c0.7-0.5,0.9-0.4,1.5-0.1c-0.2-0.5,0.1-1.3,0.7-1.3c0.4,0.4-0.2,0.7,0.6,0.6
					c-0.2,0.4-0.4,1-0.7,0.3c0,0.2-0.2,0.4-0.2,0.7c0.4,0.5,1.1,0.2,1.4,0.2c-0.1,0-0.3-0.1-0.3-0.2l1.2-1c0.2,0.3,0,0.5-0.1,0.7
					c0.2-0.1,0.4-0.4,0.8-0.4c-0.1,0.6-0.1,1.2-0.6,1.5l1.1-0.6c0.1,0.3,0.6,0.8,0.4,1c0.6,0.4,1.5-1.1,2.4-0.6
					c0-0.1,0.1-0.2,0.3-0.3c0.8,0.2,1.5,1,2.4,0.2l0.5,1.2c0.7-0.2-0.7-1.6,0.5-1.9c0.9-0.3,0.3,1.1,0.6,1.4
					c0.4-0.6,1.2-1.8,1.9-0.8C56,14,55.8,13.8,55.5,13.9z M64.5,13.7c-0.2,0.2-0.5,0.8-0.6,0.2C64,12.9,64.2,13.4,64.5,13.7z
					 M78.1,11.7c-0.1,0.3-0.3,0.2-0.6-0.2C77.7,11.4,77.9,11.5,78.1,11.7z M115.9,4C115.9,4,115.9,4,115.9,4
					C115.5,3.5,115.7,3.7,115.9,4z M116.7,4.5c0.1-0.1,0.1-0.3,0-0.5c-0.1,0.3-0.2,0.3-0.4,0.2C116.4,4.6,116.5,4.8,116.7,4.5z
					 M30.6,7.2l0.2,0.1C30.4,7.5,30.5,7.4,30.6,7.2z"/>
				<path fill="#3F3B3C" d="M76.5,13.1c0-0.2-0.1-0.4-0.1-0.6C76.4,12.7,76.4,12.9,76.5,13.1z"/>
				<path fill="#3F3B3C" d="M50,14C50,14,50,14,50,14c0,0-0.1,0.1-0.1,0.1L50,14z"/>
				<path fill="#3F3B3C" d="M104.3,14.7c-0.2-0.2-0.3-0.4-0.3-0.7C104,14.4,104,14.7,104.3,14.7z"/>
				<path fill="#3F3B3C" d="M121,3.2l-0.5,0.2c0.2,0,0.3,0.2,0.5,0.4C120.9,3.5,120.8,3.2,121,3.2z"/>
				<path fill="#3F3B3C" d="M125.4,9.5c0.1-0.1,0.2,0,0.2-0.1l0-0.4C125.3,9,125.1,9.4,125.4,9.5z"/>
				<path fill="#3F3B3C" d="M121.4,6.6c0,0.9,0.4,0.6,0.7,0.4c0,0,0,0-0.1,0C122.2,5.9,121.8,6.3,121.4,6.6z"/>
				<path fill="#3F3B3C" d="M122.3,7.1c0.1,0,0.2,0,0.3,0C122.6,6.6,122.5,7,122.3,7.1z"/>
				<path fill="#3F3B3C" d="M117.7,4c0.2,0.3,0.1-1.2,0.2-0.8C118.1,2.1,116.8,4.5,117.7,4z"/>
				<polygon fill="#3F3B3C" points="121.7,9.5 121.6,8.4 121.4,9.3 				"/>
				<path fill="#3F3B3C" d="M118.9,8.6l0.6,0.3c0-0.2,0.1-0.3,0.2-0.4C119.3,8.5,118.9,8.3,118.9,8.6z"/>
				<path fill="#3F3B3C" d="M119.6,8.6c0.2,0,0.4,0,0.5-0.2C120,8.4,119.8,8.4,119.6,8.6z"/>
				<polygon fill="#3F3B3C" points="121,9.8 120.8,9.6 120.4,9.5 				"/>
				<path fill="#3F3B3C" d="M112.7,8.3l-0.6,0.3c-0.1,0.4,0.1,0.7,0.3,0.5C112.6,8.9,112.8,8.7,112.7,8.3z"/>
				<path fill="#3F3B3C" d="M114.6,11.6c-0.2-0.2-0.2-0.5-0.3-0.9l0,1.5L114.6,11.6z"/>
				<path fill="#3F3B3C" d="M112.8,12.1c-0.1,0.4-0.9,1.3-0.1,1.1C112.7,12.8,113.4,12.4,112.8,12.1z"/>
				<polygon fill="#3F3B3C" points="103.3,10.2 103.5,10.2 103.5,7.4 				"/>
				<path fill="#3F3B3C" d="M95,16.7c0.7,0.7,0.2-1.7,0.8-0.8c0.2-0.6-0.5-0.7-0.4-1.2C95,15.3,94.8,14.9,95,16.7z"/>
				<path fill="#3F3B3C" d="M95.5,14.6c0.1-0.1,0.1-0.2,0.2-0.4C95.6,14.4,95.5,14.5,95.5,14.6z"/>
				<polygon fill="#3F3B3C" points="1.4,8.7 0.9,8.7 1.2,8.8 				"/>
				<path fill="#3F3B3C" d="M0.4,9L0.3,8.8L0,9C0.1,9,0.4,9,0.4,9z"/>
				<path fill="#3F3B3C" d="M65.8,16.3l0-0.3c-0.1-0.3-0.2-0.4-0.4-0.4L65.8,16.3z"/>
				<polygon fill="#3F3B3C" points="59.3,15 59.4,15 59.2,13.9 				"/>
				<path fill="#3F3B3C" d="M53.9,15.9c0.2,0.1,0.5-0.1,0.7-0.1C54.1,16,53.8,14.7,53.9,15.9z"/>
			</g>
		</g>
	</g>
</g>
</svg>
